<svg width="174.308" height="174.308" viewBox="0 0 174.308 174.308" xmlns="http://www.w3.org/2000/svg" xmlns:xlink="http://www.w3.org/1999/xlink" overflow="hidden"><style>
.MsftOfcThm_Background2_lumMod_75_Fill_v2 {
 fill:#B8B8B8; 
}
.MsftOfcThm_Background1_Stroke_v2 {
 stroke:#FFFFFF; 
}
</style>
<g id="pathways-badge-dynamic-leadership" transform="translate(-334 -74.23)"><path d="M173.308 87.384C173.308 134.966 134.736 173.538 87.154 173.538 39.5725 173.538 0.999999 134.966 0.999999 87.384 0.999999 39.8025 39.5725 1.23001 87.154 1.23001 134.735 1.22946 173.307 39.801 173.308 87.382 173.308 87.3827 173.308 87.3833 173.308 87.384" id="Path_649885" class="MsftOfcThm_Background2_lumMod_75_Fill_v2 MsftOfcThm_Background1_Stroke_v2" stroke="#FFFFFF" fill="#B8B8B8" transform="translate(334 74)"/><circle cx="86.154" cy="86.154" r="86.154" id="Ellipse_92" class="MsftOfcThm_Background2_lumMod_75_Fill_v2 MsftOfcThm_Background1_Stroke_v2" stroke="#FFFFFF" stroke-width="2" stroke-miterlimit="10" fill="#B8B8B8" transform="translate(335 75.23)"/><path d="M12.049 70.62 11.449 73.043 10.149 72.719 11.749 66.296 13.049 66.62 12.439 69.068 19.645 70.862 19.258 72.415Z" id="Path_649886" class="MsftOfcThm_Background2_lumMod_75_Fill_v2 MsftOfcThm_Background1_Stroke_v2" stroke="#FFFFFF" fill="#B8B8B8" transform="translate(334 74)"/><path d="M19.036 58.676C21.788 59.704 22.736 61.959 21.89 64.224 21.026 66.537 18.715 67.339 16.304 66.439 13.783 65.497 12.597 63.25 13.461 60.939 14.356 58.539 16.698 57.805 19.036 58.678M16.87 64.847C18.539 65.47 20.18 65.125 20.716 63.689 21.252 62.253 20.223 60.923 18.506 60.283 16.959 59.704 15.212 59.926 14.652 61.424 14.092 62.922 15.178 64.215 16.87 64.847" id="Path_649887" class="MsftOfcThm_Background2_lumMod_75_Fill_v2 MsftOfcThm_Background1_Stroke_v2" stroke="#FFFFFF" fill="#B8B8B8" transform="translate(334 74)"/><path d="M22.481 56.245 24.329 58.067 23.561 59.528 17.112 52.971 18.06 51.164 27.139 52.717 26.339 54.235 23.773 53.783ZM22.581 53.463 20.351 53.07C19.801 52.97 19.205 52.82 18.696 52.699L18.684 52.723C19.072 53.073 19.553 53.473 19.94 53.853L21.54 55.453Z" id="Path_649888" class="MsftOfcThm_Background2_lumMod_75_Fill_v2 MsftOfcThm_Background1_Stroke_v2" stroke="#FFFFFF" fill="#B8B8B8" transform="translate(334 74)"/><path d="M26.52 50.519C27.1821 50.1851 27.7498 49.6903 28.171 49.08 28.748 48.23 28.671 47.487 28.079 47.08 27.53 46.708 26.959 46.855 25.999 47.554 24.758 48.454 23.606 48.79 22.563 48.082 21.379 47.282 21.147 45.682 22.211 44.108 22.6022 43.4949 23.1326 42.9827 23.759 42.613L24.605 43.658C24.0724 43.9465 23.6188 44.3613 23.284 44.866 22.714 45.704 22.918 46.376 23.338 46.666 23.897 47.045 24.438 46.801 25.473 46.088 26.799 45.151 27.85 44.967 28.894 45.675 30.055 46.462 30.468 48.031 29.2 49.902 28.7447 50.5848 28.1349 51.1508 27.42 51.554Z" id="Path_649889" class="MsftOfcThm_Background2_lumMod_75_Fill_v2 MsftOfcThm_Background1_Stroke_v2" stroke="#FFFFFF" fill="#B8B8B8" transform="translate(334 74)"/><path d="M27.394 39.673 25.806 41.6 24.774 40.748 28.983 35.648 30.016 36.5 28.416 38.445 34.139 43.167 33.119 44.4Z" id="Path_649890" class="MsftOfcThm_Background2_lumMod_75_Fill_v2 MsftOfcThm_Background1_Stroke_v2" stroke="#FFFFFF" fill="#B8B8B8" transform="translate(334 74)"/><path d="M39.529 32.66C38.722 31.86 37.747 30.908 36.953 30.031L36.924 30.058C37.438 31.034 37.975 32.149 38.44 33.225L40.086 36.876 39.18 37.715 35.78 35.764C34.772 35.174 33.73 34.508 32.815 33.864L32.797 33.882C33.546 34.747 34.453 35.803 35.218 36.724L37.468 39.441 36.368 40.458 30.842 33.633 32.389 32.2 35.624 34.007C36.55 34.549 37.458 35.126 38.282 35.691L38.31 35.664C37.837 34.809 37.323 33.814 36.874 32.831L35.374 29.431 36.9 28.024 43.228 34.107 42.083 35.168Z" id="Path_649891" class="MsftOfcThm_Background2_lumMod_75_Fill_v2 MsftOfcThm_Background1_Stroke_v2" stroke="#FFFFFF" fill="#B8B8B8" transform="translate(334 74)"/><path d="M44.685 30.037 45.485 32.505 44.13 33.448 41.43 24.654 43.1 23.488 50.445 29.049 49.036 30.03 46.967 28.446ZM46.052 27.61 44.252 26.234C43.809 25.893 43.352 25.484 42.952 25.142L42.931 25.157C43.113 25.647 43.357 26.223 43.531 26.739L44.209 28.896Z" id="Path_649892" class="MsftOfcThm_Background2_lumMod_75_Fill_v2 MsftOfcThm_Background1_Stroke_v2" stroke="#FFFFFF" fill="#B8B8B8" transform="translate(334 74)"/><path d="M50.912 26.808C51.6538 26.8172 52.386 26.6394 53.041 26.291 53.941 25.804 54.218 25.109 53.878 24.48 53.562 23.898 52.988 23.765 51.814 23.942 50.299 24.17 49.122 23.935 48.522 22.827 47.843 21.57 48.375 20.04 50.044 19.138 50.6735 18.7752 51.3795 18.5655 52.105 18.526L52.375 19.843C51.7691 19.8525 51.1749 20.0112 50.645 20.305 49.754 20.787 49.625 21.477 49.866 21.923 50.187 22.517 50.781 22.55 52.026 22.395 53.636 22.174 54.651 22.495 55.251 23.605 55.918 24.839 55.561 26.42 53.573 27.495 52.8549 27.8918 52.053 28.1129 51.233 28.14Z" id="Path_649893" class="MsftOfcThm_Background2_lumMod_75_Fill_v2 MsftOfcThm_Background1_Stroke_v2" stroke="#FFFFFF" fill="#B8B8B8" transform="translate(334 74)"/><path d="M56.717 17.564 54.411 18.522 53.9 17.286 60.012 14.746 60.526 15.983 58.196 16.951 61.045 23.807 59.568 24.421Z" id="Path_649894" class="MsftOfcThm_Background2_lumMod_75_Fill_v2 MsftOfcThm_Background1_Stroke_v2" stroke="#FFFFFF" fill="#B8B8B8" transform="translate(334 74)"/><path d="M68.209 17.3 65.046 18.253 65.789 20.719 69.325 19.653 69.705 20.91 64.637 22.438 62.107 14.046 66.988 12.574 67.367 13.832 64.018 14.842 64.671 17 67.833 16.047Z" id="Path_649895" class="MsftOfcThm_Background2_lumMod_75_Fill_v2 MsftOfcThm_Background1_Stroke_v2" stroke="#FFFFFF" fill="#B8B8B8" transform="translate(334 74)"/><path d="M69.746 12.013C70.5087 11.7411 71.2918 11.5304 72.088 11.383 73.0101 11.1134 73.9979 11.1793 74.876 11.569 75.4524 11.9088 75.8447 12.4904 75.944 13.152 76.1239 14.1301 75.6648 15.1149 74.8 15.606L74.806 15.645C75.5177 15.8415 76.0858 16.3778 76.323 17.077 76.645 17.8608 77.0237 18.6202 77.456 19.349L75.834 19.658C75.4586 19.0464 75.137 18.4033 74.873 17.736 74.417 16.659 73.94 16.378 73.042 16.523L72.25 16.673 72.922 20.211 71.364 20.511ZM72.027 15.524 72.96 15.346C74.02 15.146 74.577 14.457 74.415 13.601 74.235 12.656 73.488 12.348 72.466 12.543 72.1389 12.5952 71.8184 12.6824 71.51 12.803Z" id="Path_649896" class="MsftOfcThm_Background2_lumMod_75_Fill_v2 MsftOfcThm_Background1_Stroke_v2" stroke="#FFFFFF" fill="#B8B8B8" transform="translate(334 74)"/><path d="M78.768 17.464C79.444 17.7702 80.186 17.9018 80.926 17.847 81.95 17.763 82.48 17.236 82.421 16.524 82.367 15.862 81.894 15.511 80.747 15.2 79.266 14.8 78.284 14.112 78.18 12.856 78.062 11.431 79.164 10.244 81.056 10.089 81.7788 10.009 82.5102 10.1005 83.191 10.356L82.908 11.671C82.3492 11.4366 81.7413 11.3435 81.138 11.4 80.127 11.483 79.732 12.063 79.774 12.568 79.829 13.241 80.36 13.511 81.563 13.868 83.125 14.314 83.927 15.017 84.031 16.274 84.146 17.674 83.184 18.974 80.931 19.163 80.1147 19.2377 79.2922 19.1181 78.531 18.814Z" id="Path_649897" class="MsftOfcThm_Background2_lumMod_75_Fill_v2 MsftOfcThm_Background1_Stroke_v2" stroke="#FFFFFF" fill="#B8B8B8" transform="translate(334 74)"/><rect x="0" y="0" width="8.758" height="1.599" id="Rectangle_18862" class="MsftOfcThm_Background2_lumMod_75_Fill_v2 MsftOfcThm_Background1_Stroke_v2" stroke="#FFFFFF" fill="#B8B8B8" transform="matrix(0.0387017 -0.999251 0.999251 0.0387017 423.122 92.777)"/><path d="M92.9 18.9 94.042 10.21 95.847 10.447 97.601 14.467C98.0381 15.4774 98.4056 16.5165 98.701 17.577L98.727 17.577C98.776 16.403 98.884 15.277 99.059 13.948L99.459 10.918 100.928 11.111 99.787 19.801 98.149 19.586 96.381 15.471C95.9327 14.4239 95.5434 13.3526 95.215 12.262L95.175 12.27C95.092 13.401 94.955 14.549 94.766 15.981L94.358 19.088Z" id="Path_649898" class="MsftOfcThm_Background2_lumMod_75_Fill_v2 MsftOfcThm_Background1_Stroke_v2" stroke="#FFFFFF" fill="#B8B8B8" transform="translate(334 74)"/><path d="M105.277 13.472 102.857 12.863 103.184 11.563 109.6 13.18 109.273 14.48 106.828 13.865 105.016 21.065 103.466 20.674Z" id="Path_649899" class="MsftOfcThm_Background2_lumMod_75_Fill_v2 MsftOfcThm_Background1_Stroke_v2" stroke="#FFFFFF" fill="#B8B8B8" transform="translate(334 74)"/><path d="M114.656 20.128 111.551 19 110.671 21.42 114.142 22.681 113.693 23.915 108.719 22.108 111.712 13.87 116.503 15.61 116.054 16.845 112.766 15.65 111.994 17.777 115.094 18.905Z" id="Path_649900" class="MsftOfcThm_Background2_lumMod_75_Fill_v2 MsftOfcThm_Background1_Stroke_v2" stroke="#FFFFFF" fill="#B8B8B8" transform="translate(334 74)"/><path d="M119.032 16.8C119.806 17.0392 120.56 17.3402 121.286 17.7 122.187 18.0355 122.939 18.6797 123.409 19.518 123.668 20.1353 123.634 20.8364 123.317 21.426 122.874 22.3183 121.914 22.8321 120.926 22.706L120.909 22.741C121.361 23.3246 121.495 24.0942 121.266 24.796 121.054 25.6172 120.903 26.4527 120.813 27.296L119.328 26.572C119.393 25.8573 119.521 25.1496 119.709 24.457 119.989 23.32 119.776 22.81 118.969 22.387L118.244 22.033 116.663 25.271 115.237 24.571ZM118.758 20.98 119.611 21.397C120.295 21.8793 121.24 21.7159 121.722 21.0322 121.759 20.9803 121.792 20.9261 121.822 20.87 122.244 20.004 121.831 19.311 120.896 18.854 120.603 18.6995 120.293 18.5778 119.973 18.491Z" id="Path_649901" class="MsftOfcThm_Background2_lumMod_75_Fill_v2 MsftOfcThm_Background1_Stroke_v2" stroke="#FFFFFF" fill="#B8B8B8" transform="translate(334 74)"/><path d="M122.084 28.017 126.846 20.663 128.373 21.653 128.23 26.035C128.191 27.1342 128.076 28.2294 127.888 29.313L127.91 29.328C128.458 28.288 129.04 27.319 129.768 26.195L131.428 23.63 132.672 24.436 127.91 31.789 126.524 30.889 126.695 26.416C126.741 25.2775 126.849 24.1424 127.021 23.016L126.981 23.005C126.422 23.989 125.804 24.968 125.02 26.179L123.32 28.808Z" id="Path_649902" class="MsftOfcThm_Background2_lumMod_75_Fill_v2 MsftOfcThm_Background1_Stroke_v2" stroke="#FFFFFF" fill="#B8B8B8" transform="translate(334 74)"/><path d="M132.49 32.269 130.329 33.7 129.056 32.65 136.796 27.679 138.37 28.979 134.991 37.547 133.668 36.455 134.635 34.035ZM135.19 32.933 136.032 30.833C136.241 30.315 136.51 29.763 136.732 29.289L136.711 29.273C136.289 29.581 135.8 29.973 135.349 30.273L133.46 31.5Z" id="Path_649903" class="MsftOfcThm_Background2_lumMod_75_Fill_v2 MsftOfcThm_Background1_Stroke_v2" stroke="#FFFFFF" fill="#B8B8B8" transform="translate(334 74)"/><path d="M141.767 33.969 140.021 32.188 140.977 31.251 145.606 35.973 144.65 36.909 142.885 35.109 137.585 40.302 136.466 39.16Z" id="Path_649904" class="MsftOfcThm_Background2_lumMod_75_Fill_v2 MsftOfcThm_Background1_Stroke_v2" stroke="#FFFFFF" fill="#B8B8B8" transform="translate(334 74)"/><rect x="0" y="0" width="8.76" height="1.599" id="Rectangle_18863" class="MsftOfcThm_Background2_lumMod_75_Fill_v2 MsftOfcThm_Background1_Stroke_v2" stroke="#FFFFFF" fill="#B8B8B8" transform="matrix(0.767 -0.642 0.642 0.767 474.202 117.188)"/><path d="M150.725 49.926C148.304 51.589 145.914 51.07 144.546 49.078 143.146 47.043 143.819 44.69 145.94 43.234 148.157 41.712 150.678 42.034 152.075 44.066 153.523 46.176 152.781 48.514 150.725 49.926M146.918 44.612C145.45 45.62 144.79 47.161 145.658 48.425 146.526 49.689 148.204 49.608 149.715 48.571 151.075 47.636 151.897 46.08 150.992 44.761 150.087 43.442 148.406 43.59 146.918 44.612" id="Path_649905" class="MsftOfcThm_Background2_lumMod_75_Fill_v2 MsftOfcThm_Background1_Stroke_v2" stroke="#FFFFFF" fill="#B8B8B8" transform="translate(334 74)"/><path d="M147.828 53.871 155.644 49.912 156.467 51.535 154.138 55.251C153.551 56.1813 152.901 57.0704 152.192 57.912L152.204 57.935C153.204 57.314 154.192 56.768 155.387 56.163L158.111 54.782 158.781 56.104 150.965 60.064 150.219 58.591 152.619 54.811C153.231 53.8508 153.895 52.9254 154.61 52.039L154.581 52.011C153.601 52.579 152.575 53.111 151.288 53.766L148.493 55.182Z" id="Path_649906" class="MsftOfcThm_Background2_lumMod_75_Fill_v2 MsftOfcThm_Background1_Stroke_v2" stroke="#FFFFFF" fill="#B8B8B8" transform="translate(334 74)"/><path d="M154.705 62.821 152.114 62.944 151.56 61.39 160.75 61.09 161.436 63.011 154.143 68.632 153.567 67.017 155.638 65.437ZM156.685 64.777 158.485 63.404C158.93 63.065 159.445 62.73 159.878 62.437L159.87 62.413C159.349 62.461 158.73 62.544 158.188 62.571L155.93 62.66Z" id="Path_649907" class="MsftOfcThm_Background2_lumMod_75_Fill_v2 MsftOfcThm_Background1_Stroke_v2" stroke="#FFFFFF" fill="#B8B8B8" transform="translate(334 74)"/><path d="M163.016 68.081 163.386 69.637 156.162 71.353 156.995 74.853 155.695 75.163 154.495 70.102Z" id="Path_649908" class="MsftOfcThm_Background2_lumMod_75_Fill_v2 MsftOfcThm_Background1_Stroke_v2" stroke="#FFFFFF" fill="#B8B8B8" transform="translate(334 74)"/><path d="M36.564 131.34C37.217 131.889 37.8255 132.489 38.384 133.134 39.3023 134.024 39.8701 135.215 39.984 136.489 40.0021 137.721 39.4394 138.89 38.465 139.644 37.5303 140.557 36.2476 141.022 34.945 140.922 33.5447 140.646 32.2936 139.867 31.427 138.733 30.946 138.195 30.4991 137.627 30.089 137.033ZM32.044 137.446C32.2115 137.689 32.397 137.92 32.599 138.135 33.5449 139.495 35.4145 139.831 36.7748 138.885 36.9712 138.749 37.1505 138.589 37.309 138.41 38.5599 137.518 38.8507 135.781 37.9585 134.53 37.8372 134.36 37.6972 134.204 37.541 134.065 37.3053 133.784 37.0405 133.53 36.751 133.305Z" id="Path_649909" class="MsftOfcThm_Background2_lumMod_75_Fill_v2 MsftOfcThm_Background1_Stroke_v2" stroke="#FFFFFF" fill="#B8B8B8" transform="translate(334 74)"/><path d="M41.944 140.453 40.544 143.753C40.383 144.131 40.162 144.577 39.988 144.909L40.016 144.936C40.335 144.731 40.733 144.46 41.098 144.227L44.078 142.354 45.361 143.492 41.313 145.667C39.092 146.858 37.956 147.258 36.961 147.244 36.3263 147.259 35.7015 147.085 35.166 146.744L35.789 145.492C36.0986 145.651 36.4356 145.749 36.782 145.782 37.2277 145.832 37.679 145.774 38.097 145.611 38.1964 145.585 38.2881 145.536 38.364 145.467 38.4339 145.382 38.4813 145.281 38.502 145.173L40.627 139.294Z" id="Path_649910" class="MsftOfcThm_Background2_lumMod_75_Fill_v2 MsftOfcThm_Background1_Stroke_v2" stroke="#FFFFFF" fill="#B8B8B8" transform="translate(334 74)"/><path d="M45.36 145.86C45.78 145.266 46.123 144.76 46.406 144.293L47.551 145.103 47.067 145.922 47.098 145.945C47.8503 145.621 48.7182 145.725 49.373 146.217 50.273 146.856 50.795 148.1 49.638 149.733L47.469 152.8 46.169 151.878 48.233 148.961C48.759 148.218 48.881 147.461 48.171 146.961 47.6956 146.641 47.069 146.658 46.612 147.004 46.4742 147.113 46.355 147.243 46.259 147.39L44.111 150.423 42.797 149.492Z" id="Path_649911" class="MsftOfcThm_Background2_lumMod_75_Fill_v2 MsftOfcThm_Background1_Stroke_v2" stroke="#FFFFFF" fill="#B8B8B8" transform="translate(334 74)"/><path d="M53.012 156.01 53.261 155.345 53.226 155.326C52.5547 155.588 51.8004 155.528 51.179 155.163 50.2428 154.717 49.8456 153.596 50.2919 152.66 50.3091 152.624 50.3275 152.588 50.347 152.553 51.118 151.153 52.747 151.131 54.791 152.27L54.841 152.179C55.041 151.815 55.226 151.131 54.247 150.592 53.722 150.303 53.129 150.16 52.53 150.179L52.759 149.118C53.5573 149.121 54.3409 149.333 55.032 149.732 56.2412 150.23 56.8176 151.614 56.3194 152.824 56.245 153.004 56.1484 153.175 56.032 153.332L54.932 155.332C54.6797 155.774 54.4611 156.234 54.278 156.708ZM54.323 153.2C53.345 152.632 52.281 152.328 51.817 153.17 51.5584 153.555 51.6605 154.076 52.045 154.334 52.0862 154.362 52.1297 154.386 52.175 154.406 52.6609 154.686 53.2718 154.621 53.688 154.245 53.7738 154.163 53.8464 154.068 53.903 153.963Z" id="Path_649912" class="MsftOfcThm_Background2_lumMod_75_Fill_v2 MsftOfcThm_Background1_Stroke_v2" stroke="#FFFFFF" fill="#B8B8B8" transform="translate(334 74)"/><path d="M58.44 153.912C58.699 153.231 58.904 152.656 59.062 152.132L60.349 152.622 60.077 153.522 60.114 153.536C60.7369 153.037 61.5817 152.917 62.319 153.222 63.0498 153.477 63.5404 154.165 63.543 154.939L63.567 154.948C63.8631 154.717 64.2094 154.558 64.578 154.485 65.0186 154.375 65.4829 154.41 65.902 154.585 66.886 154.959 67.628 156.007 66.902 157.901L65.575 161.387 64.117 160.832 65.361 157.565C65.736 156.581 65.618 155.865 64.901 155.596 64.4146 155.43 63.8765 155.587 63.555 155.988 63.4496 156.134 63.3616 156.292 63.293 156.458L61.948 160 60.491 159.445 61.791 156.019C62.106 155.194 62 154.486 61.307 154.219 60.7958 154.052 60.235 154.231 59.915 154.663 59.796 154.795 59.7042 154.949 59.645 155.116L58.313 158.616 56.856 158.061Z" id="Path_649913" class="MsftOfcThm_Background2_lumMod_75_Fill_v2 MsftOfcThm_Background1_Stroke_v2" stroke="#FFFFFF" fill="#B8B8B8" transform="translate(334 74)"/><path d="M68.382 162.041 69.942 155.902 71.505 156.302 69.944 162.441ZM72.029 154.608C71.9222 155.093 71.4421 155.4 70.9567 155.294 70.4712 155.187 70.1642 154.707 70.271 154.221 70.3778 153.736 70.8579 153.429 71.3433 153.536 71.3536 153.538 71.3638 153.54 71.374 153.543 71.8334 153.631 72.1346 154.075 72.0466 154.534 72.0418 154.559 72.036 154.584 72.029 154.608" id="Path_649914" class="MsftOfcThm_Background2_lumMod_75_Fill_v2 MsftOfcThm_Background1_Stroke_v2" stroke="#FFFFFF" fill="#B8B8B8" transform="translate(334 74)"/><path d="M77.162 163.647C76.5612 163.772 75.9416 163.776 75.339 163.66 73.6685 163.497 72.4463 162.011 72.6092 160.341 72.6228 160.201 72.6461 160.062 72.679 159.925 72.9252 158.135 74.5756 156.884 76.3652 157.13 76.4871 157.147 76.6078 157.171 76.727 157.201 77.25 157.287 77.7505 157.477 78.199 157.76L77.713 158.889C77.3678 158.656 76.9755 158.502 76.564 158.438 75.4392 158.308 74.4224 159.115 74.2929 160.24 74.1737 161.275 74.8495 162.234 75.864 162.471 76.2893 162.551 76.7265 162.542 77.148 162.444Z" id="Path_649915" class="MsftOfcThm_Background2_lumMod_75_Fill_v2 MsftOfcThm_Background1_Stroke_v2" stroke="#FFFFFF" fill="#B8B8B8" transform="translate(334 74)"/><path d="M83.1 155.629 84.7 155.672 84.5 163.096 88.1 163.196 88.064 164.536 82.864 164.396Z" id="Path_649916" class="MsftOfcThm_Background2_lumMod_75_Fill_v2 MsftOfcThm_Background1_Stroke_v2" stroke="#FFFFFF" fill="#B8B8B8" transform="translate(334 74)"/><path d="M91.114 161.66C91.2227 162.604 92.0763 163.282 93.0206 163.173 93.0754 163.167 93.13 163.158 93.184 163.146 93.7814 163.115 94.3678 162.973 94.913 162.727L95.231 163.811C94.5477 164.132 93.8097 164.322 93.056 164.369 91.4223 164.645 89.8741 163.545 89.5979 161.911 89.5709 161.751 89.5569 161.589 89.556 161.427 89.2747 159.718 90.432 158.105 92.1409 157.823 92.2212 157.81 92.3019 157.8 92.383 157.793 94.432 157.636 95.236 159.271 95.342 160.658 95.3622 160.884 95.3622 161.111 95.342 161.337ZM93.804 160.333C93.8497 159.582 93.2781 158.936 92.5273 158.891 92.4766 158.888 92.4257 158.887 92.375 158.89 91.5612 159.003 90.973 159.725 91.028 160.545Z" id="Path_649917" class="MsftOfcThm_Background2_lumMod_75_Fill_v2 MsftOfcThm_Background1_Stroke_v2" stroke="#FFFFFF" fill="#B8B8B8" transform="translate(334 74)"/><path d="M101.472 163.07 101.242 162.398 101.204 162.406C100.85 163.033 100.228 163.464 99.516 163.575 98.5085 163.824 97.4902 163.209 97.2415 162.201 97.2317 162.161 97.2232 162.121 97.216 162.081 96.927 160.507 98.175 159.459 100.478 159.048L100.46 158.948C100.385 158.539 100.094 157.892 98.994 158.094 98.4046 158.203 97.8553 158.469 97.403 158.862L96.908 157.895C97.5282 157.392 98.2695 157.06 99.058 156.932 100.309 156.552 101.631 157.258 102.011 158.509 102.067 158.695 102.1 158.887 102.11 159.081L102.523 161.332C102.608 161.833 102.73 162.328 102.888 162.811ZM100.708 160.064C99.591 160.243 98.574 160.681 98.748 161.627 98.7907 162.088 99.1994 162.428 99.6608 162.385 99.7106 162.38 99.7598 162.371 99.808 162.358 100.361 162.267 100.793 161.83 100.877 161.276 100.892 161.158 100.888 161.038 100.865 160.921Z" id="Path_649918" class="MsftOfcThm_Background2_lumMod_75_Fill_v2 MsftOfcThm_Background1_Stroke_v2" stroke="#FFFFFF" fill="#B8B8B8" transform="translate(334 74)"/><path d="M108.466 151.66 110.625 158.786C110.813 159.408 111.042 160.072 111.191 160.475L109.823 160.89 109.472 159.951 109.446 159.958C109.256 160.785 108.622 161.438 107.801 161.651 106.358 162.089 104.841 161.205 104.275 159.339 103.648 157.317 104.552 155.726 106.007 155.284 106.66 155.034 107.395 155.14 107.951 155.564L107.977 155.557 106.937 152.124ZM108.542 157.422C108.501 157.288 108.448 157.159 108.384 157.035 108.069 156.443 107.379 156.157 106.738 156.353 105.755 156.653 105.472 157.687 105.815 158.818 106.15 159.925 106.942 160.568 107.915 160.274 108.555 160.078 108.969 159.459 108.906 158.792 108.897 158.635 108.868 158.479 108.82 158.329Z" id="Path_649919" class="MsftOfcThm_Background2_lumMod_75_Fill_v2 MsftOfcThm_Background1_Stroke_v2" stroke="#FFFFFF" fill="#B8B8B8" transform="translate(334 74)"/><path d="M113.795 156.537C114.204 157.393 115.229 157.756 116.086 157.347 116.136 157.323 116.186 157.296 116.234 157.267 116.79 157.045 117.299 156.72 117.734 156.308L118.387 157.23C117.846 157.756 117.21 158.175 116.513 158.465 115.057 159.256 113.236 158.718 112.445 157.262 112.368 157.121 112.303 156.975 112.25 156.824 111.428 155.301 111.996 153.4 113.52 152.578 113.591 152.539 113.664 152.503 113.739 152.47 115.624 151.655 116.915 152.938 117.467 154.215 117.559 154.422 117.632 154.636 117.687 154.856ZM115.904 154.407C115.704 153.683 114.955 153.258 114.231 153.458 114.182 153.472 114.133 153.488 114.086 153.507 113.354 153.878 113.033 154.75 113.35 155.507Z" id="Path_649920" class="MsftOfcThm_Background2_lumMod_75_Fill_v2 MsftOfcThm_Background1_Stroke_v2" stroke="#FFFFFF" fill="#B8B8B8" transform="translate(334 74)"/><path d="M118.809 152.485C118.398 151.733 118.093 151.204 117.784 150.72L119.003 150.053 119.629 151.088 119.675 151.063C119.504 150.275 119.853 149.465 120.542 149.047 120.652 148.985 120.769 148.936 120.891 148.901L121.616 150.223C121.465 150.267 121.318 150.327 121.18 150.402 120.545 150.729 120.255 151.48 120.506 152.149 120.556 152.307 120.621 152.461 120.699 152.607L122.271 155.479 120.871 156.247Z" id="Path_649921" class="MsftOfcThm_Background2_lumMod_75_Fill_v2 MsftOfcThm_Background1_Stroke_v2" stroke="#FFFFFF" fill="#B8B8B8" transform="translate(334 74)"/><path d="M124.869 152.287C125.438 152.246 125.989 152.068 126.475 151.77 127.061 151.384 127.164 150.97 126.934 150.625 126.704 150.28 126.359 150.225 125.557 150.425 124.291 150.748 123.483 150.471 123.086 149.845 122.493 148.836 122.83 147.537 123.839 146.945 123.887 146.916 123.936 146.89 123.986 146.866 124.467 146.539 125.018 146.33 125.594 146.256L125.958 147.371C125.489 147.405 125.036 147.554 124.64 147.806 124.162 148.122 124.053 148.521 124.267 148.847 124.481 149.173 124.847 149.181 125.678 148.975 126.861 148.691 127.629 148.886 128.156 149.659 128.787 150.614 128.498 151.804 127.099 152.728 126.548 153.107 125.913 153.345 125.249 153.421Z" id="Path_649922" class="MsftOfcThm_Background2_lumMod_75_Fill_v2 MsftOfcThm_Background1_Stroke_v2" stroke="#FFFFFF" fill="#B8B8B8" transform="translate(334 74)"/><path d="M125.288 142.658 126.533 141.635 128.927 144.547 128.947 144.53C128.905 144.168 128.957 143.801 129.097 143.464 129.233 143.106 129.461 142.791 129.759 142.55 130.592 141.864 131.92 141.698 133.208 143.264L135.577 146.146 134.342 147.162 132.088 144.421C131.502 143.708 130.804 143.39 130.121 143.952 129.687 144.309 129.531 144.905 129.736 145.429 129.796 145.581 129.883 145.721 129.992 145.842L132.392 148.763 131.148 149.787Z" id="Path_649923" class="MsftOfcThm_Background2_lumMod_75_Fill_v2 MsftOfcThm_Background1_Stroke_v2" stroke="#FFFFFF" fill="#B8B8B8" transform="translate(334 74)"/><path d="M133.079 137.287C133.439 137.63 133.452 138.2 133.109 138.559 132.766 138.919 132.196 138.932 131.836 138.589 131.477 138.246 131.463 137.676 131.807 137.317 131.814 137.309 131.821 137.301 131.829 137.294 132.144 136.947 132.68 136.921 133.027 137.235 133.045 137.252 133.062 137.269 133.079 137.287M137.539 144.26 133.102 139.742 134.253 138.613 138.689 143.13Z" id="Path_649924" class="MsftOfcThm_Background2_lumMod_75_Fill_v2 MsftOfcThm_Background1_Stroke_v2" stroke="#FFFFFF" fill="#B8B8B8" transform="translate(334 74)"/><path d="M137.477 138.314C136.853 137.764 136.328 137.337 135.862 136.962L136.79 135.908 137.573 136.494 137.59 136.474C137.358 135.634 137.586 134.735 138.19 134.107 139.152 133.015 140.89 132.933 142.368 134.239 144.084 135.751 143.96 137.563 143.006 138.646 142.571 139.193 141.891 139.485 141.195 139.424L141.178 139.443 143.636 141.607 142.579 142.807ZM139.713 138.154C139.823 138.255 139.945 138.34 140.078 138.407 140.669 138.724 141.4 138.594 141.845 138.093 142.515 137.333 142.276 136.326 141.34 135.501 140.502 134.762 139.458 134.57 138.78 135.341 138.331 135.87 138.307 136.639 138.722 137.195 138.793 137.312 138.881 137.417 138.982 137.509Z" id="Path_649925" class="MsftOfcThm_Background2_lumMod_75_Fill_v2 MsftOfcThm_Background1_Stroke_v2" stroke="#FFFFFF" fill="#B8B8B8" transform="translate(334 74)"/><path d="M144.977 87.769C144.978 119.704 119.089 145.593 87.154 145.594 55.2187 145.595 29.3296 119.706 29.329 87.771 29.3285 55.8357 55.2167 29.9465 87.152 29.946 87.1527 29.946 87.1533 29.946 87.154 29.946 119.089 29.946 144.977 55.8342 144.977 87.769" id="Path_649926" class="MsftOfcThm_Background2_lumMod_75_Fill_v2 MsftOfcThm_Background1_Stroke_v2" stroke="#FFFFFF" fill="#B8B8B8" transform="translate(334 74)"/><path d="M87.154 29.945C55.2192 29.945 29.331 55.8332 29.331 87.768 29.331 119.703 55.2192 145.591 87.154 145.591 119.089 145.591 144.977 119.703 144.977 87.768 144.977 55.8332 119.089 29.945 87.154 29.945M126.214 102.758C125.555 103.366 124.792 103.85 123.962 104.188 121.468 123.935 112.538 126.155 108.662 126.155 105.774 126.122 103.008 124.99 100.926 122.988 97.335 135.043 90.563 136.604 87.326 136.604 84.089 136.604 77.305 135.043 73.715 122.981 71.6355 124.978 68.8732 126.109 65.99 126.142 62.109 126.142 53.178 123.921 50.69 104.174 49.8602 103.837 49.0977 103.353 48.439 102.746 45.553 100.095 44.631 95.48 45.539 88.224 46.512 80.41 49.387 75.374 52.539 72.124 47.316 64.6964 49.1031 54.4411 56.5307 49.2181 63.9582 43.9951 74.2135 45.7822 79.4366 53.2098 80.4058 54.5881 81.1574 56.1073 81.665 57.714 85.3138 56.3487 89.3332 56.3487 92.982 57.714 95.7137 49.0528 104.95 44.246 113.611 46.9777 122.272 49.7095 127.079 58.9452 124.347 67.6064 123.838 69.2205 123.083 70.7463 122.108 72.13 125.267 75.381 128.143 80.418 129.117 88.236 130.023 95.492 129.099 100.108 126.217 102.758" id="Path_649927" class="MsftOfcThm_Background2_lumMod_75_Fill_v2 MsftOfcThm_Background1_Stroke_v2" stroke="#FFFFFF" fill="#B8B8B8" transform="translate(334 74)"/><path d="M72.4 72.543C76.24 74.687 80.6 79.221 81.8 88.802 83.2 100.057 79.28 100.312 77.671 99.971 77.3572 99.9015 77.0464 100.1 76.9769 100.413 76.9711 100.44 76.9671 100.466 76.965 100.493 76.656 104.267 74.765 121.462 65.993 121.462L65.986 121.462C57.214 121.462 55.323 104.267 55.013 100.493 54.9875 100.173 54.707 99.9335 54.3866 99.9591 54.3598 99.9612 54.3332 99.9652 54.307 99.971 52.698 100.312 48.776 100.057 50.179 88.802 51.373 79.224 55.731 74.691 59.57 72.545" id="Path_649928" class="MsftOfcThm_Background2_lumMod_75_Fill_v2 MsftOfcThm_Background1_Stroke_v2" stroke="#FFFFFF" fill="#B8B8B8" transform="translate(334 74)"/><path d="M72.4 72.543C76.24 74.687 80.6 79.221 81.8 88.802 83.2 100.057 79.28 100.312 77.671 99.971 77.3572 99.9015 77.0464 100.1 76.9769 100.413 76.9711 100.44 76.9671 100.466 76.965 100.493 76.656 104.267 74.765 121.462 65.993 121.462L65.986 121.462C57.214 121.462 55.323 104.267 55.013 100.493 54.9875 100.173 54.707 99.9335 54.3866 99.9591 54.3598 99.9612 54.3332 99.9652 54.307 99.971 52.698 100.312 48.776 100.057 50.179 88.802 51.373 79.224 55.731 74.691 59.57 72.545" id="Path_649929" class="MsftOfcThm_Background2_lumMod_75_Fill_v2 MsftOfcThm_Background1_Stroke_v2" stroke="#FFFFFF" stroke-width="2" stroke-miterlimit="10" fill="#B8B8B8" transform="translate(334 74)"/><path d="M54.216 62.679C54.2166 56.1797 59.4857 50.9114 65.985 50.912 72.4843 50.9126 77.7526 56.1817 77.752 62.681 77.7514 69.1795 72.4835 74.4474 65.985 74.448 59.4852 74.448 54.216 69.1788 54.216 62.679" id="Path_649930" class="MsftOfcThm_Background2_lumMod_75_Fill_v2 MsftOfcThm_Background1_Stroke_v2" stroke="#FFFFFF" fill="#B8B8B8" transform="translate(334 74)"/><path d="M54.216 62.679C54.2166 56.1797 59.4857 50.9114 65.985 50.912 72.4843 50.9126 77.7526 56.1817 77.752 62.681 77.7514 69.1795 72.4835 74.4474 65.985 74.448 59.4852 74.448 54.216 69.1788 54.216 62.679Z" id="Path_649931" class="MsftOfcThm_Background2_lumMod_75_Fill_v2 MsftOfcThm_Background1_Stroke_v2" stroke="#FFFFFF" stroke-width="2" stroke-miterlimit="10" fill="#B8B8B8" transform="translate(334 74)"/><path d="M115.077 72.555C118.917 74.7 123.277 79.233 124.477 88.814 125.877 100.069 121.957 100.324 120.348 99.983 120.034 99.9135 119.723 100.112 119.654 100.425 119.648 100.452 119.644 100.478 119.642 100.505 119.333 104.279 117.442 121.474 108.67 121.474L108.663 121.474C99.891 121.474 98 104.279 97.69 100.505 97.6645 100.185 97.384 99.9455 97.0636 99.9711 97.0368 99.9732 97.0102 99.9772 96.984 99.983 95.375 100.324 91.453 100.069 92.856 88.814 94.05 79.236 98.408 74.703 102.247 72.557" id="Path_649932" class="MsftOfcThm_Background2_lumMod_75_Fill_v2 MsftOfcThm_Background1_Stroke_v2" stroke="#FFFFFF" fill="#B8B8B8" transform="translate(334 74)"/><path d="M115.077 72.555C118.917 74.7 123.277 79.233 124.477 88.814 125.877 100.069 121.957 100.324 120.348 99.983 120.034 99.9135 119.723 100.112 119.654 100.425 119.648 100.452 119.644 100.478 119.642 100.505 119.333 104.279 117.442 121.474 108.67 121.474L108.663 121.474C99.891 121.474 98 104.279 97.69 100.505 97.6645 100.185 97.384 99.9455 97.0636 99.9711 97.0368 99.9732 97.0102 99.9772 96.984 99.983 95.375 100.324 91.453 100.069 92.856 88.814 94.05 79.236 98.408 74.703 102.247 72.557" id="Path_649933" class="MsftOfcThm_Background2_lumMod_75_Fill_v2 MsftOfcThm_Background1_Stroke_v2" stroke="#FFFFFF" stroke-width="2" stroke-miterlimit="10" fill="#B8B8B8" transform="translate(334 74)"/><path d="M96.89 62.691C96.89 56.1912 102.159 50.922 108.659 50.922 115.159 50.922 120.428 56.1912 120.428 62.691 120.428 69.1908 115.159 74.46 108.659 74.46 102.159 74.46 96.89 69.1908 96.89 62.691" id="Path_649934" class="MsftOfcThm_Background2_lumMod_75_Fill_v2 MsftOfcThm_Background1_Stroke_v2" stroke="#FFFFFF" fill="#B8B8B8" transform="translate(334 74)"/><path d="M96.89 62.691C96.89 56.1912 102.159 50.922 108.659 50.922 115.159 50.922 120.428 56.1912 120.428 62.691 120.428 69.1908 115.159 74.46 108.659 74.46 102.159 74.46 96.89 69.1908 96.89 62.691Z" id="Path_649935" class="MsftOfcThm_Background2_lumMod_75_Fill_v2 MsftOfcThm_Background1_Stroke_v2" stroke="#FFFFFF" stroke-width="2" stroke-miterlimit="10" fill="#B8B8B8" transform="translate(334 74)"/><path d="M72.4 72.543C76.24 74.687 80.6 79.221 81.8 88.802 83.2 100.057 79.28 100.312 77.671 99.971 77.3572 99.9015 77.0464 100.1 76.9769 100.413 76.9711 100.44 76.9671 100.466 76.965 100.493 76.656 104.267 74.765 121.462 65.993 121.462L65.986 121.462C57.214 121.462 55.323 104.267 55.013 100.493 54.9875 100.173 54.707 99.9335 54.3866 99.9591 54.3598 99.9612 54.3332 99.9652 54.307 99.971 52.698 100.312 48.776 100.057 50.179 88.802 51.373 79.224 55.731 74.691 59.57 72.545" id="Path_649936" class="MsftOfcThm_Background2_lumMod_75_Fill_v2 MsftOfcThm_Background1_Stroke_v2" stroke="#FFFFFF" fill="#B8B8B8" transform="translate(334 74)"/><path d="M72.4 72.543C76.24 74.687 80.6 79.221 81.8 88.802 83.2 100.057 79.28 100.312 77.671 99.971 77.3572 99.9015 77.0464 100.1 76.9769 100.413 76.9711 100.44 76.9671 100.466 76.965 100.493 76.656 104.267 74.765 121.462 65.993 121.462L65.986 121.462C57.214 121.462 55.323 104.267 55.013 100.493 54.9875 100.173 54.707 99.9335 54.3866 99.9591 54.3598 99.9612 54.3332 99.9652 54.307 99.971 52.698 100.312 48.776 100.057 50.179 88.802 51.373 79.224 55.731 74.691 59.57 72.545" id="Path_649937" class="MsftOfcThm_Background2_lumMod_75_Fill_v2 MsftOfcThm_Background1_Stroke_v2" stroke="#FFFFFF" stroke-width="2" stroke-miterlimit="10" fill="#B8B8B8" transform="translate(334 74)"/><path d="M59.568 72.546C54.1164 69.0045 52.568 61.7141 56.1095 56.2625 59.651 50.8109 66.9413 49.2625 72.3929 52.804 77.8445 56.3455 79.393 63.6359 75.8515 69.0875 73.6811 72.4284 69.968 74.4448 65.984 74.446 63.7065 74.4473 61.4776 73.7872 59.568 72.546" id="Path_649938" class="MsftOfcThm_Background2_lumMod_75_Fill_v2 MsftOfcThm_Background1_Stroke_v2" stroke="#FFFFFF" fill="#B8B8B8" transform="translate(334 74)"/><path d="M59.568 72.546C54.1164 69.0045 52.568 61.7141 56.1095 56.2625 59.651 50.8109 66.9413 49.2625 72.3929 52.804 77.8445 56.3455 79.393 63.6359 75.8515 69.0875 73.6811 72.4284 69.968 74.4448 65.984 74.446 63.7065 74.4473 61.4776 73.7872 59.568 72.546" id="Path_649939" class="MsftOfcThm_Background2_lumMod_75_Fill_v2 MsftOfcThm_Background1_Stroke_v2" stroke="#FFFFFF" stroke-width="2" stroke-miterlimit="10" fill="#B8B8B8" transform="translate(334 74)"/><path d="M115.077 72.555C118.917 74.7 123.277 79.233 124.477 88.814 125.877 100.069 121.957 100.324 120.348 99.983 120.034 99.9135 119.723 100.112 119.654 100.425 119.648 100.452 119.644 100.478 119.642 100.505 119.333 104.279 117.442 121.474 108.67 121.474L108.663 121.474C99.891 121.474 98 104.279 97.69 100.505 97.6645 100.185 97.384 99.9455 97.0636 99.9711 97.0368 99.9732 97.0102 99.9772 96.984 99.983 95.375 100.324 91.453 100.069 92.856 88.814 94.05 79.236 98.408 74.703 102.247 72.557" id="Path_649940" class="MsftOfcThm_Background2_lumMod_75_Fill_v2 MsftOfcThm_Background1_Stroke_v2" stroke="#FFFFFF" fill="#B8B8B8" transform="translate(334 74)"/><path d="M115.077 72.555C118.917 74.7 123.277 79.233 124.477 88.814 125.877 100.069 121.957 100.324 120.348 99.983 120.034 99.9135 119.723 100.112 119.654 100.425 119.648 100.452 119.644 100.478 119.642 100.505 119.333 104.279 117.442 121.474 108.67 121.474L108.663 121.474C99.891 121.474 98 104.279 97.69 100.505 97.6645 100.185 97.384 99.9455 97.0636 99.9711 97.0368 99.9732 97.0102 99.9772 96.984 99.983 95.375 100.324 91.453 100.069 92.856 88.814 94.05 79.236 98.408 74.703 102.247 72.557" id="Path_649941" class="MsftOfcThm_Background2_lumMod_75_Fill_v2 MsftOfcThm_Background1_Stroke_v2" stroke="#FFFFFF" stroke-width="2" stroke-miterlimit="10" fill="#B8B8B8" transform="translate(334 74)"/><path d="M96.89 62.691C96.89 56.1912 102.159 50.922 108.659 50.922 115.159 50.922 120.428 56.1912 120.428 62.691 120.428 69.1908 115.159 74.46 108.659 74.46 102.159 74.46 96.89 69.1908 96.89 62.691" id="Path_649942" class="MsftOfcThm_Background2_lumMod_75_Fill_v2 MsftOfcThm_Background1_Stroke_v2" stroke="#FFFFFF" fill="#B8B8B8" transform="translate(334 74)"/><path d="M96.89 62.691C96.89 56.1912 102.159 50.922 108.659 50.922 115.159 50.922 120.428 56.1912 120.428 62.691 120.428 69.1908 115.159 74.46 108.659 74.46 102.159 74.46 96.89 69.1908 96.89 62.691Z" id="Path_649943" class="MsftOfcThm_Background2_lumMod_75_Fill_v2 MsftOfcThm_Background1_Stroke_v2" stroke="#FFFFFF" stroke-width="2" stroke-miterlimit="10" fill="#B8B8B8" transform="translate(334 74)"/><path d="M93.74 83C97.579 85.144 101.94 89.678 103.14 99.259 104.54 110.514 100.621 110.769 99.012 110.428 98.6976 110.358 98.3864 110.557 98.3168 110.871 98.3111 110.897 98.3072 110.924 98.305 110.95 97.997 114.724 96.105 131.919 87.333 131.919L87.327 131.919C78.554 131.919 76.664 114.724 76.354 110.95 76.3285 110.63 76.048 110.391 75.7276 110.416 75.7008 110.418 75.6742 110.422 75.648 110.428 74.039 110.769 70.117 110.514 71.52 99.259 72.714 89.681 77.071 85.148 80.911 83.002" id="Path_649944" class="MsftOfcThm_Background2_lumMod_75_Fill_v2 MsftOfcThm_Background1_Stroke_v2" stroke="#FFFFFF" fill="#B8B8B8" transform="translate(334 74)"/><path d="M93.74 83C97.579 85.144 101.94 89.678 103.14 99.259 104.54 110.514 100.621 110.769 99.012 110.428 98.6976 110.358 98.3864 110.557 98.3168 110.871 98.3111 110.897 98.3072 110.924 98.305 110.95 97.997 114.724 96.105 131.919 87.333 131.919L87.327 131.919C78.554 131.919 76.664 114.724 76.354 110.95 76.3285 110.63 76.048 110.391 75.7276 110.416 75.7008 110.418 75.6742 110.422 75.648 110.428 74.039 110.769 70.117 110.514 71.52 99.259 72.714 89.681 77.071 85.148 80.911 83.002" id="Path_649945" class="MsftOfcThm_Background2_lumMod_75_Fill_v2 MsftOfcThm_Background1_Stroke_v2" stroke="#FFFFFF" stroke-width="2" stroke-miterlimit="10" fill="#B8B8B8" transform="translate(334 74)"/><path d="M75.553 73.14C75.5536 66.6407 80.8227 61.3724 87.322 61.373 93.8213 61.3736 99.0896 66.6427 99.089 73.142 99.0884 79.6405 93.8205 84.9084 87.322 84.909 80.8222 84.909 75.553 79.6398 75.553 73.14" id="Path_649946" class="MsftOfcThm_Background2_lumMod_75_Fill_v2 MsftOfcThm_Background1_Stroke_v2" stroke="#FFFFFF" fill="#B8B8B8" transform="translate(334 74)"/><path d="M75.553 73.14C75.5536 66.6407 80.8227 61.3724 87.322 61.373 93.8213 61.3736 99.0896 66.6427 99.089 73.142 99.0884 79.6405 93.8205 84.9084 87.322 84.909 80.8222 84.909 75.553 79.6398 75.553 73.14Z" id="Path_649947" class="MsftOfcThm_Background2_lumMod_75_Fill_v2 MsftOfcThm_Background1_Stroke_v2" stroke="#FFFFFF" stroke-width="2" stroke-miterlimit="10" fill="#B8B8B8" transform="translate(334 74)"/><path d="M87.8 92.143 89.421 97.133C89.4878 97.3394 89.6801 97.4791 89.897 97.479L95.144 97.479C95.4201 97.478 95.6448 97.7011 95.6458 97.9772 95.6464 98.1382 95.5694 98.2896 95.439 98.384L91.194 101.469C91.0186 101.596 90.9451 101.822 91.012 102.028L92.633 107.018C92.7194 107.28 92.5767 107.563 92.3144 107.649 92.1613 107.7 91.9932 107.673 91.863 107.578L87.618 104.494C87.4427 104.367 87.2053 104.367 87.03 104.494L82.785 107.578C82.5621 107.741 82.2492 107.692 82.0863 107.469 81.9911 107.339 81.9646 107.171 82.015 107.018L83.636 102.028C83.7029 101.822 83.6294 101.596 83.454 101.469L79.209 98.384C78.9853 98.2221 78.9353 97.9095 79.0972 97.6858 79.1916 97.5554 79.343 97.4784 79.504 97.479L84.751 97.479C84.9679 97.4791 85.1602 97.3394 85.227 97.133L86.848 92.143C86.9325 91.8801 87.2142 91.7355 87.4771 91.82 87.6304 91.8694 87.7507 91.9896 87.8 92.143" id="Path_649948" class="MsftOfcThm_Background2_lumMod_75_Fill_v2 MsftOfcThm_Background1_Stroke_v2" stroke="#FFFFFF" fill="#B8B8B8" transform="translate(334 74)"/><path d="M15.792 87.384C15.7931 88.7018 14.7257 89.7709 13.408 89.772 12.0902 89.7731 11.0211 88.7057 11.02 87.388 11.0189 86.0718 12.0838 85.0033 13.4 85 14.7183 85 15.787 86.0687 15.787 87.387" id="Path_649949" class="MsftOfcThm_Background2_lumMod_75_Fill_v2 MsftOfcThm_Background1_Stroke_v2" stroke="#FFFFFF" fill="#B8B8B8" transform="translate(334 74)"/><path d="M163.289 87.384C163.291 88.7023 162.223 89.7723 160.905 89.774 159.587 89.7757 158.517 88.7083 158.515 87.39 158.513 86.0717 159.581 85.0017 160.899 85 160.899 85 160.9 85 160.9 85 162.218 85 163.287 86.0687 163.287 87.387" id="Path_649950" class="MsftOfcThm_Background2_lumMod_75_Fill_v2 MsftOfcThm_Background1_Stroke_v2" stroke="#FFFFFF" fill="#B8B8B8" transform="translate(334 74)"/></g></svg>