<svg width="174.308" height="174.308" viewBox="0 0 174.308 174.308" xmlns="http://www.w3.org/2000/svg" xmlns:xlink="http://www.w3.org/1999/xlink" overflow="hidden"><style>
.MsftOfcThm_Background2_lumMod_75_Fill_v2 {
 fill:#B8B8B8; 
}
.MsftOfcThm_Background1_Stroke_v2 {
 stroke:#FFFFFF; 
}
</style>
<g id="pathways-badge-motivational-strategies" transform="translate(-834.862 -74.23)"><path d="M674.17 87.384C674.17 134.966 635.598 173.538 588.016 173.538 540.434 173.538 501.862 134.966 501.862 87.384 501.862 39.8025 540.434 1.23001 588.016 1.23001 635.598 1.23001 674.17 39.8025 674.17 87.384" id="Path_649826" class="MsftOfcThm_Background1_Stroke_v2 MsftOfcThm_Background2_lumMod_75_Fill_v2" stroke="#FFFFFF" fill="#B8B8B8" transform="translate(334 74)"/><circle cx="86.154" cy="86.154" r="86.154" id="Ellipse_91" class="MsftOfcThm_Background1_Stroke_v2 MsftOfcThm_Background2_lumMod_75_Fill_v2" stroke="#FFFFFF" stroke-width="2" stroke-miterlimit="10" fill="#B8B8B8" transform="translate(835.862 75.23)"/><path d="M532.317 132.952C533.224 132.273 534.317 131.452 535.303 130.797L535.281 130.765C534.238 131.128 533.054 131.492 531.921 131.79L528.064 132.87 527.37 131.848 529.809 128.775C530.545 127.867 531.359 126.936 532.131 126.129L532.117 126.107C531.148 126.718 529.967 127.457 528.941 128.076L525.917 129.895 525.076 128.658 532.655 124.216 533.839 125.958 531.567 128.886C530.893 129.722 530.186 130.532 529.504 131.263L529.525 131.295C530.442 130.955 531.503 130.595 532.543 130.295L536.128 129.322 537.296 131.043 530.331 136.388 529.454 135.097Z" id="Path_649827" class="MsftOfcThm_Background1_Stroke_v2 MsftOfcThm_Background2_lumMod_75_Fill_v2" stroke="#FFFFFF" fill="#B8B8B8" transform="translate(334 74)"/><path d="M538.7 140.89C537.512 142.151 535.526 142.21 534.266 141.021 534.179 140.94 534.098 140.854 534.021 140.763 532.832 139.559 532.844 137.62 534.048 136.431 534.124 136.356 534.204 136.285 534.288 136.218 535.472 134.961 537.452 134.903 538.708 136.087 538.803 136.177 538.893 136.272 538.976 136.373 540.155 137.568 540.142 139.493 538.946 140.672 538.868 140.749 538.786 140.822 538.7 140.89M535.432 137.411C534.532 138.236 534.251 139.3 534.91 140.02 535.524 140.692 536.616 140.557 537.557 139.697 538.286 139.03 538.823 137.94 538.085 137.134 537.323 136.299 536.209 136.7 535.432 137.411" id="Path_649828" class="MsftOfcThm_Background1_Stroke_v2 MsftOfcThm_Background2_lumMod_75_Fill_v2" stroke="#FFFFFF" fill="#B8B8B8" transform="translate(334 74)"/><path d="M544.883 139.877 543.672 141.217 544.8 142.237 544 143.124 542.87 142.1 541 144.178C540.487 144.747 540.37 145.186 540.824 145.595 540.979 145.737 541.152 145.859 541.339 145.955L540.539 146.879C540.183 146.714 539.858 146.491 539.576 146.219 539.18 145.894 538.937 145.421 538.903 144.91 538.959 144.279 539.252 143.693 539.721 143.268L541.716 141.059 541.041 140.449 541.841 139.562 542.516 140.172 543.474 139.111Z" id="Path_649829" class="MsftOfcThm_Background1_Stroke_v2 MsftOfcThm_Background2_lumMod_75_Fill_v2" stroke="#FFFFFF" fill="#B8B8B8" transform="translate(334 74)"/><path d="M542.17 148.25 546.1 143.287 547.364 144.287 543.433 149.25ZM548.534 142.958C548.238 143.357 547.675 143.441 547.275 143.146 546.876 142.85 546.792 142.286 547.087 141.887 547.383 141.487 547.947 141.403 548.346 141.699 548.355 141.705 548.363 141.712 548.371 141.718 548.755 141.986 548.848 142.514 548.581 142.897 548.566 142.918 548.55 142.938 548.534 142.958" id="Path_649830" class="MsftOfcThm_Background1_Stroke_v2 MsftOfcThm_Background2_lumMod_75_Fill_v2" stroke="#FFFFFF" fill="#B8B8B8" transform="translate(334 74)"/><path d="M549.954 146.205 549.026 149.448C548.867 150.014 548.694 150.508 548.503 151.006L548.535 151.027C548.922 150.66 549.314 150.327 549.773 149.946L552.389 147.829 553.795 148.768 548.267 152.694 546.959 151.82 548.516 145.245Z" id="Path_649831" class="MsftOfcThm_Background1_Stroke_v2 MsftOfcThm_Background2_lumMod_75_Fill_v2" stroke="#FFFFFF" fill="#B8B8B8" transform="translate(334 74)"/><path d="M555.159 156.675 555.392 156.005 555.358 155.987C554.692 156.262 553.937 156.217 553.309 155.865 552.364 155.437 551.945 154.323 552.373 153.378 552.389 153.342 552.406 153.307 552.425 153.272 553.168 151.857 554.797 151.802 556.861 152.902L556.91 152.809C557.103 152.441 557.274 151.753 556.285 151.233 555.754 150.956 555.158 150.825 554.559 150.856L554.767 149.79C555.565 149.777 556.353 149.973 557.052 150.359 558.27 150.833 558.874 152.205 558.4 153.423 558.33 153.603 558.238 153.774 558.126 153.932L557.062 155.957C556.819 156.404 556.609 156.868 556.435 157.345ZM556.413 153.84C555.424 153.291 554.354 153.008 553.907 153.86 553.656 154.25 553.769 154.769 554.159 155.02 554.2 155.046 554.244 155.069 554.289 155.088 554.781 155.356 555.389 155.279 555.799 154.897 555.883 154.813 555.954 154.717 556.008 154.611Z" id="Path_649832" class="MsftOfcThm_Background1_Stroke_v2 MsftOfcThm_Background2_lumMod_75_Fill_v2" stroke="#FFFFFF" fill="#B8B8B8" transform="translate(334 74)"/><path d="M563.575 151.569 562.882 153.238 564.282 153.822 563.823 154.922 562.423 154.339 561.349 156.92C561.055 157.629 561.093 158.081 561.657 158.32 561.851 158.402 562.055 158.458 562.263 158.487L561.818 159.626C561.428 159.59 561.046 159.488 560.689 159.326 560.207 159.153 559.818 158.787 559.616 158.317 559.459 157.703 559.538 157.052 559.839 156.494L560.981 153.744 560.14 153.395 560.599 152.29 561.44 152.639 561.989 151.319Z" id="Path_649833" class="MsftOfcThm_Background1_Stroke_v2 MsftOfcThm_Background2_lumMod_75_Fill_v2" stroke="#FFFFFF" fill="#B8B8B8" transform="translate(334 74)"/><path d="M563.846 160.378 565.875 154.378 567.402 154.895 565.373 160.895ZM568.055 153.252C567.911 153.728 567.409 153.997 566.933 153.853 566.457 153.71 566.188 153.207 566.332 152.732 566.476 152.256 566.978 151.987 567.454 152.13 567.464 152.133 567.474 152.137 567.484 152.14 567.936 152.264 568.201 152.73 568.077 153.182 568.071 153.206 568.063 153.229 568.055 153.252" id="Path_649834" class="MsftOfcThm_Background1_Stroke_v2 MsftOfcThm_Background2_lumMod_75_Fill_v2" stroke="#FFFFFF" fill="#B8B8B8" transform="translate(334 74)"/><path d="M574.58 160.034C574.295 161.743 572.679 162.897 570.97 162.612 570.853 162.593 570.737 162.567 570.623 162.534 568.966 162.197 567.896 160.58 568.233 158.923 568.254 158.817 568.281 158.713 568.314 158.61 568.597 156.907 570.208 155.756 571.911 156.039 572.04 156.061 572.168 156.09 572.293 156.128 573.937 156.463 574.998 158.068 574.662 159.712 574.641 159.819 574.613 159.924 574.58 160.028M569.928 158.96C569.638 160.147 570 161.187 570.948 161.418 571.832 161.633 572.664 160.918 572.966 159.674 573.2 158.714 573.039 157.51 571.978 157.252 570.878 156.983 570.178 157.937 569.928 158.96" id="Path_649835" class="MsftOfcThm_Background1_Stroke_v2 MsftOfcThm_Background2_lumMod_75_Fill_v2" stroke="#FFFFFF" fill="#B8B8B8" transform="translate(334 74)"/><path d="M576.8 159.177C576.888 158.454 576.948 157.846 576.976 157.299L578.37 157.469 578.333 158.42 578.371 158.425C578.88 157.782 579.694 157.462 580.505 157.584 581.605 157.718 582.652 158.566 582.405 160.554L581.951 164.285 580.363 164.092 580.796 160.542C580.905 159.642 580.653 158.913 579.788 158.808 579.217 158.752 578.674 159.064 578.436 159.586 578.366 159.747 578.323 159.919 578.309 160.094L577.859 163.787 576.259 163.587Z" id="Path_649836" class="MsftOfcThm_Background1_Stroke_v2 MsftOfcThm_Background2_lumMod_75_Fill_v2" stroke="#FFFFFF" fill="#B8B8B8" transform="translate(334 74)"/><path d="M588.356 164.49 588.256 163.79 588.217 163.79C587.75 164.339 587.056 164.644 586.336 164.615 585.299 164.664 584.418 163.863 584.369 162.826 584.367 162.787 584.366 162.748 584.367 162.709 584.384 161.109 585.81 160.319 588.15 160.357L588.15 160.257C588.155 159.841 587.992 159.15 586.874 159.138 586.275 159.132 585.685 159.288 585.166 159.588L584.866 158.545C585.571 158.169 586.362 157.984 587.16 158.01 588.46 157.876 589.623 158.822 589.757 160.122 589.777 160.316 589.773 160.511 589.745 160.703L589.721 162.991C589.708 163.499 589.733 164.008 589.796 164.513ZM588.181 161.39C587.05 161.352 585.968 161.59 585.958 162.55 585.913 163.012 586.251 163.423 586.714 163.468 586.762 163.473 586.81 163.474 586.858 163.47 587.418 163.485 587.925 163.139 588.115 162.612 588.151 162.499 588.17 162.38 588.17 162.261Z" id="Path_649837" class="MsftOfcThm_Background1_Stroke_v2 MsftOfcThm_Background2_lumMod_75_Fill_v2" stroke="#FFFFFF" fill="#B8B8B8" transform="translate(334 74)"/><rect x="0" y="0" width="1.612" height="9.232" id="Rectangle_18859" class="MsftOfcThm_Background1_Stroke_v2 MsftOfcThm_Background2_lumMod_75_Fill_v2" stroke="#FFFFFF" fill="#B8B8B8" transform="matrix(0.997408 -0.0719501 0.0719501 0.997408 925.717 229.143)"/><path d="M599.789 161.8C600.496 162.025 601.249 162.068 601.977 161.925 602.984 161.72 603.449 161.134 603.307 160.434 603.174 159.784 602.663 159.49 601.486 159.318 599.969 159.096 598.911 158.529 598.659 157.293 598.374 155.893 599.328 154.583 601.188 154.204 601.897 154.039 602.634 154.043 603.341 154.217L603.216 155.556C602.633 155.391 602.018 155.37 601.425 155.496 600.432 155.696 600.107 156.321 600.208 156.819 600.343 157.481 600.902 157.686 602.14 157.898 603.74 158.155 604.624 158.759 604.875 159.998 605.155 161.374 604.354 162.784 602.138 163.236 601.335 163.406 600.503 163.385 599.71 163.173Z" id="Path_649838" class="MsftOfcThm_Background1_Stroke_v2 MsftOfcThm_Background2_lumMod_75_Fill_v2" stroke="#FFFFFF" fill="#B8B8B8" transform="translate(334 74)"/><path d="M607.056 153.486 607.576 155.217 609.033 154.779 609.376 155.925 607.919 156.362 608.719 159.039C608.94 159.774 609.255 160.1 609.84 159.924 610.042 159.866 610.236 159.78 610.415 159.67L610.791 160.833C610.467 161.052 610.108 161.215 609.729 161.315 609.246 161.487 608.714 161.45 608.259 161.215 607.749 160.839 607.398 160.285 607.278 159.663L606.421 156.812 605.55 157.073 605.205 155.928 606.077 155.666 605.666 154.297Z" id="Path_649839" class="MsftOfcThm_Background1_Stroke_v2 MsftOfcThm_Background2_lumMod_75_Fill_v2" stroke="#FFFFFF" fill="#B8B8B8" transform="translate(334 74)"/><path d="M611.356 156.124C611.047 155.324 610.816 154.758 610.575 154.238L611.875 153.738 612.357 154.847 612.406 154.829C612.341 154.025 612.794 153.268 613.534 152.946 613.652 152.899 613.774 152.866 613.899 152.846L614.441 154.253C614.286 154.277 614.133 154.317 613.986 154.372 613.313 154.612 612.926 155.318 613.086 156.015 613.114 156.178 613.157 156.338 613.214 156.494L614.391 159.551 612.899 160.125Z" id="Path_649840" class="MsftOfcThm_Background1_Stroke_v2 MsftOfcThm_Background2_lumMod_75_Fill_v2" stroke="#FFFFFF" fill="#B8B8B8" transform="translate(334 74)"/><path d="M621.227 156.5 620.827 155.916 620.792 155.933C620.623 156.633 620.142 157.217 619.487 157.517 618.584 158.029 617.438 157.712 616.926 156.809 616.906 156.775 616.888 156.74 616.871 156.705 616.165 155.271 617.08 153.922 619.185 152.905L619.139 152.812C618.955 152.439 618.499 151.896 617.496 152.389 616.96 152.655 616.504 153.06 616.176 153.561L615.438 152.766C615.895 152.113 616.516 151.592 617.238 151.255 618.339 150.55 619.803 150.87 620.508 151.971 620.612 152.133 620.696 152.308 620.758 152.491L621.768 154.543C621.985 155.003 622.237 155.445 622.521 155.867ZM619.674 153.817C618.649 154.293 617.79 154.99 618.215 155.853 618.382 156.285 618.868 156.5 619.3 156.333 619.346 156.316 619.391 156.294 619.433 156.268 619.939 156.028 620.235 155.492 620.167 154.936 620.149 154.818 620.113 154.704 620.059 154.598Z" id="Path_649841" class="MsftOfcThm_Background1_Stroke_v2 MsftOfcThm_Background2_lumMod_75_Fill_v2" stroke="#FFFFFF" fill="#B8B8B8" transform="translate(334 74)"/><path d="M622.062 146.687 623.003 148.229 624.303 147.436 624.926 148.457 623.626 149.25 625.083 151.634C625.483 152.289 625.871 152.524 626.392 152.206 626.573 152.098 626.738 151.966 626.883 151.814L627.542 152.844C627.283 153.138 626.977 153.387 626.636 153.58 626.213 153.867 625.689 153.967 625.19 153.854 624.601 153.621 624.121 153.174 623.847 152.603L622.295 150.062 621.519 150.537 620.896 149.516 621.672 149.042 620.927 147.822Z" id="Path_649842" class="MsftOfcThm_Background1_Stroke_v2 MsftOfcThm_Background2_lumMod_75_Fill_v2" stroke="#FFFFFF" fill="#B8B8B8" transform="translate(334 74)"/><path d="M628.687 148.8C629.283 149.54 630.365 149.657 631.105 149.062 631.148 149.027 631.19 148.991 631.229 148.952 631.718 148.608 632.139 148.175 632.468 147.676L633.315 148.424C632.908 149.06 632.385 149.613 631.773 150.055 630.537 151.159 628.641 151.052 627.537 149.816 627.43 149.696 627.333 149.568 627.246 149.432 626.097 148.137 626.216 146.156 627.51 145.008 627.571 144.954 627.634 144.902 627.699 144.853 629.348 143.628 630.899 144.582 631.728 145.699 631.865 145.879 631.985 146.071 632.089 146.272ZM630.254 146.243C629.893 145.584 629.066 145.342 628.406 145.703 628.362 145.728 628.319 145.755 628.277 145.784 627.649 146.313 627.537 147.238 628.021 147.902Z" id="Path_649843" class="MsftOfcThm_Background1_Stroke_v2 MsftOfcThm_Background2_lumMod_75_Fill_v2" stroke="#FFFFFF" fill="#B8B8B8" transform="translate(334 74)"/><path d="M635.535 138.278C635.808 138.61 636.145 139.007 636.74 139.643L639.191 142.262C640.566 143.234 640.893 145.137 639.921 146.512 639.725 146.789 639.485 147.031 639.209 147.229 638.664 147.771 637.989 148.163 637.249 148.368L636.68 147.246C637.307 147.089 637.883 146.776 638.356 146.336 639.09 145.766 639.223 144.71 638.653 143.976 638.573 143.873 638.481 143.779 638.379 143.697L638.006 143.297 637.988 143.315C638.102 144.042 637.835 144.776 637.28 145.259 636.11 146.276 634.337 146.153 633.32 144.983 633.279 144.936 633.24 144.888 633.202 144.838 631.938 143.74 631.804 141.826 632.902 140.562 632.939 140.52 632.977 140.478 633.016 140.438 633.534 139.896 634.312 139.691 635.03 139.907L635.048 139.889 634.519 139.228ZM636.061 141.257C635.964 141.15 635.853 141.057 635.73 140.98 635.215 140.635 634.529 140.692 634.079 141.118 633.424 141.731 633.473 142.753 634.352 143.693 634.874 144.465 635.923 144.669 636.696 144.147 636.736 144.119 636.776 144.09 636.814 144.059 637.248 143.65 637.367 143.006 637.106 142.469 637.007 142.304 636.892 142.149 636.762 142.007Z" id="Path_649844" class="MsftOfcThm_Background1_Stroke_v2 MsftOfcThm_Background2_lumMod_75_Fill_v2" stroke="#FFFFFF" fill="#B8B8B8" transform="translate(334 74)"/><path d="M636.74 134.292C637.092 134.6 637.128 135.135 636.82 135.487 636.804 135.506 636.786 135.525 636.768 135.542 636.477 135.902 635.948 135.958 635.588 135.667 635.571 135.654 635.555 135.64 635.54 135.625 635.2 135.262 635.218 134.693 635.581 134.353 635.901 134.053 636.39 134.027 636.74 134.292M641.618 140.976 636.918 136.741 637.996 135.541 642.696 139.777Z" id="Path_649845" class="MsftOfcThm_Background1_Stroke_v2 MsftOfcThm_Background2_lumMod_75_Fill_v2" stroke="#FFFFFF" fill="#B8B8B8" transform="translate(334 74)"/><path d="M643.008 135.188C643.785 135.735 644.859 135.548 645.406 134.771 645.437 134.726 645.467 134.68 645.494 134.632 645.869 134.167 646.153 133.635 646.331 133.064L647.351 133.549C647.137 134.273 646.787 134.949 646.32 135.542 645.437 136.944 643.585 137.365 642.183 136.482 642.047 136.396 641.918 136.3 641.798 136.194 640.336 135.266 639.904 133.328 640.832 131.867 640.875 131.799 640.921 131.733 640.969 131.669 642.216 130.036 643.969 130.525 645.075 131.369 645.256 131.505 645.425 131.656 645.58 131.82ZM643.808 132.299C643.281 131.764 642.419 131.758 641.885 132.286 641.848 132.321 641.814 132.359 641.782 132.399 641.324 133.081 641.472 134.001 642.12 134.505Z" id="Path_649846" class="MsftOfcThm_Background1_Stroke_v2 MsftOfcThm_Background2_lumMod_75_Fill_v2" stroke="#FFFFFF" fill="#B8B8B8" transform="translate(334 74)"/><path d="M647.769 130.752C648.268 130.476 648.694 130.085 649.01 129.61 649.379 129.01 649.3 128.599 648.947 128.38 648.594 128.161 648.257 128.259 647.616 128.78 646.601 129.604 645.753 129.691 645.13 129.29 644.169 128.623 643.931 127.304 644.598 126.344 644.63 126.298 644.663 126.254 644.698 126.211 644.997 125.714 645.408 125.294 645.898 124.984L646.698 125.844C646.287 126.071 645.938 126.396 645.684 126.791 645.384 127.277 645.451 127.686 645.784 127.891 646.117 128.096 646.449 127.951 647.116 127.416 647.759 126.701 648.812 126.528 649.65 127 650.622 127.6 650.857 128.8 649.975 130.226 649.634 130.799 649.158 131.28 648.588 131.626Z" id="Path_649847" class="MsftOfcThm_Background1_Stroke_v2 MsftOfcThm_Background2_lumMod_75_Fill_v2" stroke="#FFFFFF" fill="#B8B8B8" transform="translate(334 74)"/><path d="M512.911 70.62 512.311 73.043 511.011 72.719 512.611 66.296 513.911 66.62 513.301 69.068 520.507 70.863 520.12 72.415Z" id="Path_649848" class="MsftOfcThm_Background1_Stroke_v2 MsftOfcThm_Background2_lumMod_75_Fill_v2" stroke="#FFFFFF" fill="#B8B8B8" transform="translate(334 74)"/><path d="M519.905 58.652C522.657 59.679 523.605 61.934 522.759 64.199 521.895 66.512 519.583 67.314 517.173 66.414 514.652 65.473 513.466 63.226 514.33 60.914 515.225 58.514 517.567 57.781 519.905 58.654M517.739 64.824C519.408 65.447 521.049 65.102 521.585 63.666 522.121 62.23 521.092 60.901 519.375 60.26 517.828 59.682 516.081 59.904 515.521 61.401 514.961 62.898 516.047 64.192 517.739 64.824" id="Path_649849" class="MsftOfcThm_Background1_Stroke_v2 MsftOfcThm_Background2_lumMod_75_Fill_v2" stroke="#FFFFFF" fill="#B8B8B8" transform="translate(334 74)"/><path d="M523.358 56.219 525.204 58.043 524.435 59.504 517.989 52.936 518.939 51.13 528.021 52.693 527.221 54.212 524.653 53.757ZM523.458 53.435 521.228 53.035C520.677 52.935 520.081 52.785 519.571 52.663L519.56 52.686C519.947 53.037 520.428 53.437 520.815 53.818L522.41 55.418Z" id="Path_649850" class="MsftOfcThm_Background1_Stroke_v2 MsftOfcThm_Background2_lumMod_75_Fill_v2" stroke="#FFFFFF" fill="#B8B8B8" transform="translate(334 74)"/><path d="M527.381 50.52C528.043 50.186 528.611 49.6909 529.032 49.08 529.609 48.23 529.532 47.487 528.94 47.086 528.391 46.714 527.82 46.861 526.86 47.56 525.619 48.46 524.467 48.796 523.424 48.088 522.24 47.288 522.008 45.688 523.072 44.113 523.464 43.5003 523.994 42.9885 524.62 42.619L525.466 43.663C524.934 43.9524 524.48 44.3674 524.145 44.872 523.575 45.71 523.779 46.382 524.199 46.667 524.758 47.046 525.299 46.802 526.334 46.089 527.66 45.151 528.711 44.968 529.755 45.676 530.916 46.463 531.329 48.031 530.061 49.903 529.606 50.5858 528.996 51.1518 528.281 51.555Z" id="Path_649851" class="MsftOfcThm_Background1_Stroke_v2 MsftOfcThm_Background2_lumMod_75_Fill_v2" stroke="#FFFFFF" fill="#B8B8B8" transform="translate(334 74)"/><path d="M528.255 39.673 526.667 41.6 525.635 40.748 529.844 35.648 530.877 36.5 529.277 38.445 535 43.162 533.98 44.4Z" id="Path_649852" class="MsftOfcThm_Background1_Stroke_v2 MsftOfcThm_Background2_lumMod_75_Fill_v2" stroke="#FFFFFF" fill="#B8B8B8" transform="translate(334 74)"/><path d="M540.408 32.64C539.601 31.846 538.626 30.889 537.832 30.012L537.803 30.038C538.317 31.015 538.854 32.13 539.319 33.205L540.965 36.856 540.058 37.695 536.658 35.744C535.65 35.154 534.608 34.488 533.694 33.844L533.676 33.862C534.425 34.727 535.332 35.783 536.097 36.705L538.347 39.422 537.247 40.438 531.721 33.613 533.266 32.181 536.5 33.99C537.427 34.532 538.334 35.109 539.159 35.674L539.187 35.647C538.714 34.792 538.2 33.798 537.75 32.814L536.25 29.414 537.779 28 544.106 34.084 542.962 35.144Z" id="Path_649853" class="MsftOfcThm_Background1_Stroke_v2 MsftOfcThm_Background2_lumMod_75_Fill_v2" stroke="#FFFFFF" fill="#B8B8B8" transform="translate(334 74)"/><path d="M545.589 30 546.389 32.469 545.034 33.412 542.334 24.618 544 23.454 551.345 29.016 549.94 30 547.871 28.416ZM546.956 27.574 545.156 26.198C544.713 25.857 544.256 25.448 543.856 25.106L543.835 25.121C544.017 25.611 544.261 26.187 544.435 26.702L545.113 28.86Z" id="Path_649854" class="MsftOfcThm_Background1_Stroke_v2 MsftOfcThm_Background2_lumMod_75_Fill_v2" stroke="#FFFFFF" fill="#B8B8B8" transform="translate(334 74)"/><path d="M551.8 26.8C552.542 26.8095 553.274 26.6321 553.929 26.284 554.829 25.796 555.106 25.101 554.766 24.472 554.45 23.89 553.876 23.757 552.702 23.934 551.187 24.163 550.01 23.927 549.41 22.819 548.731 21.562 549.263 20.033 550.932 19.131 551.561 18.7675 552.267 18.5575 552.993 18.518L553.263 19.835C552.657 19.8453 552.063 20.0043 551.533 20.298 550.642 20.779 550.513 21.469 550.754 21.915 551.075 22.509 551.669 22.543 552.914 22.387 554.524 22.167 555.539 22.487 556.139 23.597 556.806 24.832 556.449 26.413 554.461 27.488 553.743 27.8839 552.941 28.1049 552.121 28.133Z" id="Path_649855" class="MsftOfcThm_Background1_Stroke_v2 MsftOfcThm_Background2_lumMod_75_Fill_v2" stroke="#FFFFFF" fill="#B8B8B8" transform="translate(334 74)"/><path d="M557.6 17.552 555.294 18.51 554.781 17.273 560.893 14.734 561.407 15.97 559.077 16.938 561.93 23.8 560.453 24.414Z" id="Path_649856" class="MsftOfcThm_Background1_Stroke_v2 MsftOfcThm_Background2_lumMod_75_Fill_v2" stroke="#FFFFFF" fill="#B8B8B8" transform="translate(334 74)"/><path d="M569.1 17.288 565.937 18.242 566.68 20.707 570.216 19.641 570.595 20.898 565.528 22.426 562.998 14.034 567.879 12.563 568.258 13.82 564.909 14.83 565.559 17 568.721 16.047Z" id="Path_649857" class="MsftOfcThm_Background1_Stroke_v2 MsftOfcThm_Background2_lumMod_75_Fill_v2" stroke="#FFFFFF" fill="#B8B8B8" transform="translate(334 74)"/><path d="M570.634 12.008C571.396 11.7356 572.18 11.525 572.976 11.378 573.898 11.1082 574.886 11.1738 575.764 11.563 576.34 11.9028 576.733 12.4844 576.832 13.146 577.011 14.1253 576.55 15.1105 575.684 15.601L575.69 15.639C576.402 15.8355 576.97 16.3718 577.207 17.071 577.529 17.8551 577.908 18.6148 578.34 19.344L576.718 19.652C576.342 19.0405 576.021 18.3974 575.757 17.73 575.301 16.653 574.824 16.372 573.926 16.517L573.134 16.667 573.806 20.205 572.248 20.505ZM572.915 15.518 573.848 15.341C574.908 15.141 575.465 14.451 575.303 13.596 575.123 12.65 574.376 12.342 573.354 12.537 573.027 12.5892 572.706 12.6764 572.398 12.797Z" id="Path_649858" class="MsftOfcThm_Background1_Stroke_v2 MsftOfcThm_Background2_lumMod_75_Fill_v2" stroke="#FFFFFF" fill="#B8B8B8" transform="translate(334 74)"/><path d="M579.631 17.464C580.307 17.7703 581.048 17.902 581.788 17.847 582.812 17.763 583.342 17.236 583.283 16.524 583.229 15.863 582.756 15.511 581.61 15.201 580.128 14.801 579.146 14.113 579.042 12.856 578.924 11.431 580.027 10.245 581.918 10.089 582.641 10.009 583.372 10.1005 584.053 10.356L583.77 11.671C583.211 11.4371 582.603 11.3441 582 11.4 580.989 11.483 580.594 12.063 580.636 12.568 580.691 13.242 581.222 13.511 582.425 13.868 583.987 14.313 584.789 15.016 584.893 16.268 585.008 17.668 584.046 18.968 581.793 19.158 580.977 19.2324 580.154 19.1125 579.393 18.808Z" id="Path_649859" class="MsftOfcThm_Background1_Stroke_v2 MsftOfcThm_Background2_lumMod_75_Fill_v2" stroke="#FFFFFF" fill="#B8B8B8" transform="translate(334 74)"/><rect x="0" y="0" width="8.759" height="1.599" id="Rectangle_18860" class="MsftOfcThm_Background1_Stroke_v2 MsftOfcThm_Background2_lumMod_75_Fill_v2" stroke="#FFFFFF" fill="#B8B8B8" transform="matrix(0.0387017 -0.999251 0.999251 0.0387017 924.012 92.777)"/><path d="M593.761 18.9 594.903 10.21 596.703 10.447 598.457 14.468C598.894 15.478 599.262 16.5168 599.557 17.577L599.583 17.577C599.632 16.403 599.74 15.277 599.915 13.948L600.315 10.918 601.784 11.111 600.643 19.802 599.005 19.586 597.237 15.472C596.789 14.4248 596.4 13.3535 596.071 12.263L596.031 12.271C595.948 13.401 595.811 14.55 595.622 15.981L595.214 19.088Z" id="Path_649860" class="MsftOfcThm_Background1_Stroke_v2 MsftOfcThm_Background2_lumMod_75_Fill_v2" stroke="#FFFFFF" fill="#B8B8B8" transform="translate(334 74)"/><path d="M606.139 13.472 603.719 12.863 604.046 11.563 610.461 13.179 610.134 14.479 607.689 13.864 605.877 21.064 604.327 20.674Z" id="Path_649861" class="MsftOfcThm_Background1_Stroke_v2 MsftOfcThm_Background2_lumMod_75_Fill_v2" stroke="#FFFFFF" fill="#B8B8B8" transform="translate(334 74)"/><path d="M615.518 20.128 612.414 19 611.534 21.42 615 22.681 614.551 23.916 609.577 22.108 612.57 13.871 617.361 15.611 616.912 16.846 613.624 15.646 612.852 17.773 615.952 18.901Z" id="Path_649862" class="MsftOfcThm_Background1_Stroke_v2 MsftOfcThm_Background2_lumMod_75_Fill_v2" stroke="#FFFFFF" fill="#B8B8B8" transform="translate(334 74)"/><path d="M619.918 16.825C620.691 17.0651 621.444 17.366 622.169 17.725 623.069 18.061 623.82 18.7052 624.289 19.543 624.547 20.1601 624.513 20.8609 624.196 21.45 623.753 22.3407 622.794 22.8528 621.807 22.726L621.79 22.761C622.241 23.3448 622.374 24.1138 622.145 24.815 621.934 25.6364 621.782 26.4719 621.691 27.315L620.208 26.59C620.275 25.8759 620.403 25.169 620.591 24.477 620.871 23.342 620.658 22.832 619.852 22.409L619.128 22.056 617.547 25.289 616.123 24.589ZM619.642 21 620.494 21.417C621.178 21.8991 622.123 21.7355 622.605 21.0516 622.641 21.0002 622.674 20.9465 622.704 20.891 623.125 20.027 622.712 19.334 621.779 18.877 621.486 18.723 621.177 18.6013 620.857 18.514Z" id="Path_649863" class="MsftOfcThm_Background1_Stroke_v2 MsftOfcThm_Background2_lumMod_75_Fill_v2" stroke="#FFFFFF" fill="#B8B8B8" transform="translate(334 74)"/><path d="M622.971 28.031 627.733 20.678 629.26 21.667 629.117 26.049C629.078 27.1482 628.963 28.2434 628.775 29.327L628.797 29.342C629.345 28.303 629.927 27.333 630.655 26.209L632.315 23.645 633.559 24.45 628.8 31.8 627.414 30.9 627.585 26.428C627.631 25.2895 627.74 24.1544 627.911 23.028L627.871 23.018C627.312 24.002 626.694 24.98 625.91 26.191L624.21 28.82Z" id="Path_649864" class="MsftOfcThm_Background1_Stroke_v2 MsftOfcThm_Background2_lumMod_75_Fill_v2" stroke="#FFFFFF" fill="#B8B8B8" transform="translate(334 74)"/><path d="M633.373 32.287 631.212 33.722 629.939 32.672 637.679 27.701 639.253 29.001 635.874 37.569 634.551 36.477 635.518 34.058ZM636.073 32.951 636.915 30.851C637.124 30.333 637.393 29.781 637.615 29.308L637.594 29.291C637.172 29.599 636.683 29.991 636.232 30.291L634.338 31.525Z" id="Path_649865" class="MsftOfcThm_Background1_Stroke_v2 MsftOfcThm_Background2_lumMod_75_Fill_v2" stroke="#FFFFFF" fill="#B8B8B8" transform="translate(334 74)"/><path d="M642.658 33.991 640.912 32.207 641.869 31.27 646.5 36 645.543 36.937 643.778 35.137 638.478 40.33 637.358 39.187Z" id="Path_649866" class="MsftOfcThm_Background1_Stroke_v2 MsftOfcThm_Background2_lumMod_75_Fill_v2" stroke="#FFFFFF" fill="#B8B8B8" transform="translate(334 74)"/><rect x="0" y="0" width="8.769" height="1.6" id="Rectangle_18861" class="MsftOfcThm_Background1_Stroke_v2 MsftOfcThm_Background2_lumMod_75_Fill_v2" stroke="#FFFFFF" fill="#B8B8B8" transform="matrix(0.767 -0.641 0.641 0.767 975.082 117.209)"/><path d="M651.588 49.926C649.167 51.589 646.776 51.07 645.409 49.077 644.009 47.042 644.682 44.69 646.802 43.234 649.02 41.712 651.541 42.034 652.938 44.066 654.385 46.176 653.643 48.514 651.588 49.926M647.781 44.612C646.313 45.619 645.653 47.16 646.521 48.424 647.389 49.688 649.067 49.608 650.578 48.57 651.938 47.636 652.76 46.079 651.854 44.761 650.948 43.443 649.268 43.59 647.781 44.612" id="Path_649867" class="MsftOfcThm_Background1_Stroke_v2 MsftOfcThm_Background2_lumMod_75_Fill_v2" stroke="#FFFFFF" fill="#B8B8B8" transform="translate(334 74)"/><path d="M648.691 53.871 656.507 49.912 657.33 51.535 655 55.251C654.412 56.181 653.762 57.07 653.054 57.912L653.066 57.935C654.066 57.314 655.054 56.768 656.249 56.163L658.973 54.782 659.643 56.104 651.827 60.064 651.081 58.591 653.481 54.811C654.093 53.8508 654.758 52.9254 655.472 52.039L655.443 52.01C654.463 52.579 653.437 53.11 652.15 53.766L649.35 55.182Z" id="Path_649868" class="MsftOfcThm_Background1_Stroke_v2 MsftOfcThm_Background2_lumMod_75_Fill_v2" stroke="#FFFFFF" fill="#B8B8B8" transform="translate(334 74)"/><path d="M655.567 62.821 652.976 62.944 652.422 61.39 661.612 61.09 662.298 63.012 655.005 68.633 654.429 67.018 656.5 65.438ZM657.547 64.777 659.347 63.404C659.792 63.066 660.307 62.731 660.74 62.438L660.732 62.413C660.211 62.461 659.592 62.544 659.05 62.572L656.792 62.66Z" id="Path_649869" class="MsftOfcThm_Background1_Stroke_v2 MsftOfcThm_Background2_lumMod_75_Fill_v2" stroke="#FFFFFF" fill="#B8B8B8" transform="translate(334 74)"/><path d="M663.878 68.081 664.248 69.637 657.024 71.353 657.857 74.853 656.557 75.163 655.357 70.103Z" id="Path_649870" class="MsftOfcThm_Background1_Stroke_v2 MsftOfcThm_Background2_lumMod_75_Fill_v2" stroke="#FFFFFF" fill="#B8B8B8" transform="translate(334 74)"/><path d="M642.9 87.617C642.9 118.478 617.882 143.496 587.021 143.496 556.16 143.496 531.142 118.478 531.142 87.617 531.142 56.7559 556.16 31.738 587.021 31.738 617.882 31.738 642.9 56.7559 642.9 87.617" id="Path_649871" class="MsftOfcThm_Background1_Stroke_v2 MsftOfcThm_Background2_lumMod_75_Fill_v2" stroke="#FFFFFF" fill="#B8B8B8" transform="translate(334 74)"/><path d="" id="Path_649872" class="MsftOfcThm_Background1_Stroke_v2 MsftOfcThm_Background2_lumMod_75_Fill_v2" stroke="#FFFFFF" fill="#B8B8B8" transform="translate(334 74)"/><path d="M626.55 77.1C628.074 70.0307 623.578 63.0647 616.509 61.5409 615.021 61.2202 613.489 61.1614 611.981 61.367L613.755 74.333Z" id="Path_649873" class="MsftOfcThm_Background1_Stroke_v2 MsftOfcThm_Background2_lumMod_75_Fill_v2" stroke="#FFFFFF" fill="#B8B8B8" transform="translate(334 74)"/><path d="M610.455 70.917 608.681 57.951C606.404 58.2596 604.249 59.1656 602.436 60.577Z" id="Path_649874" class="MsftOfcThm_Background1_Stroke_v2 MsftOfcThm_Background2_lumMod_75_Fill_v2" stroke="#FFFFFF" fill="#B8B8B8" transform="translate(334 74)"/><path d="M611.618 77.1 611.618 77.1 603.6 66.763C597.891 71.1953 596.857 79.416 601.289 85.1246 605.721 90.8331 613.942 91.8677 619.651 87.4354 622.077 85.5517 623.763 82.8747 624.414 79.873Z" id="Path_649875" class="MsftOfcThm_Background1_Stroke_v2 MsftOfcThm_Background2_lumMod_75_Fill_v2" stroke="#FFFFFF" fill="#B8B8B8" transform="translate(334 74)"/><path d="M590.426 51.956 590.426 60.637 599.373 56.297Z" id="Path_649876" class="MsftOfcThm_Background1_Stroke_v2 MsftOfcThm_Background2_lumMod_75_Fill_v2" stroke="#FFFFFF" fill="#B8B8B8" transform="translate(334 74)"/><path d="M590.426 51.956 590.426 60.637 599.373 56.297Z" id="Path_649877" class="MsftOfcThm_Background1_Stroke_v2 MsftOfcThm_Background2_lumMod_75_Fill_v2" stroke="#FFFFFF" fill="#B8B8B8" transform="translate(334 74)"/><line x1="0" y1="0" x2="0" y2="15.84" id="Line_620" class="MsftOfcThm_Background1_Stroke_v2" stroke="#FFFFFF" stroke-width="2" fill="none" transform="translate(923.799 125.956)"/><path d="M628.847 112.924 589.673 66.754 552.655 112.924Z" id="Path_649878" class="MsftOfcThm_Background1_Stroke_v2 MsftOfcThm_Background2_lumMod_75_Fill_v2" stroke="#FFFFFF" fill="#B8B8B8" transform="translate(334 74)"/><path d="M628.847 112.924 589.673 66.754 552.655 112.924Z" id="Path_649879" class="MsftOfcThm_Background1_Stroke_v2 MsftOfcThm_Background2_lumMod_75_Fill_v2" stroke="#FFFFFF" stroke-width="2" fill="#B8B8B8" transform="translate(334 74)"/><path d="M545.2 112.924 598.421 112.924 585.166 98.362 580.909 101.062 567.647 86.9Z" id="Path_649880" class="MsftOfcThm_Background1_Stroke_v2 MsftOfcThm_Background2_lumMod_75_Fill_v2" stroke="#FFFFFF" fill="#B8B8B8" transform="translate(334 74)"/><path d="M545.2 112.924 598.421 112.924 585.166 98.362 580.909 101.062 567.647 86.9Z" id="Path_649881" class="MsftOfcThm_Background1_Stroke_v2 MsftOfcThm_Background2_lumMod_75_Fill_v2" stroke="#FFFFFF" stroke-width="2" fill="#B8B8B8" transform="translate(334 74)"/><path d="M587.022 31.738C556.161 31.7374 531.143 56.7549 531.142 87.616 531.141 118.477 556.159 143.495 587.02 143.496 617.881 143.497 642.899 118.479 642.9 87.618 642.9 87.6177 642.9 87.6173 642.9 87.617 642.9 56.7559 617.882 31.738 587.021 31.738M628.847 117.606 545.2 117.606C543.394 117.602 541.751 116.561 540.975 114.931L540.819 114.931 540.919 114.813C540.192 113.161 540.477 111.238 541.652 109.867L564.1 83.845C564.968 82.8403 566.221 82.2503 567.548 82.221 568.608 82.2143 569.641 82.5597 570.484 83.203L586.02 63.826C586.038 63.804 586.062 63.788 586.081 63.765 585.424 62.8548 585.072 61.7604 585.074 60.638L585.074 51.957C585.073 49.0028 587.467 46.6073 590.421 46.6064 591.231 46.6062 592.03 46.7897 592.758 47.143L601.706 51.484C603.414 52.3263 604.549 54.0083 604.692 55.907L604.772 55.946C605.649 55.6518 606.551 55.4363 607.466 55.302L610.116 54.94 610.651 58.853 611.615 58.721C620.243 57.5423 628.192 63.5809 629.371 72.2086 629.62 74.0278 629.549 75.8763 629.161 77.671L628.596 80.283 627.127 79.966 627.027 80.44C625.907 85.6989 622.158 90.0105 617.106 91.85L632.418 109.9C633.583 111.28 633.852 113.205 633.111 114.852L633.182 114.935 633.073 114.935C632.297 116.566 630.654 117.607 628.848 117.61" id="Path_649882" class="MsftOfcThm_Background1_Stroke_v2 MsftOfcThm_Background2_lumMod_75_Fill_v2" stroke="#FFFFFF" fill="#B8B8B8" transform="translate(334 74)"/><path d="M516.655 87.384C516.657 88.7023 515.589 89.7723 514.271 89.774 512.953 89.7757 511.883 88.7083 511.881 87.39 511.879 86.0717 512.947 85.0017 514.265 85 514.266 85 514.267 85 514.268 85 515.586 85 516.655 86.0687 516.655 87.387" id="Path_649883" class="MsftOfcThm_Background1_Stroke_v2 MsftOfcThm_Background2_lumMod_75_Fill_v2" stroke="#FFFFFF" fill="#B8B8B8" transform="translate(334 74)"/><path d="M664.151 87.384C664.153 88.7023 663.085 89.7723 661.767 89.774 660.449 89.7757 659.379 88.7083 659.377 87.39 659.375 86.0717 660.443 85.0017 661.761 85 661.762 85 661.763 85 661.764 85 663.082 85 664.151 86.0687 664.151 87.387" id="Path_649884" class="MsftOfcThm_Background1_Stroke_v2 MsftOfcThm_Background2_lumMod_75_Fill_v2" stroke="#FFFFFF" fill="#B8B8B8" transform="translate(334 74)"/></g></svg>