<svg width="174.308" height="174.308" viewBox="0 0 174.308 174.308" xmlns="http://www.w3.org/2000/svg" xmlns:xlink="http://www.w3.org/1999/xlink" overflow="hidden"><style>
.MsftOfcThm_Background2_lumMod_75_Fill_v2 {
 fill:#B8B8B8; 
}
.MsftOfcThm_Background1_Stroke_v2 {
 stroke:#FFFFFF; 
}
</style>
<g id="pathways-badge-engaging-humor" transform="translate(-583.974 -74.23)"><path d="M423.281 87.384C423.281 134.966 384.709 173.538 337.127 173.538 289.545 173.538 250.973 134.966 250.973 87.384 250.973 39.8025 289.545 1.23001 337.127 1.23001 384.708 1.22946 423.28 39.801 423.281 87.382 423.281 87.3827 423.281 87.3833 423.281 87.384" id="Path_649770" class="MsftOfcThm_Background2_lumMod_75_Fill_v2 MsftOfcThm_Background1_Stroke_v2" stroke="#FFFFFF" fill="#B8B8B8" transform="translate(334 74)"/><circle cx="86.154" cy="86.154" r="86.154" id="Ellipse_90" class="MsftOfcThm_Background2_lumMod_75_Fill_v2 MsftOfcThm_Background1_Stroke_v2" stroke="#FFFFFF" stroke-width="2" stroke-miterlimit="10" fill="#B8B8B8" transform="translate(584.974 75.23)"/><path d="M293.788 145.682 291.311 143.5 289.611 145.431 292.381 147.87 291.514 148.855 287.545 145.355 293.335 138.783 297.157 142.151 296.289 143.136 293.667 140.824 292.172 142.524 294.648 144.706Z" id="Path_649771" class="MsftOfcThm_Background2_lumMod_75_Fill_v2 MsftOfcThm_Background1_Stroke_v2" stroke="#FFFFFF" fill="#B8B8B8" transform="translate(334 74)"/><path d="M295.957 146.615C296.367 146.015 296.7 145.501 296.976 145.028L298.136 145.819 297.666 146.647 297.698 146.669C298.445 146.332 299.315 146.421 299.978 146.902 300.892 147.525 301.435 148.76 300.306 150.414L298.189 153.514 296.868 152.614 298.882 149.66C299.395 148.908 299.504 148.148 298.782 147.66 298.301 147.348 297.675 147.376 297.224 147.731 297.088 147.842 296.971 147.975 296.877 148.124L294.777 151.196 293.445 150.288Z" id="Path_649772" class="MsftOfcThm_Background2_lumMod_75_Fill_v2 MsftOfcThm_Background1_Stroke_v2" stroke="#FFFFFF" fill="#B8B8B8" transform="translate(334 74)"/><path d="M308.743 152.057C308.521 152.425 308.258 152.875 307.857 153.648L306.202 156.832C305.741 158.453 304.053 159.394 302.432 158.934 302.107 158.841 301.8 158.696 301.523 158.503 300.831 158.169 300.236 157.663 299.796 157.033L300.666 156.122C301.022 156.661 301.509 157.101 302.082 157.4 302.862 157.904 303.903 157.681 304.408 156.901 304.48 156.789 304.538 156.67 304.582 156.545L304.834 156.06 304.811 156.048C304.163 156.398 303.381 156.39 302.741 156.027 301.392 155.262 300.918 153.547 301.683 152.198 301.714 152.144 301.746 152.092 301.78 152.04 302.74 150.194 304.521 149.699 305.871 150.401 306.553 150.71 307.005 151.375 307.042 152.123L307.065 152.135 307.512 151.415ZM306.108 153.545C306.177 153.419 306.228 153.285 306.259 153.145 306.413 152.545 306.132 151.917 305.58 151.634 304.78 151.22 303.836 151.607 303.242 152.749 302.687 153.499 302.845 154.556 303.594 155.111 303.633 155.14 303.674 155.168 303.715 155.193 304.247 155.467 304.894 155.364 305.315 154.939 305.438 154.791 305.546 154.631 305.636 154.461Z" id="Path_649773" class="MsftOfcThm_Background2_lumMod_75_Fill_v2 MsftOfcThm_Background1_Stroke_v2" stroke="#FFFFFF" fill="#B8B8B8" transform="translate(334 74)"/><path d="M311.724 160.073 311.878 159.38 311.841 159.366C311.212 159.718 310.456 159.762 309.79 159.485 308.801 159.171 308.253 158.115 308.567 157.126 308.579 157.088 308.592 157.05 308.607 157.012 309.179 155.518 310.791 155.273 312.973 156.122L313.01 156.022C313.159 155.633 313.247 154.929 312.203 154.529 311.643 154.316 311.036 154.256 310.445 154.356L310.526 153.273C311.318 153.166 312.125 153.27 312.864 153.573 314.131 153.901 314.892 155.193 314.564 156.46 314.516 156.648 314.444 156.829 314.351 157L313.532 159.138C313.342 159.61 313.188 160.096 313.072 160.592ZM312.637 157.108C311.589 156.679 310.493 156.523 310.149 157.422 309.945 157.838 310.117 158.341 310.533 158.544 310.578 158.566 310.625 158.584 310.673 158.598 311.193 158.807 311.789 158.659 312.151 158.231 312.225 158.138 312.283 158.033 312.325 157.922Z" id="Path_649774" class="MsftOfcThm_Background2_lumMod_75_Fill_v2 MsftOfcThm_Background1_Stroke_v2" stroke="#FFFFFF" fill="#B8B8B8" transform="translate(334 74)"/><path d="M322.878 156.762C322.746 157.171 322.59 157.668 322.373 158.512L321.473 161.986C321.39 163.668 319.958 164.965 318.276 164.881 317.937 164.865 317.604 164.791 317.289 164.665 316.54 164.496 315.847 164.137 315.277 163.622L315.918 162.539C316.387 162.984 316.961 163.303 317.586 163.466 318.461 163.78 319.425 163.325 319.738 162.45 319.783 162.326 319.813 162.197 319.827 162.066L319.962 161.537 319.938 161.53C319.386 162.017 318.622 162.185 317.916 161.975 316.429 161.533 315.582 159.968 316.025 158.482 316.042 158.423 316.062 158.365 316.083 158.307 316.604 156.293 318.228 155.407 319.701 155.79 320.436 155.936 321.027 156.483 321.229 157.205L321.254 157.211 321.529 156.411ZM320.646 158.804C320.684 158.664 320.704 158.52 320.703 158.375 320.718 157.756 320.303 157.209 319.703 157.056 318.834 156.832 317.997 157.421 317.675 158.668 317.406 159.712 317.716 160.692 318.686 160.943 319.265 161.091 319.873 160.845 320.186 160.336 320.273 160.165 320.342 159.985 320.392 159.799Z" id="Path_649775" class="MsftOfcThm_Background2_lumMod_75_Fill_v2 MsftOfcThm_Background1_Stroke_v2" stroke="#FFFFFF" fill="#B8B8B8" transform="translate(334 74)"/><path d="M323.867 163.347 324.915 157.104 326.505 157.371 325.457 163.613ZM326.887 155.647C326.821 156.14 326.368 156.485 325.875 156.419 325.382 156.353 325.037 155.9 325.103 155.407 325.169 154.915 325.622 154.569 326.115 154.635 326.126 154.637 326.136 154.638 326.147 154.64 326.612 154.689 326.948 155.106 326.899 155.571 326.896 155.596 326.892 155.622 326.887 155.647" id="Path_649776" class="MsftOfcThm_Background2_lumMod_75_Fill_v2 MsftOfcThm_Background1_Stroke_v2" stroke="#FFFFFF" fill="#B8B8B8" transform="translate(334 74)"/><path d="M328.5 159.6C328.557 158.874 328.592 158.265 328.6 157.717L330 157.828 330 158.78 330.039 158.78C330.52 158.117 331.319 157.762 332.133 157.85 333.233 157.937 334.317 158.739 334.16 160.734L333.86 164.478 332.267 164.352 332.548 160.79C332.619 159.883 332.337 159.17 331.469 159.101 330.896 159.069 330.367 159.405 330.151 159.936 330.088 160.1 330.053 160.273 330.046 160.449L329.753 164.154 328.147 164.027Z" id="Path_649777" class="MsftOfcThm_Background2_lumMod_75_Fill_v2 MsftOfcThm_Background1_Stroke_v2" stroke="#FFFFFF" fill="#B8B8B8" transform="translate(334 74)"/><path d="M342.271 157.981C342.262 158.411 342.257 158.931 342.291 159.801L342.435 163.385C342.84 165.019 341.844 166.673 340.21 167.078 339.881 167.16 339.541 167.186 339.203 167.156 338.437 167.21 337.67 167.065 336.976 166.737L337.276 165.516C337.853 165.807 338.494 165.946 339.139 165.922 340.066 165.97 340.857 165.258 340.905 164.331 340.912 164.2 340.903 164.069 340.88 163.941L340.859 163.395 340.832 163.395C340.444 164.02 339.762 164.402 339.026 164.404 337.476 164.41 336.214 163.158 336.208 161.608 336.208 161.545 336.21 161.483 336.214 161.421 335.976 159.764 337.126 158.227 338.784 157.988 338.839 157.98 338.894 157.974 338.95 157.969 339.696 157.899 340.418 158.252 340.822 158.883L340.847 158.883 340.878 158.037ZM340.723 160.581C340.72 160.436 340.697 160.292 340.654 160.154 340.489 159.557 339.933 159.153 339.314 159.181 338.414 159.216 337.787 160.022 337.838 161.308 337.881 162.385 338.462 163.233 339.461 163.193 340.057 163.168 340.568 162.758 340.722 162.181 340.756 161.992 340.77 161.799 340.764 161.607Z" id="Path_649778" class="MsftOfcThm_Background2_lumMod_75_Fill_v2 MsftOfcThm_Background1_Stroke_v2" stroke="#FFFFFF" fill="#B8B8B8" transform="translate(334 74)"/><path d="M348.639 154.64 349.384 158.068 353.002 157.281 352.257 153.853 353.819 153.513 355.68 162.07 354.118 162.41 353.298 158.639 349.68 159.426 350.5 163.197 348.939 163.536 347.077 154.979Z" id="Path_649779" class="MsftOfcThm_Background2_lumMod_75_Fill_v2 MsftOfcThm_Background1_Stroke_v2" stroke="#FFFFFF" fill="#B8B8B8" transform="translate(334 74)"/><path d="M363.269 157.514C363.522 158.224 363.756 158.804 363.956 159.285L362.632 159.757 362.232 158.876 362.207 158.885C362.042 159.695 361.453 160.353 360.666 160.607 359.576 160.995 358.352 160.7 357.659 158.751L356.411 155.251 357.917 154.714 359.074 157.961C359.427 158.954 359.974 159.477 360.774 159.194 361.281 158.999 361.622 158.518 361.638 157.975 361.641 157.805 361.614 157.636 361.558 157.475L360.275 153.875 361.782 153.339Z" id="Path_649780" class="MsftOfcThm_Background2_lumMod_75_Fill_v2 MsftOfcThm_Background1_Stroke_v2" stroke="#FFFFFF" fill="#B8B8B8" transform="translate(334 74)"/><path d="M364.671 154.269C364.33 153.626 364.032 153.092 363.742 152.627L364.96 151.982 365.46 152.782 365.494 152.764C365.53 151.966 365.997 151.251 366.713 150.897 367.387 150.514 368.229 150.599 368.813 151.109L368.836 151.097C368.857 150.721 368.966 150.356 369.155 150.031 369.362 149.626 369.695 149.3 370.104 149.101 371.034 148.607 372.311 148.74 373.261 150.533L375.008 153.833 373.629 154.563 371.991 151.472C371.498 150.542 370.885 150.16 370.206 150.52 369.761 150.777 369.525 151.284 369.614 151.79 369.654 151.966 369.715 152.136 369.795 152.298L371.572 155.653 370.194 156.383 368.477 153.143C368.063 152.362 367.461 151.975 366.806 152.322 366.343 152.596 366.107 153.136 366.221 153.662 366.243 153.838 366.298 154.007 366.384 154.162L368.137 157.471 366.759 158.202Z" id="Path_649781" class="MsftOfcThm_Background2_lumMod_75_Fill_v2 MsftOfcThm_Background1_Stroke_v2" stroke="#FFFFFF" fill="#B8B8B8" transform="translate(334 74)"/><path d="M380.46 145.938C381.586 147.255 381.431 149.235 380.114 150.361 380.024 150.438 379.93 150.51 379.832 150.576 378.507 151.628 376.58 151.406 375.529 150.082 375.462 149.998 375.4 149.911 375.343 149.821 374.221 148.508 374.376 146.534 375.689 145.412 375.788 145.328 375.892 145.25 376.001 145.178 377.315 144.135 379.226 144.355 380.269 145.669 380.338 145.755 380.401 145.845 380.46 145.938M376.651 148.813C377.375 149.798 378.402 150.188 379.189 149.613 379.922 149.075 379.906 147.975 379.152 146.947 378.567 146.147 377.542 145.5 376.662 146.147 375.75 146.816 376.028 147.966 376.651 148.815" id="Path_649782" class="MsftOfcThm_Background2_lumMod_75_Fill_v2 MsftOfcThm_Background1_Stroke_v2" stroke="#FFFFFF" fill="#B8B8B8" transform="translate(334 74)"/><path d="M381.291 143.791C380.719 143.151 380.302 142.705 379.891 142.305L380.928 141.377 381.772 142.244 381.811 142.209C381.465 141.48 381.62 140.612 382.198 140.048 382.292 139.963 382.395 139.888 382.505 139.826L383.511 140.95C383.373 141.027 383.245 141.119 383.127 141.224 382.583 141.687 382.472 142.483 382.867 143.078 382.952 143.22 383.049 143.354 383.158 143.478L385.342 145.919 384.15 146.986Z" id="Path_649783" class="MsftOfcThm_Background2_lumMod_75_Fill_v2 MsftOfcThm_Background1_Stroke_v2" stroke="#FFFFFF" fill="#B8B8B8" transform="translate(334 74)"/><path d="M262.023 70.62 261.423 73.043 260.123 72.719 261.723 66.296 263.023 66.62 262.413 69.068 269.619 70.863 269.232 72.415Z" id="Path_649784" class="MsftOfcThm_Background2_lumMod_75_Fill_v2 MsftOfcThm_Background1_Stroke_v2" stroke="#FFFFFF" fill="#B8B8B8" transform="translate(334 74)"/><path d="M269.016 58.652C271.768 59.679 272.716 61.934 271.87 64.199 271.006 66.512 268.695 67.314 266.284 66.414 263.763 65.473 262.577 63.226 263.441 60.914 264.336 58.514 266.678 57.781 269.016 58.654M266.85 64.824C268.519 65.447 270.16 65.102 270.696 63.666 271.232 62.23 270.203 60.901 268.486 60.26 266.939 59.682 265.192 59.904 264.632 61.401 264.072 62.898 265.158 64.192 266.85 64.824" id="Path_649785" class="MsftOfcThm_Background2_lumMod_75_Fill_v2 MsftOfcThm_Background1_Stroke_v2" stroke="#FFFFFF" fill="#B8B8B8" transform="translate(334 74)"/><path d="M272.47 56.219 274.316 58.043 273.547 59.504 267.1 52.936 268.05 51.13 277.132 52.693 276.332 54.212 273.764 53.757ZM272.57 53.435 270.34 53.035C269.789 52.935 269.192 52.785 268.683 52.663L268.672 52.686C269.059 53.037 269.54 53.437 269.927 53.818L271.527 55.418Z" id="Path_649786" class="MsftOfcThm_Background2_lumMod_75_Fill_v2 MsftOfcThm_Background1_Stroke_v2" stroke="#FFFFFF" fill="#B8B8B8" transform="translate(334 74)"/><path d="M276.492 50.52C277.154 50.186 277.722 49.6908 278.143 49.08 278.72 48.23 278.643 47.487 278.051 47.086 277.502 46.714 276.931 46.861 275.971 47.56 274.73 48.46 273.578 48.796 272.535 48.088 271.351 47.288 271.119 45.688 272.183 44.113 272.575 43.5003 273.105 42.9885 273.731 42.619L274.577 43.663C274.045 43.9524 273.591 44.3674 273.256 44.872 272.686 45.71 272.89 46.382 273.31 46.667 273.869 47.046 274.41 46.802 275.445 46.089 276.771 45.151 277.822 44.968 278.866 45.676 280.027 46.463 280.44 48.031 279.172 49.903 278.717 50.5858 278.107 51.1518 277.392 51.555Z" id="Path_649787" class="MsftOfcThm_Background2_lumMod_75_Fill_v2 MsftOfcThm_Background1_Stroke_v2" stroke="#FFFFFF" fill="#B8B8B8" transform="translate(334 74)"/><path d="M277.366 39.673 275.778 41.6 274.746 40.748 278.955 35.648 279.988 36.5 278.388 38.445 284.111 43.167 283.091 44.4Z" id="Path_649788" class="MsftOfcThm_Background2_lumMod_75_Fill_v2 MsftOfcThm_Background1_Stroke_v2" stroke="#FFFFFF" fill="#B8B8B8" transform="translate(334 74)"/><path d="M289.52 32.64C288.713 31.846 287.738 30.889 286.944 30.012L286.915 30.038C287.429 31.015 287.966 32.13 288.431 33.205L290.077 36.856 289.17 37.695 285.77 35.744C284.762 35.154 283.72 34.488 282.806 33.844L282.788 33.862C283.537 34.727 284.444 35.783 285.209 36.705L287.459 39.422 286.359 40.438 280.833 33.613 282.378 32.181 285.612 33.988C286.539 34.53 287.446 35.107 288.271 35.672L288.299 35.645C287.826 34.79 287.312 33.796 286.862 32.812L285.362 29.412 286.891 28 293.218 34.084 292.074 35.144Z" id="Path_649789" class="MsftOfcThm_Background2_lumMod_75_Fill_v2 MsftOfcThm_Background1_Stroke_v2" stroke="#FFFFFF" fill="#B8B8B8" transform="translate(334 74)"/><path d="M294.68 30.019 295.48 32.488 294.125 33.431 291.425 24.637 293.1 23.47 300.445 29.032 299.036 30.013 296.967 28.429ZM296.047 27.593 294.247 26.217C293.804 25.876 293.347 25.467 292.947 25.125L292.926 25.14C293.108 25.63 293.352 26.206 293.526 26.722L294.204 28.879Z" id="Path_649790" class="MsftOfcThm_Background2_lumMod_75_Fill_v2 MsftOfcThm_Background1_Stroke_v2" stroke="#FFFFFF" fill="#B8B8B8" transform="translate(334 74)"/><path d="M300.907 26.8C301.649 26.8095 302.381 26.6321 303.036 26.284 303.936 25.796 304.213 25.101 303.873 24.472 303.557 23.89 302.983 23.757 301.809 23.934 300.294 24.163 299.117 23.927 298.517 22.819 297.838 21.562 298.37 20.033 300.039 19.131 300.668 18.7675 301.374 18.5575 302.1 18.518L302.37 19.835C301.764 19.8453 301.17 20.0043 300.64 20.298 299.749 20.779 299.62 21.469 299.861 21.915 300.182 22.509 300.776 22.543 302.021 22.387 303.631 22.167 304.646 22.487 305.246 23.597 305.913 24.832 305.556 26.413 303.568 27.488 302.85 27.8839 302.048 28.1049 301.228 28.133Z" id="Path_649791" class="MsftOfcThm_Background2_lumMod_75_Fill_v2 MsftOfcThm_Background1_Stroke_v2" stroke="#FFFFFF" fill="#B8B8B8" transform="translate(334 74)"/><path d="M306.715 17.552 304.409 18.51 303.896 17.273 310.008 14.734 310.522 15.97 308.192 16.938 311.041 23.795 309.564 24.409Z" id="Path_649792" class="MsftOfcThm_Background2_lumMod_75_Fill_v2 MsftOfcThm_Background1_Stroke_v2" stroke="#FFFFFF" fill="#B8B8B8" transform="translate(334 74)"/><path d="M318.208 17.288 315.045 18.242 315.788 20.707 319.324 19.641 319.704 20.898 314.636 22.426 312.106 14.034 316.987 12.563 317.366 13.82 314.017 14.83 314.67 17 317.832 16.047Z" id="Path_649793" class="MsftOfcThm_Background2_lumMod_75_Fill_v2 MsftOfcThm_Background1_Stroke_v2" stroke="#FFFFFF" fill="#B8B8B8" transform="translate(334 74)"/><path d="M319.719 12.014C320.482 11.7416 321.265 11.531 322.061 11.384 322.983 11.1142 323.971 11.1798 324.849 11.569 325.425 11.9088 325.818 12.4904 325.917 13.152 326.096 14.1313 325.635 15.1165 324.769 15.607L324.775 15.645C325.487 15.8415 326.055 16.3778 326.292 17.077 326.614 17.8611 326.993 18.6208 327.425 19.35L325.803 19.658C325.427 19.0465 325.106 18.4034 324.842 17.736 324.386 16.659 323.909 16.378 323.011 16.523L322.219 16.673 322.891 20.211 321.333 20.511ZM322 15.524 322.933 15.347C323.993 15.147 324.55 14.457 324.388 13.602 324.208 12.656 323.461 12.348 322.439 12.543 322.112 12.5952 321.791 12.6824 321.483 12.803Z" id="Path_649794" class="MsftOfcThm_Background2_lumMod_75_Fill_v2 MsftOfcThm_Background1_Stroke_v2" stroke="#FFFFFF" fill="#B8B8B8" transform="translate(334 74)"/><path d="M328.741 17.464C329.417 17.7702 330.159 17.9018 330.899 17.847 331.923 17.763 332.453 17.236 332.399 16.524 332.345 15.863 331.872 15.511 330.725 15.201 329.244 14.801 328.262 14.113 328.158 12.856 328.04 11.431 329.142 10.245 331.034 10.089 331.757 10.009 332.488 10.1005 333.169 10.356L332.886 11.671C332.327 11.4371 331.719 11.3441 331.116 11.4 330.105 11.483 329.71 12.063 329.752 12.568 329.807 13.242 330.338 13.511 331.541 13.868 333.103 14.313 333.905 15.016 334.009 16.268 334.124 17.668 333.162 18.968 330.909 19.158 330.093 19.2324 329.27 19.1125 328.509 18.808Z" id="Path_649795" class="MsftOfcThm_Background2_lumMod_75_Fill_v2 MsftOfcThm_Background1_Stroke_v2" stroke="#FFFFFF" fill="#B8B8B8" transform="translate(334 74)"/><rect x="0" y="0" width="8.759" height="1.599" id="Rectangle_18857" class="MsftOfcThm_Background2_lumMod_75_Fill_v2 MsftOfcThm_Background1_Stroke_v2" stroke="#FFFFFF" fill="#B8B8B8" transform="matrix(0.0387017 -0.999251 0.999251 0.0387017 673.121 92.777)"/><path d="M342.872 18.9 344.014 10.21 345.814 10.447 347.568 14.468C348.005 15.478 348.373 16.5168 348.668 17.577L348.694 17.577C348.743 16.403 348.851 15.277 349.026 13.948L349.426 10.918 350.895 11.111 349.754 19.802 348.116 19.586 346.348 15.472C345.9 14.4248 345.511 13.3535 345.182 12.263L345.142 12.271C345.059 13.401 344.922 14.55 344.733 15.981L344.325 19.088Z" id="Path_649796" class="MsftOfcThm_Background2_lumMod_75_Fill_v2 MsftOfcThm_Background1_Stroke_v2" stroke="#FFFFFF" fill="#B8B8B8" transform="translate(334 74)"/><path d="M355.249 13.472 352.829 12.863 353.156 11.563 359.571 13.179 359.244 14.479 356.799 13.864 354.987 21.064 353.437 20.674Z" id="Path_649797" class="MsftOfcThm_Background2_lumMod_75_Fill_v2 MsftOfcThm_Background1_Stroke_v2" stroke="#FFFFFF" fill="#B8B8B8" transform="translate(334 74)"/><path d="M364.628 20.128 361.524 19 360.644 21.42 364.115 22.681 363.666 23.916 358.692 22.108 361.685 13.871 366.476 15.611 366.027 16.846 362.739 15.646 361.967 17.773 365.067 18.901Z" id="Path_649798" class="MsftOfcThm_Background2_lumMod_75_Fill_v2 MsftOfcThm_Background1_Stroke_v2" stroke="#FFFFFF" fill="#B8B8B8" transform="translate(334 74)"/><path d="M369.029 16.825C369.802 17.0651 370.555 17.366 371.28 17.725 372.18 18.061 372.931 18.7052 373.4 19.543 373.658 20.1602 373.624 20.8609 373.307 21.45 372.863 22.3405 371.905 22.8525 370.918 22.726L370.901 22.761C371.352 23.3448 371.485 24.1138 371.256 24.815 371.045 25.6364 370.893 26.4719 370.802 27.315L369.319 26.59C369.386 25.8759 369.514 25.169 369.702 24.477 369.982 23.342 369.769 22.832 368.963 22.409L368.239 22.056 366.658 25.289 365.234 24.589ZM368.753 21 369.605 21.417C370.289 21.8991 371.234 21.7355 371.716 21.0516 371.752 21.0002 371.785 20.9465 371.815 20.891 372.236 20.027 371.823 19.334 370.89 18.877 370.597 18.723 370.288 18.6013 369.968 18.514Z" id="Path_649799" class="MsftOfcThm_Background2_lumMod_75_Fill_v2 MsftOfcThm_Background1_Stroke_v2" stroke="#FFFFFF" fill="#B8B8B8" transform="translate(334 74)"/><path d="M372.058 28.017 376.82 20.664 378.347 21.653 378.204 26.035C378.165 27.1342 378.05 28.2294 377.862 29.313L377.884 29.328C378.432 28.289 379.014 27.319 379.742 26.195L381.402 23.631 382.646 24.436 377.884 31.79 376.498 30.89 376.669 26.418C376.715 25.2795 376.824 24.1444 376.995 23.018L376.955 23.008C376.396 23.992 375.778 24.97 374.994 26.181L373.294 28.81Z" id="Path_649800" class="MsftOfcThm_Background2_lumMod_75_Fill_v2 MsftOfcThm_Background1_Stroke_v2" stroke="#FFFFFF" fill="#B8B8B8" transform="translate(334 74)"/><path d="M382.485 32.287 380.324 33.722 379.051 32.672 386.791 27.701 388.365 29.001 384.986 37.569 383.663 36.477 384.63 34.058ZM385.185 32.951 386.027 30.851C386.236 30.333 386.505 29.781 386.727 29.307L386.706 29.291C386.284 29.599 385.795 29.991 385.344 30.291L383.45 31.525Z" id="Path_649801" class="MsftOfcThm_Background2_lumMod_75_Fill_v2 MsftOfcThm_Background1_Stroke_v2" stroke="#FFFFFF" fill="#B8B8B8" transform="translate(334 74)"/><path d="M391.771 33.992 390.025 32.208 390.982 31.271 395.611 36 394.654 36.937 392.889 35.137 387.584 40.33 386.464 39.187Z" id="Path_649802" class="MsftOfcThm_Background2_lumMod_75_Fill_v2 MsftOfcThm_Background1_Stroke_v2" stroke="#FFFFFF" fill="#B8B8B8" transform="translate(334 74)"/><rect x="0" y="0" width="8.761" height="1.598" id="Rectangle_18858" class="MsftOfcThm_Background2_lumMod_75_Fill_v2 MsftOfcThm_Background1_Stroke_v2" stroke="#FFFFFF" fill="#B8B8B8" transform="matrix(0.767 -0.642 0.642 0.767 724.176 117.188)"/><path d="M400.7 49.927C398.279 51.59 395.889 51.071 394.521 49.078 393.121 47.043 393.794 44.691 395.915 43.235 398.132 41.713 400.653 42.035 402.05 44.067 403.498 46.177 402.756 48.515 400.7 49.927M396.893 44.613C395.425 45.62 394.765 47.161 395.633 48.425 396.501 49.689 398.179 49.609 399.69 48.571 401.05 47.637 401.872 46.08 400.967 44.762 400.062 43.444 398.381 43.591 396.893 44.613" id="Path_649803" class="MsftOfcThm_Background2_lumMod_75_Fill_v2 MsftOfcThm_Background1_Stroke_v2" stroke="#FFFFFF" fill="#B8B8B8" transform="translate(334 74)"/><path d="M397.8 53.871 405.616 49.912 406.439 51.535 404.11 55.251C403.522 56.181 402.872 57.07 402.164 57.912L402.176 57.935C403.176 57.314 404.164 56.768 405.359 56.163L408.083 54.782 408.753 56.104 400.937 60.064 400.191 58.591 402.591 54.811C403.203 53.8508 403.867 52.9254 404.582 52.039L404.553 52.01C403.573 52.579 402.547 53.11 401.26 53.766L398.46 55.182Z" id="Path_649804" class="MsftOfcThm_Background2_lumMod_75_Fill_v2 MsftOfcThm_Background1_Stroke_v2" stroke="#FFFFFF" fill="#B8B8B8" transform="translate(334 74)"/><path d="M404.677 62.821 402.086 62.944 401.532 61.39 410.722 61.09 411.408 63.012 404.115 68.633 403.539 67.018 405.61 65.438ZM406.657 64.777 408.457 63.404C408.902 63.066 409.417 62.731 409.85 62.438L409.842 62.413C409.321 62.461 408.702 62.544 408.16 62.572L405.902 62.66Z" id="Path_649805" class="MsftOfcThm_Background2_lumMod_75_Fill_v2 MsftOfcThm_Background1_Stroke_v2" stroke="#FFFFFF" fill="#B8B8B8" transform="translate(334 74)"/><path d="M412.988 68.081 413.358 69.637 406.134 71.353 406.967 74.853 405.667 75.163 404.467 70.103Z" id="Path_649806" class="MsftOfcThm_Background2_lumMod_75_Fill_v2 MsftOfcThm_Background1_Stroke_v2" stroke="#FFFFFF" fill="#B8B8B8" transform="translate(334 74)"/><path d="M391.846 87.989C391.846 117.471 367.946 141.371 338.464 141.371 308.982 141.371 285.082 117.471 285.082 87.989 285.082 58.5069 308.982 34.607 338.464 34.607 367.946 34.607 391.846 58.5069 391.846 87.989" id="Path_649807" class="MsftOfcThm_Background2_lumMod_75_Fill_v2 MsftOfcThm_Background1_Stroke_v2" stroke="#FFFFFF" fill="#B8B8B8" transform="translate(334 74)"/><path d="M318.015 113.085C324.215 113.085 328.623 106.749 329.45 104.408" id="Path_649808" class="MsftOfcThm_Background2_lumMod_75_Fill_v2 MsftOfcThm_Background1_Stroke_v2" stroke="#FFFFFF" stroke-width="2" stroke-miterlimit="10" fill="#B8B8B8" transform="translate(334 74)"/><path d="M318.585 121.364C319.031 121.337 319.485 121.293 319.946 121.232 341.563 118.377 338.508 81.404 337.755 74.567 337.679 73.9434 337.147 73.4759 336.519 73.48 329.122 73.4406 321.733 73.9755 314.419 75.08" id="Path_649809" class="MsftOfcThm_Background2_lumMod_75_Fill_v2 MsftOfcThm_Background1_Stroke_v2" stroke="#FFFFFF" stroke-width="2" stroke-miterlimit="10" fill="#B8B8B8" transform="translate(334 74)"/><path d="M318.585 121.364C297.87 122.626 292.855 88.288 292.157 82.489 292.09 81.9846 292.352 81.4938 292.808 81.268 294.987 80.168 302.003 77.025 314.417 75.085 314.417 75.085 315.177 89.145 311.627 100.246 311.521 100.562 311.65 100.909 311.936 101.079 313.594 102.094 315.42 102.801 317.329 103.168Z" id="Path_649810" class="MsftOfcThm_Background2_lumMod_75_Fill_v2 MsftOfcThm_Background1_Stroke_v2" stroke="#FFFFFF" fill="#B8B8B8" transform="translate(334 74)"/><path d="M318.585 121.364C297.87 122.626 292.855 88.288 292.157 82.489 292.09 81.9846 292.352 81.4938 292.808 81.268 294.987 80.168 302.003 77.025 314.417 75.085 314.417 75.085 315.177 89.145 311.627 100.246 311.521 100.562 311.65 100.909 311.936 101.079 313.594 102.094 315.42 102.801 317.329 103.168Z" id="Path_649811" class="MsftOfcThm_Background2_lumMod_75_Fill_v2 MsftOfcThm_Background1_Stroke_v2" stroke="#FFFFFF" stroke-width="2" stroke-miterlimit="10" fill="#B8B8B8" transform="translate(334 74)"/><path d="M307.391 107.751C307.391 107.751 311.814 113.085 318.015 113.085" id="Path_649812" class="MsftOfcThm_Background2_lumMod_75_Fill_v2 MsftOfcThm_Background1_Stroke_v2" stroke="#FFFFFF" stroke-width="2" stroke-miterlimit="10" fill="#B8B8B8" transform="translate(334 74)"/><path d="M321.579 88.913C321.579 88.913 321.993 84.484 326.341 84.484 330.689 84.484 330.841 88.21 330.841 88.21" id="Path_649813" class="MsftOfcThm_Background2_lumMod_75_Fill_v2 MsftOfcThm_Background1_Stroke_v2" stroke="#FFFFFF" stroke-width="2" stroke-miterlimit="10" fill="#B8B8B8" transform="translate(334 74)"/><path d="M299.065 93.109C299.065 93.109 298.944 88.662 303.265 88.14 307.586 87.618 308.181 91.3 308.181 91.3" id="Path_649814" class="MsftOfcThm_Background2_lumMod_75_Fill_v2 MsftOfcThm_Background1_Stroke_v2" stroke="#FFFFFF" stroke-width="2" stroke-miterlimit="10" fill="#B8B8B8" transform="translate(334 74)"/><path d="M357.461 91.621C357.51 91.2836 357.743 91.002 358.066 90.892 360.141 90.1848 362.027 89.0107 363.577 87.46 364.004 87.045 364.087 86.3894 363.777 85.881 360.715 81.02 360.432 63.401 360.432 63.401 367.412 64.144 374.994 65.845 381.623 69.354 381.94 69.5199 382.13 69.8566 382.109 70.214 381.799 75.228 378.764 110.963 355.331 108.436Z" id="Path_649815" class="MsftOfcThm_Background2_lumMod_75_Fill_v2 MsftOfcThm_Background1_Stroke_v2" stroke="#FFFFFF" fill="#B8B8B8" transform="translate(334 74)"/><path d="M357.461 91.621C357.51 91.2836 357.743 91.002 358.066 90.892 360.141 90.1848 362.027 89.0107 363.577 87.46 364.004 87.045 364.087 86.3894 363.777 85.881 360.715 81.02 360.432 63.401 360.432 63.401 367.412 64.144 374.994 65.845 381.623 69.354 381.94 69.5199 382.13 69.8566 382.109 70.214 381.799 75.228 378.764 110.963 355.331 108.436Z" id="Path_649816" class="MsftOfcThm_Background2_lumMod_75_Fill_v2 MsftOfcThm_Background1_Stroke_v2" stroke="#FFFFFF" stroke-width="2" stroke-miterlimit="10" fill="#B8B8B8" transform="translate(334 74)"/><path d="M356.946 95.692C353.769 95.599 350.727 96.975 348.699 99.422" id="Path_649817" class="MsftOfcThm_Background2_lumMod_75_Fill_v2 MsftOfcThm_Background1_Stroke_v2" stroke="#FFFFFF" stroke-width="2" stroke-miterlimit="10" fill="#B8B8B8" transform="translate(334 74)"/><path d="M364.818 100.584C363.169 98.2105 360.711 96.5191 357.905 95.826 357.588 95.7616 357.268 95.7172 356.946 95.693" id="Path_649818" class="MsftOfcThm_Background2_lumMod_75_Fill_v2 MsftOfcThm_Background1_Stroke_v2" stroke="#FFFFFF" stroke-width="2" stroke-miterlimit="10" fill="#B8B8B8" transform="translate(334 74)"/><path d="M376.352 78.937C376.352 78.937 375.06 83.194 370.8 82.323 366.54 81.452 367.136 77.771 367.136 77.771" id="Path_649819" class="MsftOfcThm_Background2_lumMod_75_Fill_v2 MsftOfcThm_Background1_Stroke_v2" stroke="#FFFFFF" stroke-width="2" stroke-miterlimit="10" fill="#B8B8B8" transform="translate(334 74)"/><path d="M354.52 76.8C354.52 76.8 353.228 81.057 348.968 80.186 344.708 79.315 345.3 75.63 345.3 75.63" id="Path_649820" class="MsftOfcThm_Background2_lumMod_75_Fill_v2 MsftOfcThm_Background1_Stroke_v2" stroke="#FFFFFF" stroke-width="2" stroke-miterlimit="10" fill="#B8B8B8" transform="translate(334 74)"/><path d="M355.327 108.436C348.914 108.012 344.784 104.283 342.007 99.553" id="Path_649821" class="MsftOfcThm_Background2_lumMod_75_Fill_v2 MsftOfcThm_Background1_Stroke_v2" stroke="#FFFFFF" stroke-width="2" stroke-miterlimit="10" fill="#B8B8B8" transform="translate(334 74)"/><path d="M337.164 68.625C337.255 67.325 337.358 66.23 337.447 65.414 337.543 64.4443 338.299 63.671 339.266 63.553 346.294 62.7412 353.388 62.6902 360.427 63.401" id="Path_649822" class="MsftOfcThm_Background2_lumMod_75_Fill_v2 MsftOfcThm_Background1_Stroke_v2" stroke="#FFFFFF" stroke-width="2" stroke-miterlimit="10" fill="#B8B8B8" transform="translate(334 74)"/><path d="M337.128 30.165C305.193 30.165 279.305 56.0532 279.305 87.988 279.305 119.923 305.193 145.811 337.128 145.811 369.062 145.811 394.95 119.923 394.951 87.989 394.951 56.0541 369.063 30.1656 337.128 30.165M371.82 107.4C367.89 110.785 362.862 112.623 357.676 112.573 356.808 112.571 355.94 112.525 355.076 112.436L355.058 112.436 355.037 112.436C354.988 112.436 354.937 112.43 354.892 112.425L350.863 111.696C346.597 110.46 342.875 107.818 340.3 104.2 337.623 114.5 332.179 122.47 322.841 124.749L318.833 125.365 318.833 125.365C318.359 125.394 317.889 125.408 317.433 125.408 294.479 125.408 289.049 90.161 288.182 82.967 287.924 80.791 289.048 78.6845 291 77.688 293.6 76.378 301 73.12 313.8 71.122L318.187 70.436 318.192 70.536C323.2 69.9466 328.234 69.6095 333.275 69.526 333.18 69.1424 333.142 68.7467 333.164 68.352 333.264 66.986 333.364 65.844 333.459 64.99 333.748 62.1598 335.962 59.9089 338.787 59.573 344.616 58.9077 350.49 58.7344 356.348 59.055L356.348 58.935 360.856 59.414C369.628 60.348 377.247 62.501 383.499 65.814 385.206 66.7194 386.228 68.538 386.113 70.467 385.843 74.851 383.883 97.236 371.824 107.41" id="Path_649823" class="MsftOfcThm_Background2_lumMod_75_Fill_v2 MsftOfcThm_Background1_Stroke_v2" stroke="#FFFFFF" fill="#B8B8B8" transform="translate(334 74)"/><path d="M265.766 87.384C265.768 88.7023 264.7 89.7723 263.382 89.774 262.064 89.7757 260.994 88.7083 260.992 87.39 260.99 86.0717 262.058 85.0017 263.376 85 263.377 85 263.378 85 263.379 85 264.697 85 265.766 86.0687 265.766 87.387" id="Path_649824" class="MsftOfcThm_Background2_lumMod_75_Fill_v2 MsftOfcThm_Background1_Stroke_v2" stroke="#FFFFFF" fill="#B8B8B8" transform="translate(334 74)"/><path d="M413.263 87.384C413.265 88.7023 412.197 89.7723 410.879 89.774 409.561 89.7757 408.491 88.7083 408.489 87.39 408.487 86.0717 409.555 85.0017 410.873 85 410.874 85 410.875 85 410.876 85 412.194 85 413.263 86.0687 413.263 87.387" id="Path_649825" class="MsftOfcThm_Background2_lumMod_75_Fill_v2 MsftOfcThm_Background1_Stroke_v2" stroke="#FFFFFF" fill="#B8B8B8" transform="translate(334 74)"/></g></svg>