<svg width="174.308" height="174.308" viewBox="0 0 174.308 174.308" xmlns="http://www.w3.org/2000/svg" xmlns:xlink="http://www.w3.org/1999/xlink" overflow="hidden"><g id="pathways-badge-presentation-mastery" transform="translate(-1316.5 -74.23)"><path d="M1155.81 87.384C1155.81 134.966 1117.24 173.538 1069.66 173.538 1022.08 173.538 983.505 134.966 983.505 87.384 983.505 39.8025 1022.08 1.23001 1069.66 1.23001 1117.24 1.22946 1155.81 39.801 1155.81 87.382 1155.81 87.3827 1155.81 87.3833 1155.81 87.384" id="Path_649951" fill="#FFFFFF" transform="translate(334 74)"/><circle cx="86.154" cy="86.154" r="86.154" id="Ellipse_93" stroke="#772432" stroke-width="2" stroke-miterlimit="10" fill="none" transform="translate(1317.5 75.23)"/><path d="M1017.02 129.828C1017.62 130.382 1018.18 130.988 1018.67 131.64 1019.29 132.322 1019.66 133.198 1019.71 134.119 1019.67 134.86 1019.31 135.547 1018.71 135.991 1018.15 136.476 1017.41 136.706 1016.68 136.625 1015.68 136.433 1014.81 135.858 1014.23 135.025 1014.07 134.823 1013.92 134.607 1013.79 134.379L1011.19 136.417 1010.21 135.168ZM1014.78 133.597C1014.9 133.832 1015.04 134.052 1015.21 134.252 1015.95 135.194 1016.86 135.406 1017.67 134.772 1018.44 134.172 1018.43 133.316 1017.75 132.446 1017.56 132.198 1017.35 131.971 1017.12 131.767Z" id="Path_649952" fill="#022A3A" transform="translate(334 74)"/><path d="M1018.45 138.462C1019.08 137.872 1019.51 137.442 1019.9 137.021L1020.85 138.03 1020.02 138.899 1020.05 138.937C1020.77 138.57 1021.64 138.7 1022.22 139.261 1022.31 139.352 1022.39 139.453 1022.45 139.561L1021.36 140.599C1021.28 140.464 1021.18 140.338 1021.07 140.223 1020.59 139.693 1019.79 139.605 1019.21 140.018 1019.07 140.106 1018.94 140.206 1018.82 140.318L1016.44 142.572 1015.34 141.412Z" id="Path_649953" fill="#022A3A" transform="translate(334 74)"/><path d="M1021.83 144.072C1021.23 144.808 1021.34 145.891 1022.07 146.492 1022.12 146.527 1022.16 146.56 1022.21 146.591 1022.64 146.999 1023.15 147.32 1023.71 147.538L1023.16 148.522C1022.45 148.256 1021.8 147.859 1021.24 147.351 1019.9 146.371 1019.61 144.494 1020.59 143.158 1020.69 143.028 1020.79 142.906 1020.91 142.793 1021.94 141.4 1023.9 141.105 1025.29 142.135 1025.36 142.183 1025.42 142.233 1025.48 142.286 1027.03 143.646 1026.41 145.361 1025.49 146.405 1025.34 146.576 1025.18 146.734 1025.01 146.877ZM1024.65 145.072C1025.22 144.581 1025.29 143.72 1024.8 143.15 1024.76 143.112 1024.73 143.076 1024.69 143.042 1024.04 142.537 1023.12 142.619 1022.57 143.23Z" id="Path_649954" fill="#022A3A" transform="translate(334 74)"/><path d="M1025.92 149.149C1026.16 149.667 1026.52 150.121 1026.97 150.471 1027.54 150.883 1027.96 150.835 1028.2 150.498 1028.45 150.161 1028.37 149.818 1027.9 149.14 1027.15 148.067 1027.13 147.215 1027.57 146.623 1028.31 145.714 1029.65 145.574 1030.56 146.31 1030.6 146.344 1030.64 146.379 1030.67 146.415 1031.15 146.751 1031.54 147.192 1031.81 147.705L1030.9 148.438C1030.7 148.011 1030.4 147.64 1030.02 147.357 1029.56 147.022 1029.15 147.057 1028.92 147.375 1028.7 147.693 1028.82 148.035 1029.3 148.74 1029.97 149.433 1030.06 150.498 1029.53 151.3 1028.86 152.227 1027.65 152.374 1026.29 151.39 1025.74 151.008 1025.29 150.498 1024.99 149.903Z" id="Path_649955" fill="#022A3A" transform="translate(334 74)"/><path d="M1032.78 152.324C1032.33 153.162 1032.65 154.205 1033.49 154.653 1033.53 154.679 1033.58 154.703 1033.64 154.724 1034.14 155.039 1034.71 155.256 1035.3 155.363L1034.94 156.435C1034.2 156.31 1033.48 156.046 1032.84 155.657 1031.34 154.953 1030.7 153.166 1031.4 151.666 1031.47 151.52 1031.55 151.38 1031.64 151.247 1032.38 149.682 1034.25 149.013 1035.82 149.754 1035.89 149.789 1035.96 149.826 1036.03 149.866 1037.81 150.903 1037.54 152.704 1036.83 153.906 1036.72 154.103 1036.59 154.29 1036.45 154.464ZM1035.75 152.762C1036.21 152.17 1036.11 151.313 1035.52 150.848 1035.48 150.817 1035.43 150.788 1035.39 150.762 1034.66 150.393 1033.76 150.655 1033.34 151.362Z" id="Path_649956" fill="#022A3A" transform="translate(334 74)"/><path d="M1039.1 153.882C1039.39 153.215 1039.63 152.651 1039.81 152.135L1041.1 152.702 1040.79 153.602 1040.82 153.617C1041.5 153.15 1042.37 153.079 1043.11 153.431 1044.12 153.877 1044.88 154.994 1044.07 156.831L1042.55 160.27 1041.09 159.625 1042.53 156.352C1042.9 155.519 1042.87 154.752 1042.07 154.4 1041.54 154.18 1040.93 154.322 1040.55 154.753 1040.44 154.887 1040.35 155.039 1040.28 155.202L1038.78 158.602 1037.31 157.95Z" id="Path_649957" fill="#022A3A" transform="translate(334 74)"/><path d="M1049.4 154.017 1048.83 155.733 1050.28 156.209 1049.9 157.345 1048.46 156.869 1047.58 159.523C1047.34 160.251 1047.41 160.699 1047.99 160.89 1048.19 160.958 1048.4 160.999 1048.61 161.012L1048.25 162.18C1047.86 162.173 1047.47 162.101 1047.11 161.966 1046.61 161.829 1046.2 161.494 1045.96 161.04 1045.76 160.44 1045.79 159.785 1046.05 159.206L1046.98 156.38 1046.11 156.095 1046.49 154.959 1047.35 155.244 1047.8 153.886Z" id="Path_649958" fill="#022A3A" transform="translate(334 74)"/><path d="M1053.91 163.647 1053.97 162.94 1053.93 162.931C1053.36 163.366 1052.61 163.513 1051.92 163.331 1050.89 163.156 1050.2 162.184 1050.38 161.16 1050.39 161.122 1050.39 161.084 1050.4 161.046 1050.76 159.489 1052.33 159.023 1054.6 159.563L1054.63 159.463C1054.72 159.063 1054.71 158.349 1053.62 158.097 1053.04 157.963 1052.43 157.988 1051.86 158.169L1051.79 157.086C1052.56 156.87 1053.37 156.86 1054.14 157.057 1055.44 157.206 1056.37 158.38 1056.22 159.679 1056.2 159.872 1056.16 160.061 1056.09 160.242L1055.57 162.471C1055.45 162.964 1055.37 163.465 1055.32 163.971ZM1054.41 160.586C1053.31 160.306 1052.21 160.303 1051.99 161.24 1051.84 161.68 1052.08 162.154 1052.52 162.298 1052.57 162.314 1052.62 162.325 1052.67 162.332 1053.21 162.469 1053.78 162.24 1054.08 161.765 1054.14 161.663 1054.18 161.551 1054.21 161.435Z" id="Path_649959" fill="#022A3A" transform="translate(334 74)"/><path d="M1060.77 156.571 1060.53 158.361 1062.03 158.568 1061.87 159.753 1060.36 159.546 1059.98 162.315C1059.88 163.074 1060.03 163.502 1060.63 163.585 1060.84 163.615 1061.05 163.618 1061.26 163.593L1061.12 164.807C1060.74 164.872 1060.34 164.872 1059.96 164.807 1059.45 164.763 1058.98 164.509 1058.66 164.107 1058.35 163.554 1058.26 162.904 1058.41 162.288L1058.82 159.339 1057.92 159.215 1058.08 158.031 1058.98 158.155 1059.17 156.738Z" id="Path_649960" fill="#022A3A" transform="translate(334 74)"/><path d="M1063.25 165.022 1063.7 158.706 1065.31 158.821 1064.86 165.138ZM1065.53 157.064C1065.51 157.561 1065.09 157.947 1064.59 157.928 1064.1 157.908 1063.71 157.49 1063.73 156.993 1063.75 156.496 1064.17 156.11 1064.67 156.129 1064.68 156.13 1064.69 156.13 1064.7 156.131 1065.16 156.137 1065.54 156.521 1065.53 156.989 1065.53 157.014 1065.53 157.039 1065.53 157.064" id="Path_649961" fill="#022A3A" transform="translate(334 74)"/><path d="M1073.53 161.982C1073.68 163.708 1072.41 165.233 1070.68 165.387 1070.57 165.398 1070.45 165.402 1070.33 165.399 1068.64 165.49 1067.2 164.195 1067.11 162.507 1067.1 162.399 1067.1 162.291 1067.11 162.184 1066.96 160.464 1068.23 158.947 1069.95 158.794 1070.07 158.783 1070.2 158.779 1070.33 158.784 1072.01 158.692 1073.44 159.976 1073.53 161.651 1073.54 161.762 1073.54 161.873 1073.53 161.984M1068.76 162.122C1068.78 163.344 1069.39 164.258 1070.37 164.243 1071.28 164.229 1071.9 163.323 1071.88 162.049 1071.87 161.06 1071.41 159.936 1070.32 159.949 1069.19 159.966 1068.75 161.065 1068.76 162.118" id="Path_649962" fill="#022A3A" transform="translate(334 74)"/><path d="M1075.47 160.594C1075.37 159.872 1075.28 159.268 1075.17 158.731L1076.56 158.547 1076.76 159.478 1076.8 159.472C1077.13 158.723 1077.84 158.209 1078.66 158.125 1079.76 157.979 1080.98 158.538 1081.24 160.525L1081.74 164.251 1080.15 164.461 1079.68 160.915C1079.56 160.015 1079.14 159.374 1078.27 159.489 1077.71 159.577 1077.26 160.016 1077.16 160.581 1077.13 160.755 1077.13 160.931 1077.16 161.105L1077.65 164.793 1076.05 165.005Z" id="Path_649963" fill="#022A3A" transform="translate(334 74)"/><path d="M1094.08 157.179C1093.67 156.123 1093.18 154.849 1092.81 153.723L1092.78 153.735C1092.84 154.835 1092.88 156.074 1092.85 157.246L1092.85 161.246 1091.68 161.637 1089.38 158.457C1088.7 157.504 1088.03 156.468 1087.46 155.507L1087.43 155.515C1087.76 156.615 1088.15 157.948 1088.47 159.103L1089.4 162.503 1087.98 162.977 1085.76 154.482 1087.76 153.814 1089.96 156.793C1090.58 157.668 1091.17 158.568 1091.69 159.422L1091.72 159.41C1091.65 158.436 1091.59 157.318 1091.58 156.237L1091.62 152.525 1093.59 151.865 1096.85 160.015 1095.37 160.509Z" id="Path_649964" fill="#022A3A" transform="translate(334 74)"/><path d="M1102.67 157.2 1102.27 156.617 1102.23 156.634C1102.07 157.335 1101.59 157.92 1100.93 158.222 1100.03 158.736 1098.88 158.422 1098.37 157.52 1098.35 157.486 1098.33 157.451 1098.32 157.416 1097.61 155.984 1098.52 154.633 1100.62 153.607L1100.57 153.514C1100.38 153.141 1099.93 152.599 1098.93 153.095 1098.39 153.362 1097.94 153.768 1097.61 154.27L1096.87 153.477C1097.33 152.823 1097.95 152.3 1098.67 151.961 1099.77 151.253 1101.23 151.571 1101.94 152.67 1102.04 152.832 1102.13 153.006 1102.19 153.188L1103.2 155.238C1103.42 155.697 1103.68 156.139 1103.96 156.56ZM1101.11 154.521C1100.09 155 1099.23 155.699 1099.66 156.561 1099.82 156.993 1100.31 157.206 1100.74 157.038 1100.79 157.02 1100.83 156.998 1100.88 156.972 1101.38 156.732 1101.68 156.194 1101.6 155.639 1101.59 155.521 1101.55 155.407 1101.5 155.301Z" id="Path_649965" fill="#022A3A" transform="translate(334 74)"/><path d="M1105.43 154.023C1106 153.997 1106.55 153.835 1107.05 153.549 1107.65 153.177 1107.76 152.77 1107.54 152.417 1107.31 152.064 1106.97 152.002 1106.16 152.184 1104.89 152.474 1104.09 152.175 1103.71 151.54 1103.14 150.516 1103.51 149.227 1104.54 148.66 1104.59 148.633 1104.64 148.608 1104.69 148.585 1105.17 148.271 1105.73 148.077 1106.31 148.018L1106.64 149.142C1106.17 149.163 1105.72 149.301 1105.31 149.542 1104.83 149.842 1104.71 150.242 1104.91 150.572 1105.12 150.902 1105.48 150.921 1106.32 150.737 1107.51 150.484 1108.27 150.699 1108.78 151.486 1109.38 152.457 1109.06 153.638 1107.64 154.526 1107.08 154.89 1106.44 155.11 1105.78 155.169Z" id="Path_649966" fill="#022A3A" transform="translate(334 74)"/><path d="M1108.25 144.1 1109.33 145.549 1110.55 144.64 1111.27 145.599 1110.05 146.508 1111.72 148.748C1112.18 149.363 1112.58 149.562 1113.07 149.197 1113.24 149.073 1113.4 148.927 1113.53 148.762L1114.28 149.725C1114.05 150.042 1113.77 150.319 1113.44 150.542 1113.05 150.868 1112.53 151.015 1112.03 150.948 1111.42 150.77 1110.9 150.369 1110.57 149.826L1108.8 147.439 1108.07 147.983 1107.35 147.024 1108.08 146.481 1107.23 145.334Z" id="Path_649967" fill="#022A3A" transform="translate(334 74)"/><path d="M1115.02 145.614C1115.68 146.296 1116.77 146.312 1117.46 145.651 1117.49 145.612 1117.53 145.572 1117.57 145.53 1118.02 145.142 1118.4 144.673 1118.68 144.146L1119.59 144.812C1119.25 145.483 1118.78 146.083 1118.21 146.578 1117.09 147.791 1115.19 147.864 1113.98 146.74 1113.86 146.629 1113.75 146.508 1113.65 146.378 1112.38 145.195 1112.32 143.212 1113.5 141.948 1113.56 141.889 1113.61 141.833 1113.67 141.778 1115.2 140.406 1116.83 141.213 1117.76 142.248 1117.92 142.415 1118.05 142.594 1118.18 142.785ZM1116.35 142.924C1115.92 142.301 1115.08 142.138 1114.45 142.559 1114.41 142.587 1114.37 142.617 1114.33 142.65 1113.76 143.235 1113.73 144.166 1114.28 144.782Z" id="Path_649968" fill="#022A3A" transform="translate(334 74)"/><path d="M1118.51 140.171C1117.88 139.587 1117.42 139.18 1116.98 138.819L1117.92 137.801 1118.84 138.586 1118.88 138.547C1118.47 137.853 1118.54 136.975 1119.07 136.361 1119.15 136.267 1119.25 136.183 1119.35 136.111L1120.45 137.138C1120.32 137.227 1120.2 137.33 1120.1 137.445 1119.6 137.956 1119.56 138.76 1120.01 139.316 1120.1 139.45 1120.21 139.576 1120.33 139.69L1122.73 141.921 1121.65 143.091Z" id="Path_649969" fill="#022A3A" transform="translate(334 74)"/><path d="M1121.23 133.988 1124.62 135.147C1125.01 135.281 1125.47 135.471 1125.82 135.621L1125.84 135.59C1125.61 135.29 1125.31 134.908 1125.06 134.561L1122.97 131.718 1124.02 130.357 1126.48 134.244C1127.83 136.377 1128.3 137.483 1128.36 138.477 1128.42 139.11 1128.29 139.747 1127.99 140.306L1126.69 139.772C1126.83 139.451 1126.91 139.107 1126.91 138.759 1126.93 138.311 1126.84 137.865 1126.65 137.459 1126.62 137.362 1126.56 137.274 1126.49 137.202 1126.4 137.139 1126.3 137.099 1126.19 137.084L1120.17 135.384Z" id="Path_649970" fill="#022A3A" transform="translate(334 74)"/><path d="M994.554 69.484 993.954 71.907 992.654 71.583 994.254 65.16 995.554 65.484 994.944 67.932 1002.15 69.727 1001.76 71.279Z" id="Path_649971" fill="#022A3A" transform="translate(334 74)"/><path d="M1001.55 57.517C1004.3 58.544 1005.25 60.799 1004.4 63.063 1003.54 65.377 1001.23 66.178 998.815 65.279 996.294 64.338 995.108 62.09 995.972 59.779 996.872 57.379 999.209 56.647 1001.55 57.52M999.381 63.69C1001.05 64.313 1002.69 63.968 1003.23 62.532 1003.76 61.096 1002.73 59.767 1001.02 59.125 999.47 58.548 997.723 58.77 997.163 60.267 996.603 61.764 997.689 63.057 999.381 63.69" id="Path_649972" fill="#022A3A" transform="translate(334 74)"/><path d="M1005 55.084 1006.85 56.908 1006.08 58.369 999.632 51.8 1000.58 49.994 1009.66 51.557 1008.86 53.076 1006.3 52.621ZM1005.1 52.3 1002.87 51.9C1002.32 51.8 1001.72 51.65 1001.21 51.528L1001.2 51.551C1001.59 51.902 1002.07 52.302 1002.46 52.683L1004.06 54.283Z" id="Path_649973" fill="#022A3A" transform="translate(334 74)"/><path d="M1009.02 49.384C1009.69 49.05 1010.25 48.5549 1010.67 47.944 1011.25 47.094 1011.17 46.351 1010.58 45.95 1010.03 45.578 1009.46 45.725 1008.5 46.424 1007.26 47.324 1006.11 47.66 1005.07 46.952 1003.88 46.152 1003.65 44.552 1004.72 42.977 1005.11 42.3643 1005.64 41.8525 1006.26 41.483L1007.11 42.527C1006.58 42.8164 1006.12 43.2314 1005.79 43.736 1005.22 44.574 1005.42 45.246 1005.84 45.531 1006.4 45.91 1006.94 45.666 1007.98 44.953 1009.3 44.015 1010.35 43.832 1011.4 44.54 1012.56 45.327 1012.97 46.895 1011.7 48.767 1011.25 49.4498 1010.64 50.0158 1009.92 50.419Z" id="Path_649974" fill="#022A3A" transform="translate(334 74)"/><path d="M1009.9 38.538 1008.31 40.463 1007.28 39.611 1011.49 34.511 1012.52 35.363 1010.92 37.308 1016.65 42.03 1015.63 43.264Z" id="Path_649975" fill="#022A3A" transform="translate(334 74)"/><path d="M1022.05 31.5C1021.24 30.706 1020.27 29.749 1019.47 28.872L1019.45 28.898C1019.96 29.875 1020.5 30.99 1020.96 32.065L1022.61 35.716 1021.7 36.555 1018.3 34.604C1017.29 34.014 1016.25 33.348 1015.34 32.704L1015.32 32.722C1016.07 33.587 1016.97 34.643 1017.74 35.565L1019.99 38.282 1018.89 39.298 1013.36 32.473 1014.91 31.041 1018.14 32.848C1019.07 33.39 1019.98 33.967 1020.8 34.532L1020.83 34.505C1020.36 33.65 1019.84 32.656 1019.39 31.672L1017.89 28.272 1019.42 26.858 1025.74 32.942 1024.6 34.002Z" id="Path_649976" fill="#022A3A" transform="translate(334 74)"/><path d="M1027.21 28.883 1028.01 31.353 1026.66 32.296 1023.96 23.502 1025.63 22.335 1032.97 27.896 1031.57 28.878 1029.5 27.294ZM1028.58 26.458 1026.78 25.081C1026.33 24.741 1025.88 24.331 1025.48 23.99L1025.46 24.005C1025.64 24.495 1025.88 25.071 1026.05 25.587L1026.73 27.743Z" id="Path_649977" fill="#022A3A" transform="translate(334 74)"/><path d="M1033.44 25.659C1034.18 25.6685 1034.91 25.4911 1035.57 25.143 1036.47 24.655 1036.74 23.96 1036.41 23.331 1036.09 22.749 1035.52 22.616 1034.34 22.793 1032.83 23.022 1031.65 22.786 1031.05 21.678 1030.37 20.421 1030.9 18.892 1032.57 17.99 1033.2 17.6265 1033.91 17.4165 1034.63 17.377L1034.9 18.694C1034.3 18.7043 1033.7 18.8633 1033.17 19.157 1032.28 19.638 1032.15 20.328 1032.39 20.774 1032.71 21.368 1033.31 21.402 1034.55 21.246 1036.16 21.026 1037.18 21.346 1037.78 22.456 1038.44 23.691 1038.09 25.272 1036.1 26.347 1035.38 26.7429 1034.58 26.9639 1033.76 26.992Z" id="Path_649978" fill="#022A3A" transform="translate(334 74)"/><path d="M1039.25 16.417 1036.94 17.375 1036.43 16.138 1042.54 13.599 1043.05 14.835 1040.72 15.803 1043.57 22.66 1042.09 23.274Z" id="Path_649979" fill="#022A3A" transform="translate(334 74)"/><path d="M1050.74 16.152 1047.58 17.106 1048.32 19.571 1051.86 18.505 1052.24 19.762 1047.17 21.29 1044.64 12.898 1049.52 11.427 1049.9 12.684 1046.55 13.694 1047.2 15.86 1050.36 14.907Z" id="Path_649980" fill="#022A3A" transform="translate(334 74)"/><path d="M1052.25 10.878C1053.01 10.6057 1053.8 10.395 1054.59 10.248 1055.51 9.97811 1056.5 10.0437 1057.38 10.433 1057.96 10.7728 1058.35 11.3544 1058.45 12.016 1058.63 12.9951 1058.17 13.9802 1057.3 14.471L1057.31 14.509C1058.02 14.7058 1058.59 15.242 1058.82 15.941 1059.15 16.7252 1059.52 17.4849 1059.96 18.214L1058.33 18.522C1057.96 17.9106 1057.64 17.2675 1057.37 16.6 1056.92 15.523 1056.44 15.242 1055.54 15.387L1054.75 15.537 1055.42 19.075 1053.86 19.375ZM1054.53 14.388 1055.46 14.211C1056.53 14.011 1057.08 13.321 1056.92 12.466 1056.74 11.52 1055.99 11.212 1054.97 11.407 1054.64 11.4592 1054.32 11.5463 1054.02 11.667Z" id="Path_649981" fill="#022A3A" transform="translate(334 74)"/><path d="M1061.27 16.329C1061.95 16.6352 1062.69 16.7668 1063.43 16.712 1064.45 16.628 1064.98 16.101 1064.93 15.389 1064.87 14.728 1064.4 14.376 1063.25 14.066 1061.77 13.666 1060.79 12.978 1060.69 11.721 1060.57 10.296 1061.67 9.11 1063.56 8.954 1064.28 8.87403 1065.02 8.96551 1065.7 9.221L1065.41 10.536C1064.85 10.3021 1064.25 10.2091 1063.64 10.265 1062.63 10.348 1062.24 10.928 1062.28 11.433 1062.33 12.107 1062.86 12.376 1064.07 12.733 1065.63 13.178 1066.43 13.881 1066.54 15.133 1066.65 16.533 1065.69 17.833 1063.44 18.023 1062.62 18.0974 1061.8 17.9775 1061.04 17.673Z" id="Path_649982" fill="#022A3A" transform="translate(334 74)"/><rect x="0" y="0" width="8.759" height="1.599" id="Rectangle_18864" fill="#022A3A" transform="matrix(0.0387017 -0.999251 0.999251 0.0387017 1405.65 91.642)"/><path d="M1075.4 17.765 1076.54 9.075 1078.34 9.312 1080.1 13.333C1080.53 14.343 1080.9 15.3818 1081.2 16.442L1081.22 16.442C1081.27 15.268 1081.38 14.142 1081.55 12.813L1081.95 9.783 1083.42 9.976 1082.28 18.667 1080.64 18.451 1078.88 14.337C1078.43 13.2898 1078.04 12.2185 1077.71 11.128L1077.67 11.136C1077.59 12.266 1077.45 13.415 1077.26 14.846L1076.85 17.953Z" id="Path_649983" fill="#022A3A" transform="translate(334 74)"/><path d="M1087.78 12.336 1085.36 11.727 1085.69 10.427 1092.1 12.043 1091.78 13.343 1089.33 12.728 1087.52 19.928 1085.97 19.538Z" id="Path_649984" fill="#022A3A" transform="translate(334 74)"/><path d="M1097.16 18.993 1094.06 17.865 1093.18 20.285 1096.65 21.546 1096.2 22.781 1091.23 20.973 1094.22 12.736 1099.01 14.476 1098.56 15.711 1095.27 14.511 1094.5 16.638 1097.6 17.766Z" id="Path_649985" fill="#022A3A" transform="translate(334 74)"/><path d="M1101.56 15.689C1102.33 15.9291 1103.09 16.23 1103.81 16.589 1104.71 16.925 1105.46 17.5692 1105.93 18.407 1106.19 19.0242 1106.16 19.7249 1105.84 20.314 1105.39 21.2045 1104.44 21.7165 1103.45 21.59L1103.43 21.625C1103.88 22.2088 1104.02 22.9778 1103.79 23.679 1103.58 24.5004 1103.42 25.3359 1103.33 26.179L1101.85 25.454C1101.92 24.7399 1102.04 24.033 1102.23 23.341 1102.51 22.206 1102.3 21.696 1101.49 21.273L1100.77 20.92 1099.19 24.153 1097.77 23.453ZM1101.28 19.864 1102.14 20.281C1102.82 20.7631 1103.77 20.5995 1104.25 19.9156 1104.28 19.8642 1104.32 19.8105 1104.35 19.755 1104.77 18.891 1104.35 18.198 1103.42 17.741 1103.13 17.5871 1102.82 17.4653 1102.5 17.378Z" id="Path_649986" fill="#022A3A" transform="translate(334 74)"/><path d="M1104.59 26.881 1109.35 19.528 1110.88 20.517 1110.73 24.899C1110.7 25.9982 1110.58 27.0934 1110.39 28.177L1110.42 28.192C1110.96 27.153 1111.55 26.183 1112.27 25.059L1113.93 22.495 1115.18 23.295 1110.42 30.649 1109.03 29.749 1109.2 25.277C1109.25 24.1385 1109.35 23.0034 1109.53 21.877L1109.49 21.867C1108.93 22.851 1108.31 23.829 1107.53 25.04L1105.82 27.669Z" id="Path_649987" fill="#022A3A" transform="translate(334 74)"/><path d="M1115.02 31.151 1112.85 32.586 1111.58 31.536 1119.32 26.565 1120.9 27.865 1117.52 36.433 1116.19 35.341 1117.16 32.922ZM1117.72 31.815 1118.56 29.715C1118.77 29.197 1119.04 28.645 1119.26 28.171L1119.24 28.155C1118.81 28.463 1118.33 28.855 1117.88 29.155L1115.98 30.389Z" id="Path_649988" fill="#022A3A" transform="translate(334 74)"/><path d="M1124.3 32.856 1122.55 31.072 1123.51 30.135 1128.14 34.865 1127.18 35.802 1125.42 34 1120.11 39.193 1118.99 38.05Z" id="Path_649989" fill="#022A3A" transform="translate(334 74)"/><rect x="0" y="0" width="8.761" height="1.598" id="Rectangle_18865" fill="#022A3A" transform="matrix(0.767 -0.642 0.642 0.767 1456.71 116.052)"/><path d="M1133.23 48.791C1130.81 50.454 1128.42 49.935 1127.05 47.942 1125.65 45.907 1126.32 43.555 1128.44 42.099 1130.66 40.577 1133.18 40.899 1134.58 42.931 1136.03 45.041 1135.29 47.379 1133.23 48.791M1129.42 43.477C1127.95 44.484 1127.3 46.025 1128.16 47.289 1129.03 48.553 1130.71 48.473 1132.22 47.435 1133.58 46.501 1134.4 44.944 1133.5 43.626 1132.59 42.308 1130.91 42.455 1129.42 43.477" id="Path_649990" fill="#022A3A" transform="translate(334 74)"/><path d="M1130.33 52.736 1138.15 48.777 1138.97 50.4 1136.64 54.116C1136.05 55.0462 1135.4 55.9352 1134.69 56.777L1134.71 56.8C1135.71 56.179 1136.69 55.633 1137.89 55.028L1140.61 53.647 1141.28 54.969 1133.47 58.929 1132.72 57.456 1135.12 53.676C1135.73 52.7158 1136.4 51.7904 1137.11 50.904L1137.08 50.875C1136.1 51.444 1135.08 51.975 1133.79 52.631L1130.99 54.047Z" id="Path_649991" fill="#022A3A" transform="translate(334 74)"/><path d="M1137.21 61.685 1134.62 61.808 1134.06 60.254 1143.25 59.954 1143.94 61.876 1136.65 67.497 1136.07 65.882 1138.14 64.302ZM1139.19 63.641 1140.99 62.268C1141.43 61.93 1141.95 61.595 1142.38 61.302L1142.37 61.277C1141.85 61.325 1141.23 61.408 1140.69 61.435L1138.43 61.524Z" id="Path_649992" fill="#022A3A" transform="translate(334 74)"/><path d="M1145.52 66.945 1145.89 68.501 1138.67 70.217 1139.5 73.717 1138.2 74.027 1137 68.967Z" id="Path_649993" fill="#022A3A" transform="translate(334 74)"/><path d="M1127.54 88.245C1127.54 120.21 1101.62 146.122 1069.66 146.123 1037.69 146.124 1011.78 120.212 1011.78 88.247 1011.78 56.2824 1037.69 30.3696 1069.66 30.369 1069.66 30.369 1069.66 30.369 1069.66 30.369 1101.62 30.369 1127.54 56.281 1127.54 88.245" id="Path_649994" fill="#FFFFFF" transform="translate(334 74)"/><path d="M1069.66 30.369C1037.69 30.3741 1011.78 56.2942 1011.78 88.2632 1011.79 99.7866 1015.23 111.047 1021.67 120.603 1022.08 119.676 1022.53 118.771 1023.04 117.893 1022.78 117.436 1022.52 116.977 1022.29 116.5 1020.9 113.633 1021.41 110.204 1023.58 107.872L1058.12 70.535C1055.92 56.9068 1065.14 44.0581 1078.76 41.8 1092.48 39.4599 1105.5 48.6825 1107.84 62.3991 1110.18 76.1157 1100.95 89.1323 1087.24 91.4723 1086.87 91.5351 1086.5 91.5897 1086.13 91.636 1085.08 91.7642 1084.02 91.8287 1082.97 91.829 1081.71 91.8294 1080.45 91.7352 1079.2 91.547L1040.8 126.161C1038.83 127.935 1036.01 128.397 1033.58 127.345L1033.57 127.339C1033.32 128.073 1033.21 128.849 1033.26 129.623 1033.32 130.38 1033.64 131.555 1035.52 133.012 1039.09 135.77 1042.48 132.08 1043.6 130.867 1044.11 130.309 1044.62 129.767 1045.16 129.237L1067.3 107.337C1073.96 100.79 1084.61 100.731 1091.35 107.203L1091.59 107.444C1100.1 115.953 1096.41 126.551 1091.86 131.604 1089.36 134.382 1085.09 134.607 1082.31 132.107 1079.53 129.607 1079.31 125.329 1081.8 122.551 1083.53 120.506 1083.64 118.628 1082.05 117.04L1081.9 116.892C1080.46 115.536 1078.21 115.566 1076.81 116.958L1054.68 138.851C1054.3 139.231 1053.92 139.631 1053.55 140.03 1052.61 141.052 1051.59 141.998 1050.5 142.86 1080.66 153.44 1113.69 137.564 1124.27 107.401 1134.85 77.2379 1118.97 44.2095 1088.81 33.63 1082.66 31.471 1076.18 30.3681 1069.66 30.368" id="Path_649995" fill="#022A3A" transform="translate(334 74)"/><path d="M1065.4 72.212C1062.36 62.502 1067.76 52.1646 1077.47 49.1228 1087.18 46.081 1097.52 51.4866 1100.56 61.1966 1103.6 70.9066 1098.2 81.244 1088.49 84.2858 1084.91 85.4064 1081.08 85.4092 1077.5 84.294Z" id="Path_649996" fill="#772432" transform="translate(334 74)"/><path d="M1065.4 72.212C1062.36 62.502 1067.76 52.1646 1077.47 49.1228 1087.18 46.081 1097.52 51.4866 1100.56 61.1966 1103.6 70.9066 1098.2 81.244 1088.49 84.2858 1084.91 85.4064 1081.08 85.4092 1077.5 84.294Z" id="Path_649997" stroke="#F2DF74" stroke-width="2" stroke-linecap="round" fill="none" transform="translate(334 74)"/><path d="M1028.39 113.625 1028.39 113.625C1030.02 117.014 1032.82 119.702 1036.27 121.197L1077.35 84.163 1065.63 72.444 1028.55 112.528C1028.27 112.826 1028.21 113.263 1028.39 113.628" id="Path_649998" fill="#772432" transform="translate(334 74)"/><path d="M1028.39 113.625 1028.39 113.625C1030.02 117.014 1032.82 119.702 1036.27 121.197L1077.35 84.163 1065.63 72.444 1028.55 112.528C1028.28 112.825 1028.21 113.26 1028.39 113.625Z" id="Path_649999" stroke="#F2DF74" stroke-width="2" stroke-linecap="round" stroke-linejoin="round" fill="none" transform="translate(334 74)"/><line x1="0" y1="0" x2="11.034" y2="11.034" id="Line_621" fill="#772432" transform="translate(1393.66 153.014)"/><line x1="0" y1="0" x2="11.034" y2="11.034" id="Line_622" stroke="#F2DF74" stroke-width="2" stroke-linecap="round" fill="none" transform="translate(1393.66 153.014)"/><path d="M1031.38 117.855C1031.38 117.855 1020.34 129.884 1031.38 138.424 1039.3 144.548 1046.64 137.614 1048.58 135.508 1049.02 135.032 1049.46 134.559 1049.92 134.108L1072.06 112.216C1076.08 108.221 1082.55 108.176 1086.63 112.116 1086.7 112.183 1086.77 112.252 1086.84 112.323 1093.86 119.343 1086.84 127.143 1086.84 127.143" id="Path_650000" stroke="#F2DF74" stroke-width="2" stroke-linecap="round" fill="none" transform="translate(334 74)"/><path d="M998.3 87.384C998.302 88.7023 997.234 89.7723 995.916 89.774 994.598 89.7757 993.528 88.7083 993.526 87.39 993.524 86.0717 994.592 85.0017 995.91 85 997.228 85 998.297 86.0687 998.297 87.387" id="Path_650001" fill="#772432" transform="translate(334 74)"/><path d="M1145.79 87.384C1145.8 88.7023 1144.73 89.7723 1143.41 89.774 1142.09 89.7757 1141.02 88.7083 1141.02 87.39 1141.02 86.0717 1142.09 85.0017 1143.4 85 1143.4 85 1143.41 85 1143.41 85 1144.73 85 1145.79 86.0687 1145.79 87.387" id="Path_650002" fill="#772432" transform="translate(334 74)"/></g></svg>