<svg width="174.993" height="174.993" viewBox="0 0 174.993 174.993" xmlns="http://www.w3.org/2000/svg" xmlns:xlink="http://www.w3.org/1999/xlink" overflow="hidden"><g id="pathways-badge-visionary-communication" transform="translate(-1630.75 -100.658)"><path d="M173.769 87.384C173.769 135.093 135.094 173.768 87.385 173.768 39.6764 173.768 1.00099 135.093 1.00099 87.384 1.00099 39.6754 39.6764 1 87.385 1 135.093 1.00056 173.768 39.6751 173.769 87.383" id="Path_652861" fill="#FFFFFF" transform="translate(1630.86 100.77)"/><path d="M86.385 0C134.094-1.42109e-14 172.77 38.6759 172.77 86.385 172.77 134.094 134.094 172.77 86.385 172.77 38.6759 172.77 2.13623e-06 134.094 2.13623e-06 86.385 2.13623e-06 38.6759 38.6759 2.13623e-06 86.385 2.13623e-06Z" id="Path_653923" stroke="#81CAA0" stroke-width="2" fill="none" transform="matrix(0.999999 -0.00127409 0.00127409 0.999999 1631.75 101.88)"/><path d="M22.254 123.365 28.803 116.885 29.588 118.44 26.574 121.3C25.739 122.1 24.951 122.818 24.105 123.508L24.116 123.531C25.15 123.271 26.243 123.069 27.354 122.902L31.504 122.236 32.272 123.757 23.08 125Z" id="Path_652862" fill="#003042" transform="translate(1630.86 100.77)"/><path d="M25.346 129.043 30.726 125.713 31.573 127.084 26.193 130.413ZM33.124 126.231C32.7301 126.483 32.2062 126.368 31.9539 125.975 31.9403 125.953 31.9277 125.931 31.916 125.909 31.6527 125.528 31.7483 125.005 32.1295 124.742 32.1463 124.73 32.1635 124.719 32.181 124.709 32.6262 124.488 33.1663 124.67 33.3873 125.115 33.5796 125.503 33.4691 125.972 33.124 126.233" id="Path_652863" fill="#003042" transform="translate(1630.86 100.77)"/><path d="M28.769 131.689C28.8341 132.256 29.0348 132.799 29.354 133.272 29.766 133.84 30.181 133.925 30.518 133.681 30.855 133.437 30.892 133.089 30.655 132.297 30.278 131.045 30.52 130.227 31.127 129.803 32.1094 129.167 33.4214 129.448 34.0573 130.43 34.0874 130.477 34.1157 130.524 34.142 130.573 34.4888 131.039 34.7216 131.58 34.822 132.152L33.722 132.563C33.6681 132.096 33.4995 131.649 33.231 131.263 32.895 130.8 32.492 130.708 32.175 130.937 31.858 131.166 31.867 131.53 32.108 132.35 32.5275 133.217 32.2875 134.26 31.531 134.856 30.605 135.527 29.405 135.289 28.42 133.931 28.0182 133.397 27.7534 132.773 27.649 132.113Z" id="Path_652864" fill="#003042" transform="translate(1630.86 100.77)"/><path d="M31.462 137.675 36.3 133.6 37.34 134.831 32.5 138.906ZM38.748 133.757C38.3787 134.09 37.8096 134.06 37.4769 133.691 37.1442 133.321 37.1739 132.752 37.5432 132.42 37.9125 132.087 38.4815 132.117 38.8142 132.486 38.8216 132.494 38.8289 132.503 38.836 132.511 39.1579 132.85 39.1442 133.385 38.8056 133.707 38.7871 133.725 38.7679 133.741 38.748 133.757" id="Path_652865" fill="#003042" transform="translate(1630.86 100.77)"/><path d="M40.835 142.943C39.7098 144.26 37.7303 144.415 36.4136 143.29 36.3231 143.213 36.2371 143.13 36.156 143.043 34.9122 141.897 34.8326 139.96 35.9784 138.716 36.0512 138.637 36.1282 138.562 36.209 138.491 37.3328 137.18 39.3062 137.029 40.6169 138.153 40.7158 138.237 40.8094 138.328 40.897 138.425 42.1306 139.561 42.2095 141.483 41.0731 142.716 40.998 142.798 40.9185 142.875 40.835 142.948M37.407 139.629C36.545 140.495 36.317 141.571 37.007 142.259 37.652 142.901 38.736 142.714 39.635 141.812 40.335 141.112 40.816 139.997 40.043 139.227 39.243 138.427 38.143 138.882 37.405 139.627" id="Path_652866" fill="#003042" transform="translate(1630.86 100.77)"/><path d="M43.183 143.368C43.634 142.797 44.003 142.308 44.311 141.856L45.411 142.726 44.884 143.519 44.915 143.544C45.6836 143.259 46.546 143.408 47.174 143.935 48.041 144.62 48.496 145.89 47.256 147.463L44.928 150.412 43.672 149.422 45.888 146.614C46.452 145.899 46.614 145.149 45.929 144.609 45.4705 144.265 44.8438 144.249 44.369 144.571 44.2257 144.673 44.0998 144.797 43.996 144.939L41.696 147.858 40.43 146.858Z" id="Path_652867" fill="#003042" transform="translate(1630.86 100.77)"/><path d="M50.286 153.9 50.568 153.25 50.535 153.228C49.8514 153.455 49.1013 153.355 48.501 152.957 47.5897 152.462 47.2524 151.322 47.7476 150.41 47.7666 150.375 47.7868 150.341 47.808 150.307 48.653 148.95 50.281 149.015 52.26 150.262L52.314 150.173C52.534 149.82 52.755 149.146 51.806 148.556 51.2966 148.242 50.7125 148.069 50.114 148.056L50.398 147.008C51.1953 147.053 51.9668 147.306 52.636 147.742 53.8162 148.304 54.3172 149.717 53.7551 150.897 53.672 151.071 53.5678 151.235 53.445 151.384L52.236 153.325C51.961 153.752 51.7186 154.2 51.511 154.664ZM51.744 151.165C50.798 150.545 49.752 150.185 49.244 151.001 48.9655 151.371 49.04 151.897 49.4103 152.176 49.4498 152.206 49.4919 152.232 49.536 152.254 50.0061 152.559 50.6196 152.527 51.055 152.174 51.145 152.096 51.2226 152.005 51.285 151.904Z" id="Path_652868" fill="#003042" transform="translate(1630.86 100.77)"/><path d="M55.756 152.068C56.141 151.3 56.403 150.748 56.625 150.218L57.869 150.842 57.369 151.947 57.416 151.97C57.9669 151.38 58.8319 151.206 59.568 151.537 59.6824 151.591 59.7902 151.658 59.889 151.737L59.212 153.085C59.088 152.986 58.954 152.9 58.812 152.829 58.1812 152.493 57.3988 152.682 56.991 153.269 56.8892 153.4 56.7995 153.54 56.723 153.687L55.254 156.618 53.824 155.901Z" id="Path_652869" fill="#003042" transform="translate(1630.86 100.77)"/><path d="M62.431 152.951 62.27 156.526C62.25 156.936 62.198 157.432 62.151 157.805L62.187 157.818C62.415 157.518 62.694 157.123 62.953 156.777L65.096 153.984 66.696 154.605 63.657 158.054C61.99 159.944 61.064 160.714 60.126 161.047 59.536 161.283 58.8892 161.337 58.268 161.204L58.417 159.812C58.7628 159.854 59.1135 159.829 59.45 159.739 59.8847 159.63 60.2867 159.418 60.622 159.121 60.7063 159.062 60.7749 158.983 60.822 158.892 60.8576 158.788 60.8672 158.677 60.85 158.568L60.794 152.316Z" id="Path_652870" fill="#003042" transform="translate(1630.86 100.77)"/><path d="M76.024 163.127C75.2598 163.26 74.4763 163.231 73.724 163.042 71.4568 162.759 69.848 160.692 70.1307 158.425 70.1568 158.215 70.1991 158.007 70.257 157.804 70.6338 155.398 72.8894 153.754 75.2951 154.13 75.4654 154.157 75.634 154.194 75.8 154.24 76.5209 154.365 77.2059 154.646 77.807 155.063L77.2 156.237C76.7167 155.899 76.1684 155.666 75.59 155.552 74.0342 155.13 72.4305 156.048 72.0081 157.604 71.9662 157.758 71.9371 157.915 71.921 158.074 71.4381 159.588 72.2738 161.206 73.7876 161.689 73.9414 161.738 74.0991 161.774 74.259 161.797 74.8409 161.929 75.4435 161.944 76.031 161.839Z" id="Path_652871" fill="#003042" transform="translate(1630.86 100.77)"/><path d="M84.479 161.023C84.4478 162.755 83.0183 164.134 81.2861 164.103 81.1687 164.101 81.0514 164.092 80.935 164.077 79.2479 163.987 77.9531 162.547 78.0429 160.86 78.0486 160.752 78.06 160.645 78.077 160.539 78.1063 158.814 79.5281 157.44 81.2526 157.47 81.3839 157.472 81.515 157.482 81.645 157.501 83.3188 157.59 84.6037 159.019 84.5148 160.693 84.5089 160.803 84.4969 160.914 84.479 161.023M79.724 160.651C79.612 161.867 80.124 162.84 81.093 162.93 81.993 163.013 82.715 162.178 82.831 160.911 82.922 159.927 82.585 158.761 81.498 158.661 80.373 158.561 79.82 159.603 79.724 160.651" id="Path_652872" fill="#003042" transform="translate(1630.86 100.77)"/><path d="M86.6 159.95C86.563 159.223 86.518 158.613 86.452 158.07L87.829 158 87.942 158.931 87.981 158.931C88.3492 158.223 89.0738 157.771 89.872 157.752 90.6441 157.69 91.3712 158.122 91.686 158.83L91.712 158.83C91.8896 158.498 92.1428 158.213 92.451 157.997 92.8102 157.719 93.2496 157.564 93.704 157.555 94.755 157.501 95.857 158.155 95.961 160.185L96.155 163.912 94.596 163.993 94.415 160.5C94.362 159.448 93.965 158.844 93.2 158.883 92.6882 158.927 92.2588 159.287 92.126 159.783 92.0884 159.959 92.0716 160.139 92.076 160.319L92.276 164.111 90.717 164.191 90.528 160.53C90.483 159.646 90.1 159.042 89.36 159.08 88.8226 159.131 88.3787 159.521 88.26 160.048 88.2054 160.217 88.1837 160.395 88.196 160.572L88.389 164.311 86.831 164.392Z" id="Path_652873" fill="#003042" transform="translate(1630.86 100.77)"/><path d="M98.343 159.137C98.183 158.427 98.035 157.837 97.876 157.31L99.221 157.01 99.49 157.91 99.529 157.901C99.7717 157.14 100.409 156.571 101.193 156.417 101.943 156.226 102.732 156.528 103.162 157.171L103.188 157.166C103.307 156.809 103.507 156.485 103.774 156.22 104.081 155.885 104.487 155.658 104.933 155.572 105.96 155.339 107.157 155.801 107.606 157.78L108.429 161.418 106.907 161.763 106.135 158.352C105.903 157.325 105.41 156.796 104.662 156.966 104.166 157.098 103.807 157.526 103.762 158.037 103.755 158.217 103.769 158.397 103.804 158.574L104.641 162.274 103.119 162.618 102.311 159.041C102.116 158.18 101.636 157.649 100.911 157.812 100.392 157.955 100.024 158.415 99.996 158.952 99.9713 159.128 99.9804 159.307 100.023 159.479L100.849 163.131 99.327 163.475Z" id="Path_652874" fill="#003042" transform="translate(1630.86 100.77)"/><path d="M115.9 156.612C116.17 157.312 116.418 157.888 116.628 158.365L115.318 158.865 114.9 158 114.876 158.009C114.73 158.823 114.157 159.494 113.376 159.766 112.297 160.18 111.068 159.915 110.328 157.985L109 154.514 110.492 153.942 111.725 157.156C112.102 158.139 112.66 158.649 113.448 158.346 113.95 158.14 114.279 157.651 114.281 157.108 114.279 156.94 114.248 156.773 114.189 156.615L112.821 153.049 114.313 152.475Z" id="Path_652875" fill="#003042" transform="translate(1630.86 100.77)"/><path d="M117.162 153.242C116.824 152.597 116.526 152.063 116.238 151.598L117.48 150.944 117.992 151.744 118.026 151.725C118.08 150.909 118.566 150.184 119.301 149.825 120.278 149.31 121.624 149.41 122.557 151.181L124.309 154.507 122.893 155.252 121.227 152.088C120.803 151.282 120.184 150.83 119.412 151.236 118.911 151.515 118.642 152.081 118.743 152.645 118.778 152.818 118.841 152.984 118.928 153.137L120.66 156.427 119.234 157.178Z" id="Path_652876" fill="#003042" transform="translate(1630.86 100.77)"/><path d="M123.639 145.325C123.921 145.734 123.818 146.295 123.408 146.577 122.999 146.859 122.439 146.756 122.157 146.346 121.875 145.937 121.978 145.376 122.387 145.094 122.395 145.089 122.404 145.083 122.412 145.078 122.796 144.803 123.33 144.89 123.605 145.274 123.617 145.291 123.628 145.308 123.639 145.325M126.599 153.054 123.166 147.734 124.521 146.86 127.954 152.18Z" id="Path_652877" fill="#003042" transform="translate(1630.86 100.77)"/><path d="M133.741 147.72C133.424 148.246 133.005 148.703 132.51 149.066 131.253 150.18 129.331 150.065 128.217 148.808 128.124 148.704 128.039 148.593 127.961 148.476 126.816 147.078 127.021 145.017 128.418 143.871 128.514 143.793 128.614 143.72 128.718 143.653 129.137 143.327 129.617 143.089 130.13 142.953L130.63 144.078C130.224 144.173 129.845 144.356 129.518 144.615 128.658 145.352 128.559 146.647 129.296 147.507 129.974 148.297 131.136 148.455 131.999 147.873 132.347 147.615 132.637 147.288 132.852 146.912Z" id="Path_652878" fill="#003042" transform="translate(1630.86 100.77)"/><path d="M138.2 143.979 137.645 143.537 137.616 143.563C137.656 144.283 137.364 144.981 136.824 145.458 136.106 146.209 134.916 146.236 134.165 145.519 134.137 145.492 134.109 145.464 134.083 145.436 132.993 144.267 133.483 142.711 135.2 141.125L135.128 141.048C134.845 140.748 134.251 140.356 133.434 141.119 132.997 141.527 132.677 142.045 132.508 142.619L131.571 142.071C131.821 141.312 132.267 140.633 132.863 140.102 133.712 139.109 135.206 138.992 136.199 139.841 136.346 139.967 136.478 140.111 136.59 140.269L138.151 141.942C138.491 142.319 138.859 142.67 139.251 142.993ZM135.937 141.859C135.092 142.611 134.472 143.527 135.128 144.231 135.413 144.597 135.94 144.662 136.305 144.377 136.345 144.347 136.381 144.313 136.414 144.276 136.83 143.901 136.958 143.301 136.733 142.788 136.681 142.681 136.614 142.583 136.533 142.496Z" id="Path_652879" fill="#003042" transform="translate(1630.86 100.77)"/><path d="M136.169 134.341 137.514 135.548 138.529 134.416 139.42 135.216 138.403 136.348 140.483 138.214C141.055 138.727 141.493 138.841 141.901 138.386 142.043 138.231 142.164 138.057 142.26 137.87L143.187 138.67C143.023 139.026 142.801 139.353 142.53 139.636 142.207 140.033 141.734 140.279 141.223 140.314 140.592 140.26 140.004 139.969 139.577 139.501L137.362 137.513 136.754 138.19 135.864 137.39 136.472 136.713 135.407 135.758Z" id="Path_652880" fill="#003042" transform="translate(1630.86 100.77)"/><path d="M139.25 130.667C139.651 130.961 139.737 131.524 139.443 131.925 139.149 132.326 138.586 132.412 138.185 132.118 137.784 131.824 137.698 131.261 137.992 130.86 137.998 130.852 138.005 130.843 138.011 130.835 138.277 130.45 138.805 130.355 139.19 130.621 139.21 130.635 139.231 130.651 139.25 130.667M144.567 137.007 139.588 133.098 140.588 131.83 145.567 135.739Z" id="Path_652881" fill="#003042" transform="translate(1630.86 100.77)"/><path d="M147.812 126.791C149.328 127.631 149.876 129.54 149.037 131.056 148.98 131.16 148.916 131.26 148.848 131.356 147.977 132.805 146.097 133.274 144.648 132.403 144.555 132.348 144.465 132.287 144.379 132.222 142.868 131.386 142.32 129.483 143.156 127.972 143.22 127.858 143.29 127.748 143.367 127.642 144.232 126.204 146.1 125.74 147.538 126.605 147.633 126.662 147.724 126.724 147.812 126.791M145.251 130.819C146.273 131.489 147.374 131.495 147.908 130.678 148.408 129.917 148.008 128.892 146.939 128.194 146.112 127.652 144.924 127.402 144.325 128.316 143.705 129.262 144.37 130.242 145.251 130.816" id="Path_652882" fill="#003042" transform="translate(1630.86 100.77)"/><path d="M147.755 124.4C147.103 124.076 146.55 123.815 146.043 123.606L146.669 122.348 147.554 122.702 147.571 122.668C147.136 121.973 147.106 121.099 147.492 120.376 147.985 119.386 149.136 118.676 150.929 119.576L154.293 121.252 153.58 122.684 150.38 121.09C149.566 120.683 148.798 120.679 148.409 121.459 148.165 121.978 148.278 122.595 148.691 122.994 148.82 123.113 148.967 123.211 149.127 123.284L152.457 124.943 151.738 126.386Z" id="Path_652883" fill="#003042" transform="translate(1630.86 100.77)"/><path d="M11.915 70.751 11.326 73.177 10.026 72.86 11.588 66.43 12.888 66.746 12.288 69.197 19.502 70.948 19.128 72.5Z" id="Path_652884" fill="#003042" transform="translate(1630.86 100.77)"/><path d="M18.842 58.743C21.601 59.757 22.561 62.008 21.727 64.279 20.874 66.598 18.565 67.412 16.148 66.524 13.622 65.595 12.423 63.354 13.275 61.035 14.159 58.635 16.498 57.882 18.842 58.743M16.708 64.928C18.38 65.542 20.021 65.189 20.55 63.748 21.079 62.307 20.041 60.985 18.32 60.348 16.77 59.779 15.02 60.009 14.471 61.511 13.922 63.013 15.011 64.3 16.708 64.924" id="Path_652885" fill="#003042" transform="translate(1630.86 100.77)"/><path d="M22.271 56.308 24.127 58.12 23.368 59.585 16.884 53.061 17.824 51.251 26.909 52.751 26.119 54.274 23.55 53.835ZM22.352 53.526 20.121 53.144C19.57 53.044 18.973 52.9 18.463 52.783L18.452 52.805C18.841 53.154 19.324 53.55 19.713 53.928L21.313 55.521Z" id="Path_652886" fill="#003042" transform="translate(1630.86 100.77)"/><path d="M26.28 50.547C26.9406 50.2087 27.5059 49.7102 27.924 49.097 28.495 48.243 28.414 47.497 27.824 47.103 27.273 46.735 26.703 46.884 25.747 47.589 24.512 48.499 23.361 48.839 22.312 48.138 21.125 47.338 20.883 45.738 21.938 44.163 22.3268 43.5497 22.8539 43.0359 23.477 42.663L24.33 43.703C23.7989 43.9948 23.3474 44.4123 23.015 44.919 22.451 45.762 22.659 46.434 23.08 46.719 23.641 47.096 24.18 46.848 25.212 46.128 26.534 45.183 27.584 44.993 28.632 45.696 29.798 46.477 30.221 48.042 28.962 49.922 28.5114 50.6079 27.9049 51.1774 27.192 51.584Z" id="Path_652887" fill="#003042" transform="translate(1630.86 100.77)"/><path d="M27.1 39.672 25.515 41.6 24.483 40.748 28.692 35.648 29.725 36.499 28.125 38.445 33.848 43.166 32.832 44.4Z" id="Path_652888" fill="#003042" transform="translate(1630.86 100.77)"/><path d="M39.186 32.6C38.374 31.811 37.393 30.861 36.592 29.99L36.564 30.016C37.085 30.989 37.629 32.1 38.101 33.172L39.77 36.811 38.87 37.657 35.456 35.728C34.444 35.144 33.398 34.486 32.48 33.85L32.461 33.868C33.215 34.729 34.129 35.777 34.901 36.695L37.169 39.395 36.08 40.415 30.51 33.63 32.045 32.189 35.29 33.974C36.22 34.508 37.13 35.074 37.959 35.639L37.988 35.613C37.508 34.76 36.988 33.77 36.532 32.79L35.011 29.405 36.527 27.98 42.893 34.021 41.755 35.088Z" id="Path_652889" fill="#003042" transform="translate(1630.86 100.77)"/><path d="M44.334 29.934 45.153 32.397 43.803 33.351 41.038 24.572 42.705 23.393 50.09 28.907 48.69 29.898 46.608 28.327ZM45.686 27.5 43.876 26.136C43.431 25.798 42.969 25.392 42.57 25.053L42.548 25.067C42.735 25.557 42.982 26.131 43.155 26.646L43.848 28.799Z" id="Path_652890" fill="#003042" transform="translate(1630.86 100.77)"/><path d="M50.514 26.68C51.2557 26.6831 51.9863 26.5002 52.639 26.148 53.539 25.648 53.807 24.954 53.462 24.328 53.143 23.748 52.568 23.619 51.394 23.807 49.879 24.048 48.702 23.822 48.094 22.717 47.405 21.464 47.925 19.932 49.586 19.017 50.2133 18.6491 50.9182 18.4336 51.644 18.388L51.923 19.702C51.3177 19.718 50.7255 19.8818 50.198 20.179 49.309 20.668 49.186 21.36 49.43 21.803 49.756 22.396 50.351 22.424 51.595 22.258 53.203 22.025 54.221 22.34 54.829 23.444 55.507 24.674 55.163 26.258 53.183 27.344 52.4673 27.7455 51.6669 27.9723 50.847 28.006Z" id="Path_652891" fill="#003042" transform="translate(1630.86 100.77)"/><path d="M56.27 17.389 53.97 18.365 53.447 17.133 59.536 14.546 60.059 15.779 57.739 16.764 60.639 23.595 59.167 24.22Z" id="Path_652892" fill="#003042" transform="translate(1630.86 100.77)"/><path d="M67.758 17.035 64.603 18.012 65.364 20.472 68.892 19.38 69.28 20.634 64.225 22.2 61.633 13.828 66.5 12.32 66.889 13.574 63.547 14.609 64.216 16.77 67.371 15.793Z" id="Path_652893" fill="#003042" transform="translate(1630.86 100.77)"/><path d="M69.243 11.738C70.0033 11.4588 70.7848 11.2411 71.58 11.087 72.4999 10.8091 73.4887 10.8669 74.37 11.25 74.9503 11.5843 75.3481 12.1634 75.452 12.825 75.6393 13.803 75.1866 14.7924 74.324 15.29L74.331 15.328C75.0448 15.5189 75.6175 16.0511 75.86 16.749 76.1888 17.5302 76.5738 18.2865 77.012 19.012L75.392 19.334C75.0115 18.7252 74.6846 18.0844 74.415 17.419 73.95 16.345 73.471 16.069 72.573 16.219L71.783 16.375 72.483 19.91 70.926 20.218ZM71.554 15.23 72.486 15.044C73.544 14.834 74.096 14.144 73.926 13.287 73.739 12.343 72.99 12.041 71.969 12.244 71.6423 12.2986 71.3224 12.3885 71.015 12.512Z" id="Path_652894" fill="#003042" transform="translate(1630.86 100.77)"/><path d="M78.307 17.122C78.9846 17.4229 79.7271 17.5484 80.466 17.487 81.489 17.394 82.014 16.864 81.95 16.152 81.89 15.492 81.414 15.144 80.266 14.844 78.783 14.457 77.794 13.777 77.68 12.521 77.551 11.099 78.643 9.903 80.532 9.732 81.2537 9.64632 81.9854 9.73162 82.668 9.981L82.4 11.3C81.8392 11.0707 81.2308 10.9825 80.628 11.043 79.62 11.135 79.228 11.718 79.275 12.223 79.335 12.895 79.869 13.16 81.075 13.508 82.64 13.939 83.447 14.636 83.561 15.891 83.688 17.291 82.737 18.602 80.486 18.806 79.6712 18.8865 78.8489 18.7734 78.086 18.476Z" id="Path_652895" fill="#003042" transform="translate(1630.86 100.77)"/><rect x="0" y="0" width="8.767" height="1.6" id="Rectangle_19049" fill="#003042" transform="matrix(0.0304513 -0.999536 0.999536 0.0304513 1719.56 119.118)"/><path d="M92.435 18.439 93.504 9.739 95.311 9.96 97.1 13.967C97.5457 14.9734 97.9219 16.0092 98.226 17.067L98.251 17.067C98.291 15.892 98.39 14.767 98.551 13.435L98.924 10.401 100.396 10.581 99.326 19.281 97.687 19.081 95.887 14.981C95.4305 13.9373 95.0326 12.869 94.695 11.781L94.655 11.789C94.582 12.92 94.455 14.071 94.277 15.503L93.894 18.615Z" id="Path_652896" fill="#003042" transform="translate(1630.86 100.77)"/><path d="M104.783 12.9 102.357 12.311 102.673 11.011 109.103 12.573 108.788 13.873 106.337 13.273 104.586 20.487 103.032 20.11Z" id="Path_652897" fill="#003042" transform="translate(1630.86 100.77)"/><path d="M114.228 19.48 111.116 18.38 110.257 20.806 113.738 22.038 113.299 23.275 108.313 21.511 111.234 13.252 116.034 14.952 115.596 16.189 112.296 15.023 111.542 17.155 114.655 18.255Z" id="Path_652898" fill="#003042" transform="translate(1630.86 100.77)"/><path d="M118.553 16.108C119.329 16.3386 120.085 16.6309 120.814 16.982 121.718 17.3097 122.476 17.9476 122.953 18.782 123.218 19.396 123.191 20.0971 122.88 20.689 122.446 21.5839 121.493 22.1057 120.505 21.989L120.488 22.024C120.945 22.6033 121.086 23.371 120.865 24.075 120.662 24.8969 120.519 25.7324 120.437 26.575L118.947 25.866C119.005 25.1512 119.125 24.4429 119.306 23.749 119.575 22.61 119.356 22.103 118.546 21.688L117.818 21.343 116.271 24.593 114.84 23.911ZM118.321 20.286 119.177 20.694C119.866 21.1692 120.809 20.9961 121.284 20.3074 121.32 20.2553 121.353 20.2011 121.382 20.145 121.795 19.277 121.375 18.588 120.435 18.14 120.14 17.989 119.83 17.8706 119.51 17.787Z" id="Path_652899" fill="#003042" transform="translate(1630.86 100.77)"/><path d="M121.73 27.29 126.419 19.885 127.958 20.859 127.858 25.245C127.83 26.3448 127.727 27.4414 127.549 28.527L127.571 28.542C128.11 27.497 128.682 26.52 129.399 25.389L131.034 22.808 132.286 23.601 127.6 31 126.206 30.116 126.331 25.639C126.365 24.5011 126.463 23.366 126.623 22.239L126.583 22.229C126.033 23.22 125.424 24.205 124.652 25.424L122.975 28.072Z" id="Path_652900" fill="#003042" transform="translate(1630.86 100.77)"/><path d="M132.211 31.445 130.05 32.882 128.774 31.833 136.518 26.851 138.094 28.151 134.718 36.729 133.393 35.637 134.36 33.215ZM134.918 32.107 135.759 30.007C135.968 29.488 136.237 28.935 136.459 28.461L136.438 28.444C136.016 28.753 135.526 29.144 135.075 29.444L133.181 30.681Z" id="Path_652901" fill="#003042" transform="translate(1630.86 100.77)"/><path d="M141.456 33.024 139.689 31.26 140.636 30.312 145.319 34.988 144.373 35.935 142.588 34.154 137.343 39.407 136.211 38.277Z" id="Path_652902" fill="#003042" transform="translate(1630.86 100.77)"/><rect x="0" y="0" width="8.759" height="1.598" id="Rectangle_19050" fill="#003042" transform="matrix(0.759623 -0.650363 0.650363 0.759623 1770.87 143.05)"/><path d="M150.6 48.907C148.2 50.597 145.8 50.107 144.41 48.126 142.99 46.106 143.634 43.745 145.74 42.265 147.94 40.717 150.466 41.008 151.887 43.028 153.36 45.128 152.642 47.472 150.6 48.907M146.733 43.632C145.276 44.656 144.633 46.205 145.515 47.46 146.397 48.715 148.076 48.616 149.576 47.56 150.926 46.61 151.731 45.043 150.812 43.735 149.893 42.427 148.212 42.591 146.733 43.635" id="Path_652903" fill="#003042" transform="translate(1630.86 100.77)"/><path d="M147.734 52.866 155.509 48.814 156.351 50.428 154.063 54.174C153.486 55.1114 152.846 56.0085 152.147 56.859L152.16 56.882C153.149 56.249 154.135 55.691 155.323 55.072L158.034 53.659 158.719 54.973 150.945 59.026 150.181 57.561 152.538 53.751C153.138 52.7813 153.792 51.8464 154.498 50.951L154.468 50.922C153.495 51.503 152.474 52.05 151.194 52.716L148.414 54.166Z" id="Path_652904" fill="#003042" transform="translate(1630.86 100.77)"/><path d="M154.707 61.713 152.117 61.869 151.543 60.32 160.736 59.91 161.445 61.824 154.217 67.538 153.617 65.928 155.67 64.322ZM156.713 63.646 158.497 62.246C158.939 61.903 159.449 61.561 159.88 61.262L159.871 61.238C159.351 61.292 158.733 61.382 158.191 61.417L155.932 61.533Z" id="Path_652905" fill="#003042" transform="translate(1630.86 100.77)"/><path d="M163.079 66.9 163.468 68.45 156.268 70.25 157.143 73.741 155.843 74.066 154.58 69.025Z" id="Path_652906" fill="#003042" transform="translate(1630.86 100.77)"/><path d="M145.208 89.233C145.208 122.004 119.32 148.569 87.385 148.569 55.45 148.569 29.561 122 29.561 89.233 29.561 56.466 55.45 29.9 87.385 29.9 119.32 29.9 145.208 56.465 145.208 89.236" id="Path_652907" fill="#FFFFFF" transform="translate(1630.86 100.77)"/><path d="M73.665 97.339 73.665 108.739 64.72 108.739 64.72 99.039" id="Path_652908" fill="#81CAA0" transform="translate(1630.86 100.77)"/><path d="M73.665 97.339 73.665 108.739 64.72 108.739 64.72 99.039" id="Path_652909" stroke="#006C99" stroke-width="2" stroke-miterlimit="10" fill="none" transform="translate(1630.86 100.77)"/><path d="M81.1 144.065 72.587 120.726 77.907 119.383 88.141 144.753Z" id="Path_652910" fill="#81CAA0" transform="translate(1630.86 100.77)"/><path d="M81.1 144.065 72.587 120.726 77.907 119.383 88.141 144.753Z" id="Path_652911" stroke="#006C99" stroke-width="2" stroke-miterlimit="10" fill="none" transform="translate(1630.86 100.77)"/><path d="M75.518 119.6 62.868 119.6C61.2763 119.6 59.986 118.31 59.986 116.718L59.986 111.618C59.986 110.026 61.2763 108.736 62.868 108.736L75.518 108.736C77.1097 108.736 78.4 110.026 78.4 111.618L78.4 116.718C78.4 118.31 77.1097 119.6 75.518 119.6" id="Path_652912" fill="#81CAA0" transform="translate(1630.86 100.77)"/><rect x="0" y="0" rx="2.882" width="18.414" height="10.859" id="Rectangle_19051" stroke="#006C99" stroke-width="2" stroke-miterlimit="10" fill="none" transform="translate(1690.85 209.505)"/><path d="M86.426 95.093 56.3 100.821C54.9305 101.081 53.6094 100.182 53.3491 98.8126 53.3491 98.8124 53.349 98.8122 53.349 98.812L50.39 83.253C50.1288 81.8837 51.027 80.5619 52.3963 80.3007 52.3975 80.3005 52.3988 80.3002 52.4 80.3L82.527 74.573" id="Path_652913" fill="#81CAA0" transform="translate(1630.86 100.77)"/><path d="M86.426 95.093 56.3 100.821C54.9305 101.081 53.6094 100.182 53.3491 98.8126 53.3491 98.8124 53.349 98.8122 53.349 98.812L50.39 83.253C50.1288 81.8837 51.027 80.5619 52.3963 80.3007 52.3975 80.3005 52.3988 80.3002 52.4 80.3L82.527 74.573" id="Path_652914" stroke="#006C99" stroke-width="2" stroke-linecap="round" stroke-linejoin="round" fill="none" transform="translate(1630.86 100.77)"/><path d="M30.973 90.489 51.039 86.674 52.7 95.392 32.63 99.207" id="Path_652915" fill="#81CAA0" transform="translate(1630.86 100.77)"/><path d="M30.973 90.489 51.039 86.674 52.7 95.392 32.63 99.207" id="Path_652916" stroke="#006C99" stroke-width="2" stroke-miterlimit="10" fill="none" transform="translate(1630.86 100.77)"/><path d="M32.033 102.007 29.69 102.452C29.088 102.568 28.5062 102.173 28.3905 101.571 28.3903 101.571 28.3902 101.57 28.39 101.569L26.09 89.48C25.9739 88.8786 26.3672 88.297 26.9686 88.1808 26.9701 88.1806 26.9715 88.1803 26.973 88.18L29.316 87.734C29.9187 87.6187 30.5007 88.0139 30.6159 88.6165 30.6159 88.6167 30.616 88.6168 30.616 88.617L32.916 100.706C33.0317 101.308 32.6374 101.89 32.0354 102.006 32.0346 102.006 32.0338 102.006 32.033 102.006" id="Path_652917" fill="#81CAA0" transform="translate(1630.86 100.77)"/><path d="M1.11 0 3.5 0C4.11304 -2.22045e-16 4.61 0.496964 4.61 1.11L4.61 13.416C4.61 14.0285 4.11348 14.525 3.501 14.525 3.50067 14.525 3.50033 14.525 3.5 14.525L1.11 14.525C0.496964 14.525 1.43051e-08 14.028 1.43051e-08 13.415L0 1.11C0 0.496964 0.496964 1.43051e-08 1.11 1.43051e-08Z" id="Rectangle_19052" stroke="#006C99" stroke-width="2" stroke-miterlimit="10" fill="none" transform="matrix(0.982 -0.187 0.187 0.982 1656.75 189.159)"/><path d="M145.146 94.277 142.803 94.722C142.201 94.8377 141.619 94.4435 141.503 93.8414 141.503 93.8406 141.503 93.8398 141.503 93.839L134.22 55.528C134.104 54.926 134.499 54.3442 135.101 54.2285 135.101 54.2283 135.102 54.2282 135.103 54.228L137.446 53.783C138.048 53.6673 138.63 54.0616 138.746 54.6636 138.746 54.6644 138.746 54.6652 138.746 54.666L146.029 92.977C146.145 93.579 145.75 94.1608 145.148 94.2765 145.148 94.2767 145.147 94.2768 145.146 94.277" id="Path_652918" fill="#81CAA0" transform="translate(1630.86 100.77)"/><path d="M145.146 94.277 142.803 94.722C142.201 94.8377 141.619 94.4435 141.503 93.8414 141.503 93.8406 141.503 93.8398 141.503 93.839L134.22 55.528C134.104 54.926 134.499 54.3442 135.101 54.2285 135.101 54.2283 135.102 54.2282 135.103 54.228L137.446 53.783C138.048 53.6673 138.63 54.0616 138.746 54.6636 138.746 54.6644 138.746 54.6652 138.746 54.666L146.029 92.977C146.145 93.579 145.75 94.1608 145.148 94.2765 145.148 94.2767 145.147 94.2768 145.146 94.277Z" id="Path_652919" stroke="#006C99" stroke-width="2" stroke-miterlimit="10" fill="none" transform="translate(1630.86 100.77)"/><path d="M140.795 90.1 89.435 99.865C88.315 100.077 87.235 99.3416 87.021 98.222L81.929 71.443C81.7162 70.3227 82.4518 69.242 83.572 69.029L134.932 59.265Z" id="Path_652920" fill="#81CAA0" transform="translate(1630.86 100.77)"/><path d="M140.795 90.1 89.435 99.865C88.315 100.077 87.235 99.3416 87.021 98.222L81.929 71.443C81.7162 70.3227 82.4518 69.242 83.572 69.029L134.932 59.265Z" id="Path_652921" stroke="#006C99" stroke-width="2" stroke-linecap="round" stroke-linejoin="round" fill="none" transform="translate(1630.86 100.77)"/><path d="M65.979 141.832 65.979 119.7 71.97 119.7 71.964 143.744Z" id="Path_652922" fill="#81CAA0" transform="translate(1630.86 100.77)"/><path d="M65.979 141.832 65.979 119.7 71.97 119.7 71.964 143.744Z" id="Path_652923" stroke="#006C99" stroke-width="2" stroke-miterlimit="10" fill="none" transform="translate(1630.86 100.77)"/><path d="M59.134 138.968 54.2 135.7 60.129 118.6 65.978 119.7Z" id="Path_652924" fill="#81CAA0" transform="translate(1630.86 100.77)"/><path d="M59.134 138.968 54.2 135.7 60.129 118.6 65.978 119.7Z" id="Path_652925" stroke="#006C99" stroke-width="2" stroke-miterlimit="10" fill="none" transform="translate(1630.86 100.77)"/><path d="M52.55 119.115 52.55 117.364C52.5476 115.058 53.2339 112.805 54.521 110.892 51.2817 110.787 48.3345 108.992 46.755 106.162L32.371 108.9C35.7409 118.681 41.6747 127.377 49.553 134.082L53.432 123.553C52.8492 122.147 52.5495 120.64 52.55 119.118" id="Path_652926" fill="#003042" transform="translate(1630.86 100.77)"/><path d="M50.445 72.972 76.837 67.954C77.9256 64.2736 80.9774 61.5085 84.747 60.787L130.021 52.18C130.229 51.2909 130.576 50.4404 131.05 49.66 110.222 25.5417 73.7859 22.8744 49.6677 43.7024 38.0303 53.7521 30.8856 68.031 29.819 83.37L42.875 80.887C43.4567 76.9065 46.4943 73.7304 50.445 72.972" id="Path_652927" fill="#003042" transform="translate(1630.86 100.77)"/><path d="M138.8 101.782 93.486 110.4C89.7202 111.122 85.8682 109.666 83.522 106.633L81 107.109 81 108.7C84.1389 110.871 86.013 114.444 86.015 118.261L86.015 120.012C86.015 121.524 85.7188 123.021 85.143 124.419L93.967 148.367C117.816 145.622 137.48 128.412 143.361 105.137 141.508 104.56 139.903 103.378 138.802 101.779" id="Path_652928" fill="#003042" transform="translate(1630.86 100.77)"/><path d="M16.023 87.384C16.0247 88.7023 14.9573 89.7723 13.639 89.774 12.3207 89.7757 11.2507 88.7083 11.249 87.39 11.2473 86.0717 12.3147 85.0017 13.633 85 13.634 85 13.635 85 13.636 85 14.9543 85 16.023 86.0687 16.023 87.387" id="Path_652929" fill="#006C99" transform="translate(1630.86 100.77)"/><path d="M163.52 87.384C163.522 88.7023 162.454 89.7723 161.136 89.774 159.818 89.7757 158.748 88.7083 158.746 87.39 158.744 86.0717 159.812 85.0017 161.13 85 161.131 85 161.132 85 161.133 85 162.451 85 163.52 86.0687 163.52 87.387" id="Path_652930" fill="#006C99" transform="translate(1630.86 100.77)"/></g></svg>