<svg width="174.308" height="174.308" viewBox="0 0 174.308 174.308" xmlns="http://www.w3.org/2000/svg" xmlns:xlink="http://www.w3.org/1999/xlink" overflow="hidden"><g id="pathways-badge-persuasive-influence" transform="translate(-1076.87 -74.23)"><path d="M916.179 87.384C916.179 134.966 877.607 173.538 830.025 173.538 782.443 173.538 743.871 134.966 743.871 87.384 743.871 39.8025 782.443 1.23001 830.025 1.23001 877.606 1.22946 916.178 39.801 916.179 87.382 916.179 87.3827 916.179 87.3833 916.179 87.384" id="Path_650071" fill="#FFFFFF" transform="translate(334 74)"/><circle cx="86.154" cy="86.154" r="86.154" id="Ellipse_95" stroke="#D6B430" stroke-width="2" stroke-miterlimit="10" fill="none" transform="translate(1077.87 75.23)"/><path d="M887.852 87.384C887.852 119.319 861.964 145.207 830.029 145.207 798.094 145.207 772.206 119.319 772.206 87.384 772.206 55.4492 798.094 29.561 830.029 29.561 861.964 29.5616 887.851 55.4495 887.852 87.384" id="Path_650072" fill="#FFFFFF" transform="translate(334 74)"/><path d="M779.038 130.493C779.674 131.009 780.263 131.58 780.798 132.2 781.461 132.841 781.879 133.693 781.981 134.609 781.993 135.351 781.67 136.059 781.103 136.537 780.575 137.056 779.854 137.33 779.115 137.295 778.112 137.163 777.2 136.643 776.576 135.846 776.398 135.655 776.238 135.448 776.097 135.228L773.628 137.422 772.574 136.236ZM777.038 134.393C777.169 134.62 777.327 134.83 777.508 135.019 778.308 135.919 779.224 136.069 779.991 135.387 780.721 134.739 780.66 133.887 779.926 133.062 779.726 132.826 779.501 132.612 779.255 132.424Z" id="Path_650073" fill="#022A3A" transform="translate(334 74)"/><path d="M780.655 140.863C780.042 141.588 780.133 142.674 780.858 143.287 780.9 143.323 780.944 143.356 780.99 143.388 781.421 143.803 781.926 144.133 782.479 144.361L781.905 145.335C781.204 145.058 780.561 144.651 780.011 144.135 778.692 143.133 778.435 141.251 779.437 139.931 779.535 139.803 779.643 139.682 779.76 139.571 780.813 138.197 782.781 137.936 784.155 138.989 784.22 139.039 784.282 139.091 784.343 139.145 785.86 140.531 785.218 142.235 784.279 143.262 784.128 143.431 783.962 143.586 783.784 143.726ZM783.464 141.915C784.043 141.434 784.122 140.576 783.641 139.997 783.609 139.958 783.575 139.922 783.539 139.887 782.9 139.371 781.97 139.436 781.41 140.038Z" id="Path_650074" fill="#022A3A" transform="translate(334 74)"/><path d="M786.4 143.775C786.921 143.093 787.281 142.6 787.6 142.122L788.706 142.965 788.013 143.958 788.054 143.989C788.706 143.511 789.591 143.501 790.254 143.964 790.355 144.04 790.448 144.128 790.53 144.224L789.615 145.424C789.513 145.304 789.399 145.195 789.274 145.099 788.717 144.651 787.914 144.691 787.404 145.192 787.28 145.302 787.166 145.423 787.063 145.553L785.075 148.153 783.804 147.183Z" id="Path_650075" fill="#022A3A" transform="translate(334 74)"/><path d="M789.022 149.227C789.289 149.731 789.673 150.164 790.142 150.489 790.732 150.869 791.149 150.797 791.374 150.447 791.599 150.097 791.507 149.76 791 149.109 790.193 148.08 790.122 147.231 790.534 146.615 791.217 145.666 792.541 145.451 793.489 146.135 793.534 146.167 793.578 146.202 793.621 146.238 794.113 146.546 794.525 146.966 794.826 147.462L793.952 148.244C793.732 147.829 793.413 147.475 793.023 147.213 792.543 146.904 792.132 146.964 791.923 147.292 791.714 147.62 791.851 147.956 792.374 148.633 793.11 149.602 793.242 150.382 792.746 151.175 792.128 152.137 790.923 152.351 789.513 151.443 788.946 151.092 788.473 150.607 788.136 150.031Z" id="Path_650076" fill="#022A3A" transform="translate(334 74)"/><path d="M799.722 154.823C799.38 155.495 799.122 156.063 798.909 156.538L797.658 155.902 798.024 155.009 798 155C797.3 155.437 796.418 155.462 795.694 155.066 794.662 154.542 794.036 153.451 794.973 151.61L796.658 148.297 798.082 149.022 796.522 152.091C796.044 153.029 796.039 153.784 796.792 154.167 797.282 154.401 797.865 154.318 798.27 153.956 798.392 153.841 798.493 153.705 798.57 153.556L800.301 150.156 801.726 150.88Z" id="Path_650077" fill="#022A3A" transform="translate(334 74)"/><path d="M804.848 158.918 804.999 158.224 804.962 158.21C804.335 158.566 803.58 158.614 802.913 158.342 801.922 158.035 801.367 156.983 801.674 155.991 801.686 155.953 801.699 155.915 801.713 155.878 802.275 154.378 803.885 154.127 806.069 154.963L806.106 154.863C806.253 154.474 806.337 153.77 805.291 153.376 804.73 153.166 804.123 153.11 803.533 153.214L803.607 152.132C804.397 152.02 805.203 152.117 805.944 152.414 807.211 152.734 807.98 154.021 807.66 155.288 807.612 155.476 807.542 155.657 807.451 155.827L806.645 157.968C806.458 158.441 806.308 158.927 806.194 159.423ZM805.743 155.95C804.694 155.527 803.598 155.378 803.26 156.279 803.059 156.696 803.234 157.197 803.651 157.398 803.696 157.419 803.742 157.437 803.79 157.45 804.311 157.658 804.906 157.506 805.264 157.075 805.338 156.982 805.396 156.877 805.436 156.765Z" id="Path_650078" fill="#022A3A" transform="translate(334 74)"/><path d="M809.034 158.769C809.441 159.169 809.938 159.466 810.483 159.634 811.16 159.817 811.536 159.623 811.645 159.222 811.754 158.821 811.564 158.522 810.884 158.059 809.805 157.322 809.484 156.533 809.684 155.822 810.049 154.711 811.246 154.106 812.357 154.471 812.41 154.488 812.462 154.508 812.513 154.529 813.075 154.674 813.595 154.948 814.033 155.329L813.433 156.339C813.097 156.01 812.685 155.769 812.233 155.639 811.681 155.489 811.308 155.67 811.207 156.047 811.106 156.424 811.339 156.702 812.042 157.189 813.036 157.889 813.397 158.589 813.165 159.5 812.865 160.6 811.782 161.172 810.165 160.733 809.518 160.569 808.92 160.25 808.424 159.803Z" id="Path_650079" fill="#022A3A" transform="translate(334 74)"/><path d="M814.876 161.738 816.094 155.526 817.676 155.836 816.458 162.049ZM818.106 154.119C818.026 154.61 817.564 154.943 817.073 154.863 816.583 154.783 816.25 154.321 816.329 153.831 816.409 153.34 816.871 153.007 817.362 153.086 817.372 153.088 817.383 153.09 817.393 153.092 817.858 153.156 818.182 153.584 818.119 154.049 818.115 154.072 818.111 154.096 818.106 154.119" id="Path_650080" fill="#022A3A" transform="translate(334 74)"/><path d="M820.808 156.348 821.462 159.654C821.579 160.229 821.651 160.748 821.707 161.277L821.746 161.282C821.921 160.782 822.12 160.305 822.353 159.756L823.712 156.681 825.39 156.874 822.268 162.885 820.706 162.706 819.091 156.151Z" id="Path_650081" fill="#022A3A" transform="translate(334 74)"/><path d="M827.757 160.54C827.783 161.491 828.575 162.24 829.525 162.214 829.58 162.213 829.635 162.209 829.689 162.202 830.286 162.224 830.883 162.134 831.447 161.936L831.668 163.044C830.959 163.304 830.208 163.427 829.453 163.408 827.801 163.538 826.357 162.304 826.227 160.652 826.215 160.492 826.215 160.331 826.228 160.171 826.098 158.446 827.391 156.941 829.116 156.811 829.198 156.805 829.28 156.802 829.362 156.802 831.416 156.826 832.072 158.524 832.056 159.915 832.056 160.141 832.035 160.367 831.995 160.59ZM830.557 159.455C830.669 158.712 830.156 158.019 829.413 157.907 829.363 157.9 829.313 157.895 829.262 157.893 828.442 157.933 827.792 158.601 827.775 159.422Z" id="Path_650082" fill="#022A3A" transform="translate(334 74)"/><rect x="0" y="0" width="1.598" height="8.759" id="Rectangle_18870" fill="#022A3A" transform="matrix(0.993357 -0.115076 0.115076 0.993357 1170.76 228.178)"/><path d="M841.3 157.975C841.154 157.262 841.019 156.665 840.871 156.138L842.247 155.856 842.514 156.771 842.552 156.763C842.83 155.992 843.5 155.429 844.308 155.288 845.391 155.066 846.655 155.537 847.058 157.5L847.812 161.182 846.244 161.503 845.527 158.003C845.344 157.111 844.874 156.503 844.021 156.679 843.462 156.807 843.046 157.276 842.986 157.846 842.97 158.021 842.984 158.198 843.027 158.369L843.773 162.013 842.193 162.336Z" id="Path_650083" fill="#022A3A" transform="translate(334 74)"/><path d="M850.748 160.388 849.148 155.506 848.333 155.773 847.961 154.636 848.776 154.369 848.691 154.11C848.431 153.351 848.519 152.516 848.931 151.828 849.39 151.168 850.069 150.694 850.846 150.491 851.562 150.234 852.331 150.156 853.084 150.264L855.85 158.718 854.317 159.218 851.822 151.592C851.538 151.566 851.252 151.608 850.987 151.715 850.06 152.015 849.933 152.799 850.195 153.602L850.284 153.874 851.52 153.469 851.892 154.607 850.669 155.007 852.269 159.889Z" id="Path_650084" fill="#022A3A" transform="translate(334 74)"/><path d="M862.893 153.58C863.208 154.265 863.493 154.821 863.733 155.28L862.457 155.866 861.985 155.025 861.961 155.035C861.869 155.857 861.341 156.565 860.58 156.887 859.53 157.37 858.28 157.187 857.421 155.306L855.868 151.929 857.321 151.261 858.76 154.39C859.2 155.347 859.789 155.82 860.56 155.467 861.048 155.228 861.344 154.719 861.312 154.177 861.299 154.009 861.257 153.844 861.188 153.69L859.588 150.218 861.04 149.55Z" id="Path_650085" fill="#022A3A" transform="translate(334 74)"/><path d="M865.792 151.036C866.311 151.831 867.377 152.054 868.171 151.534 868.218 151.504 868.263 151.471 868.307 151.436 868.827 151.141 869.287 150.752 869.663 150.287L870.433 151.113C869.967 151.707 869.393 152.206 868.741 152.586 867.404 153.565 865.527 153.274 864.548 151.937 864.453 151.807 864.369 151.67 864.296 151.527 863.28 150.125 863.592 148.165 864.994 147.149 865.06 147.101 865.127 147.056 865.196 147.014 866.956 145.956 868.406 147.056 869.123 148.248 869.24 148.441 869.341 148.644 869.423 148.854ZM867.6 148.645C867.305 147.954 866.505 147.633 865.814 147.928 865.767 147.948 865.721 147.971 865.677 147.996 865 148.461 864.799 149.371 865.216 150.078Z" id="Path_650086" fill="#022A3A" transform="translate(334 74)"/><path d="M870.176 146.252C869.735 145.674 869.354 145.196 868.991 144.786L870.107 143.934 870.744 144.641 870.776 144.617C870.691 143.802 871.049 143.004 871.714 142.526 872.592 141.856 873.936 141.726 875.151 143.321L877.43 146.306 876.159 147.276 873.99 144.436C873.438 143.712 872.751 143.37 872.059 143.898 871.613 144.257 871.442 144.859 871.635 145.398 871.698 145.562 871.787 145.715 871.899 145.851L874.155 148.805 872.874 149.783Z" id="Path_650087" fill="#022A3A" transform="translate(334 74)"/><path d="M882.778 141.122C882.518 141.678 882.151 142.176 881.698 142.59 880.568 143.832 878.646 143.923 877.404 142.794 877.3 142.699 877.203 142.598 877.113 142.49 875.826 141.221 875.811 139.149 877.08 137.861 877.166 137.774 877.257 137.692 877.352 137.615 877.734 137.247 878.186 136.96 878.681 136.77L879.295 137.835C878.902 137.971 878.544 138.194 878.247 138.486 877.471 139.31 877.51 140.608 878.335 141.384 879.092 142.096 880.262 142.129 881.058 141.461 881.377 141.169 881.632 140.813 881.805 140.416Z" id="Path_650088" fill="#022A3A" transform="translate(334 74)"/><path d="M883.109 137.054C883.846 137.654 884.93 137.542 885.53 136.805 885.564 136.762 885.597 136.718 885.627 136.673 886.034 136.235 886.354 135.724 886.572 135.168L887.555 135.723C887.291 136.43 886.894 137.08 886.387 137.638 885.413 138.974 883.541 139.267 882.205 138.293 882.073 138.197 881.948 138.089 881.833 137.972 880.44 136.945 880.143 134.984 881.17 133.591 881.218 133.526 881.269 133.462 881.322 133.401 882.679 131.86 884.394 132.47 885.437 133.389 885.608 133.537 885.767 133.7 885.91 133.875ZM884.109 134.228C883.618 133.659 882.759 133.595 882.189 134.086 882.151 134.119 882.115 134.154 882.081 134.191 881.577 134.839 881.66 135.767 882.271 136.315Z" id="Path_650089" fill="#022A3A" transform="translate(334 74)"/><path d="M754.92 72.159 754.32 74.582 753.02 74.258 754.62 67.835 755.92 68.159 755.31 70.607 762.516 72.402 762.129 73.954Z" id="Path_650090" fill="#022A3A" transform="translate(334 74)"/><path d="M761.914 60.191C764.666 61.218 765.614 63.473 764.768 65.738 763.904 68.051 761.593 68.853 759.182 67.953 756.661 67.012 755.475 64.765 756.339 62.453 757.239 60.053 759.576 59.32 761.914 60.193M759.748 66.363C761.417 66.986 763.058 66.641 763.594 65.205 764.13 63.769 763.101 62.44 761.384 61.799 759.837 61.221 758.09 61.443 757.53 62.94 756.97 64.437 758.056 65.731 759.748 66.363" id="Path_650091" fill="#022A3A" transform="translate(334 74)"/><path d="M765.352 57.785 767.2 59.607 766.432 61.068 759.983 54.51 760.931 52.704 770.01 54.257 769.21 55.775 766.644 55.323ZM765.452 55.003 763.222 54.61C762.672 54.51 762.076 54.36 761.567 54.239L761.555 54.263C761.943 54.613 762.424 55.012 762.811 55.392L764.411 56.992Z" id="Path_650092" fill="#022A3A" transform="translate(334 74)"/><path d="M769.391 52.059C770.053 51.725 770.621 51.2298 771.042 50.619 771.619 49.769 771.542 49.026 770.95 48.625 770.401 48.253 769.83 48.4 768.87 49.099 767.629 49.999 766.477 50.335 765.434 49.627 764.25 48.827 764.018 47.227 765.082 45.652 765.474 45.0394 766.004 44.5275 766.63 44.158L767.476 45.202C766.944 45.4914 766.49 45.9064 766.155 46.411 765.585 47.249 765.789 47.921 766.209 48.211 766.768 48.59 767.309 48.346 768.344 47.633 769.67 46.695 770.721 46.512 771.765 47.22 772.926 48.007 773.339 49.575 772.071 51.447 771.616 52.1298 771.006 52.6958 770.291 53.099Z" id="Path_650093" fill="#022A3A" transform="translate(334 74)"/><path d="M770.265 41.212 768.677 43.137 767.645 42.285 771.854 37.185 772.887 38.037 771.287 39.982 777.01 44.704 775.994 45.938Z" id="Path_650094" fill="#022A3A" transform="translate(334 74)"/><path d="M782.418 34.179C781.611 33.385 780.636 32.428 779.842 31.551L779.813 31.577C780.327 32.554 780.864 33.669 781.329 34.744L782.975 38.395 782.068 39.234 778.668 37.283C777.66 36.693 776.618 36.027 775.704 35.383L775.686 35.401C776.435 36.266 777.342 37.322 778.107 38.244L780.357 40.961 779.257 41.977 773.731 35.152 775.276 33.72 778.51 35.527C779.437 36.069 780.344 36.646 781.169 37.211L781.197 37.184C780.724 36.329 780.21 35.335 779.76 34.351L778.26 30.951 779.785 29.537 786.112 35.621 784.968 36.681Z" id="Path_650095" fill="#022A3A" transform="translate(334 74)"/><path d="M787.578 31.558 788.378 34.027 787.023 34.97 784.323 26.176 785.996 25.009 793.342 30.571 791.933 31.552 789.863 29.968ZM788.945 29.132 787.145 27.756C786.702 27.415 786.245 27.006 785.845 26.664L785.825 26.679C786.007 27.169 786.251 27.745 786.425 28.26L787.103 30.418Z" id="Path_650096" fill="#022A3A" transform="translate(334 74)"/><path d="M793.8 28.334C794.542 28.3435 795.274 28.1661 795.929 27.818 796.829 27.33 797.106 26.635 796.766 26.006 796.45 25.424 795.876 25.291 794.702 25.468 793.187 25.697 792.01 25.461 791.41 24.353 790.731 23.096 791.263 21.567 792.932 20.665 793.564 20.3009 794.272 20.0909 795 20.052L795.27 21.369C794.664 21.3793 794.07 21.5383 793.54 21.832 792.649 22.313 792.52 23.003 792.761 23.449 793.082 24.043 793.676 24.077 794.921 23.921 796.531 23.701 797.546 24.021 798.146 25.131 798.813 26.366 798.456 27.947 796.468 29.022 795.75 29.4179 794.948 29.6389 794.128 29.667Z" id="Path_650097" fill="#022A3A" transform="translate(334 74)"/><path d="M799.588 19.1 797.282 20.058 796.769 18.821 802.881 16.282 803.395 17.518 801.065 18.486 803.914 25.343 802.437 25.957Z" id="Path_650098" fill="#022A3A" transform="translate(334 74)"/><path d="M811.08 18.835 807.917 19.788 808.66 22.253 812.196 21.188 812.576 22.445 807.508 23.973 804.978 15.581 809.859 14.109 810.238 15.367 806.889 16.377 807.542 18.543 810.704 17.59Z" id="Path_650099" fill="#022A3A" transform="translate(334 74)"/><path d="M812.617 13.553C813.38 13.2806 814.163 13.07 814.959 12.923 815.881 12.6532 816.869 12.7188 817.747 13.108 818.323 13.4478 818.716 14.0294 818.815 14.691 818.994 15.6703 818.533 16.6555 817.667 17.146L817.673 17.184C818.385 17.3805 818.953 17.9168 819.19 18.616 819.512 19.4001 819.891 20.1598 820.323 20.889L818.7 21.2C818.324 20.5885 818.003 19.9454 817.739 19.278 817.283 18.201 816.806 17.92 815.908 18.065L815.116 18.215 815.788 21.753 814.23 22.053ZM814.898 17.063 815.831 16.886C816.891 16.686 817.448 15.996 817.286 15.141 817.106 14.195 816.359 13.887 815.337 14.082 815.01 14.1342 814.689 14.2214 814.381 14.342Z" id="Path_650100" fill="#022A3A" transform="translate(334 74)"/><path d="M821.639 19C822.315 19.3062 823.057 19.4378 823.797 19.383 824.821 19.299 825.351 18.772 825.292 18.06 825.238 17.399 824.765 17.047 823.618 16.737 822.137 16.337 821.155 15.649 821.051 14.392 820.933 12.967 822.035 11.781 823.927 11.625 824.65 11.545 825.381 11.6365 826.062 11.892L825.779 13.207C825.22 12.9731 824.612 12.8801 824.009 12.936 822.998 13.019 822.603 13.599 822.645 14.104 822.7 14.778 823.231 15.047 824.434 15.404 825.996 15.849 826.798 16.552 826.902 17.804 827.017 19.204 826.055 20.504 823.802 20.694 822.986 20.7684 822.163 20.6485 821.402 20.344Z" id="Path_650101" fill="#022A3A" transform="translate(334 74)"/><rect x="0" y="0" width="8.759" height="1.599" id="Rectangle_18871" fill="#022A3A" transform="matrix(0.0387017 -0.999251 0.999251 0.0387017 1165.99 94.317)"/><path d="M835.77 20.44 836.912 11.75 838.712 11.987 840.466 16.008C840.903 17.018 841.271 18.0568 841.566 19.117L841.592 19.117C841.641 17.943 841.749 16.817 841.924 15.488L842.324 12.458 843.793 12.651 842.652 21.342 841.014 21.126 839.246 17.012C838.798 15.9648 838.409 14.8935 838.08 13.803L838.04 13.811C837.957 14.941 837.82 16.09 837.631 17.521L837.223 20.628Z" id="Path_650102" fill="#022A3A" transform="translate(334 74)"/><path d="M848.148 15.011 845.728 14.402 846.055 13.102 852.47 14.718 852.143 16.018 849.7 15.4 847.888 22.6 846.338 22.21Z" id="Path_650103" fill="#022A3A" transform="translate(334 74)"/><path d="M857.527 21.667 854.427 20.539 853.547 22.959 857.018 24.22 856.569 25.455 851.595 23.647 854.588 15.41 859.379 17.15 858.93 18.384 855.642 17.19 854.87 19.317 857.97 20.445Z" id="Path_650104" fill="#022A3A" transform="translate(334 74)"/><path d="M861.927 18.364C862.7 18.6041 863.453 18.905 864.178 19.264 865.078 19.6 865.829 20.2442 866.298 21.082 866.556 21.6988 866.522 22.3993 866.205 22.988 865.762 23.8791 864.803 24.3916 863.816 24.265L863.799 24.3C864.25 24.8838 864.383 25.6528 864.154 26.354 863.943 27.1754 863.791 28.0108 863.7 28.854L862.217 28.129C862.284 27.4149 862.412 26.708 862.6 26.016 862.88 24.881 862.667 24.371 861.861 23.948L861.137 23.595 859.556 26.828 858.132 26.128ZM861.651 22.539 862.503 22.956C863.188 23.4381 864.133 23.274 864.615 22.5894 864.651 22.5387 864.684 22.4858 864.713 22.431 865.134 21.566 864.721 20.873 863.788 20.416 863.495 20.262 863.186 20.1403 862.866 20.053Z" id="Path_650105" fill="#022A3A" transform="translate(334 74)"/><path d="M864.955 29.556 869.717 22.203 871.244 23.192 871.101 27.574C871.062 28.6732 870.947 29.7684 870.759 30.852L870.781 30.867C871.329 29.828 871.911 28.858 872.639 27.734L874.299 25.17 875.543 25.975 870.781 33.329 869.395 32.429 869.566 27.957C869.612 26.8185 869.721 25.6834 869.892 24.557L869.852 24.547C869.293 25.531 868.675 26.509 867.891 27.72L866.191 30.349Z" id="Path_650106" fill="#022A3A" transform="translate(334 74)"/><path d="M875.361 33.808 873.2 35.243 871.927 34.193 879.667 29.222 881.241 30.522 877.862 39.09 876.539 38 877.506 35.581ZM878.061 34.472 878.903 32.372C879.112 31.854 879.381 31.302 879.603 30.828L879.582 30.812C879.16 31.12 878.671 31.512 878.22 31.812L876.326 33.046Z" id="Path_650107" fill="#022A3A" transform="translate(334 74)"/><path d="M884.638 35.508 882.892 33.727 883.848 32.79 888.477 37.512 887.521 38.449 885.756 36.649 880.456 41.842 879.34 40.7Z" id="Path_650108" fill="#022A3A" transform="translate(334 74)"/><rect x="0" y="0" width="8.761" height="1.598" id="Rectangle_18872" fill="#022A3A" transform="matrix(0.767 -0.642 0.642 0.767 1217.07 118.727)"/><path d="M893.6 51.465C891.179 53.128 888.789 52.609 887.421 50.616 886.021 48.581 886.694 46.229 888.815 44.773 891.032 43.251 893.553 43.573 894.95 45.605 896.398 47.715 895.656 50.053 893.6 51.465M889.793 46.151C888.325 47.158 887.665 48.699 888.533 49.963 889.401 51.227 891.079 51.147 892.59 50.109 893.95 49.175 894.772 47.618 893.867 46.3 892.962 44.982 891.281 45.129 889.793 46.151" id="Path_650109" fill="#022A3A" transform="translate(334 74)"/><path d="M890.7 55.41 898.516 51.451 899.339 53.074 897.01 56.79C896.422 57.7201 895.772 58.6092 895.064 59.451L895.076 59.474C896.076 58.853 897.064 58.307 898.259 57.702L900.983 56.321 901.653 57.643 893.837 61.603 893.091 60.13 895.491 56.35C896.103 55.3898 896.768 54.4644 897.482 53.578L897.453 53.549C896.473 54.118 895.447 54.649 894.16 55.305L891.36 56.721Z" id="Path_650110" fill="#022A3A" transform="translate(334 74)"/><path d="M897.576 64.359 894.985 64.482 894.431 62.928 903.621 62.628 904.307 64.55 897.014 70.171 896.438 68.556 898.509 66.976ZM899.556 66.315 901.356 64.942C901.801 64.604 902.316 64.269 902.749 63.976L902.741 63.951C902.22 63.999 901.601 64.082 901.059 64.11L898.8 64.2Z" id="Path_650111" fill="#022A3A" transform="translate(334 74)"/><path d="M905.887 69.621 906.257 71.177 899.033 72.893 899.866 76.393 898.566 76.703 897.366 71.643Z" id="Path_650112" fill="#022A3A" transform="translate(334 74)"/><path d="M816.482 72.6C815.968 75.0528 815.92 77.5804 816.34 80.051 816.917 83.1631 816.081 86.3705 814.058 88.805L813.679 89.283C813.123 89.8858 812.662 90.5696 812.312 91.311 812.411 91.4386 812.533 91.5468 812.671 91.63 813.143 91.9609 813.636 92.259 814.149 92.522 815.013 92.985 815.829 93.422 816.094 94.346 816.242 94.9084 816.151 95.5068 815.843 96 815.696 96.2334 815.574 96.4814 815.479 96.74 815.505 96.7843 815.528 96.83 815.549 96.877 815.661 97.1131 815.804 97.3336 815.973 97.533L816.695 98.308 816.124 99.208C816.003 99.3984 815.899 99.5992 815.813 99.808 816.895 100.049 817.663 101.011 817.659 102.119 817.7 102.631 817.7 103.144 817.659 103.656 817.588 104.995 817.624 105.461 818.32 105.867 818.694 106.088 820.374 106.689 826.207 105.232 828.743 105.564 831.312 105.564 833.848 105.232 839.678 106.689 841.357 106.086 841.735 105.868 842.435 105.461 842.467 104.995 842.395 103.656 842.355 103.144 842.355 102.631 842.395 102.119 842.391 101.011 843.159 100.049 844.241 99.808 844.155 99.5988 844.05 99.398 843.927 99.208L843.327 98.298 844.095 97.523 844.095 97.523C844.258 97.3276 844.395 97.1126 844.504 96.883 844.537 96.8257 844.563 96.765 844.583 96.702 844.583 96.733 844.528 96.562 844.21 96.002 843.9 95.5066 843.809 94.9049 843.959 94.34 844.224 93.417 845.039 92.979 845.902 92.516 846.415 92.2534 846.909 91.9554 847.38 91.624 847.527 91.5358 847.653 91.4163 847.748 91.274 847.383 90.5478 846.921 89.8749 846.374 89.274L845.965 88.756C843.949 86.3048 843.128 83.0833 843.725 79.966 844.134 77.5196 844.082 75.0182 843.571 72.591 842.996 70.001 839.771 64.991 836.304 62.154 834.406 60.7321 832.286 59.6327 830.03 58.9 827.772 59.6323 825.651 60.7317 823.751 62.154 820.289 64.99 817.059 70.001 816.484 72.591" id="Path_650113" fill="#D6B430" transform="translate(334 74)"/><path d="M816.97 108.176C814.805 106.913 814.914 104.866 814.986 103.511 815.016 103.136 815.02 102.759 814.997 102.383L814.997 102.363C814.349 102.26 813.773 101.893 813.407 101.348 812.928 100.482 812.937 99.4277 813.432 98.57 813.343 98.423 813.251 98.26 813.159 98.077 812.642 97.1365 812.694 95.986 813.294 95.096 813.161 95.02 813.013 94.941 812.886 94.873 812.266 94.5536 811.67 94.191 811.101 93.788 810.343 93.3145 809.82 92.5421 809.663 91.662 809.475 90.277 810.406 89.103 811.587 87.616L811.987 87.11C813.539 85.2593 814.167 82.8047 813.696 80.436 813.227 77.6431 813.286 74.787 813.871 72.016 814.642 68.549 818.394 63.083 822.064 60.082L822.079 60.07C823.206 59.1927 824.419 58.4321 825.7 57.8 820.235 56.8059 814.595 57.5801 809.6 60.01 797.9 65.77 799.764 80.375 800.614 84.71 801.308 88.2121 802.916 91.4684 805.274 94.149 806.657 95.6751 807.698 97.4785 808.329 99.439 809.392 103.239 806.617 110.845 803.477 118.181L823.995 118.181C824.609 115.491 825.455 112.859 826.521 110.314 826.862 109.379 827.3 108.483 827.829 107.641 827.499 107.669 827.173 107.728 826.855 107.818 821.846 109.071 818.706 109.183 816.973 108.169" id="Path_650114" fill="#D6B430" transform="translate(334 74)"/><path d="M837.142 61.117C840.762 64.079 844.217 69.344 844.875 72.305 845.421 74.9051 845.477 77.5843 845.04 80.205 844.504 82.9483 845.229 85.7872 847.014 87.938 848.824 90.238 849.975 91.393 848.166 92.709 846.357 94.025 844.71 94.19 845.366 95.342 846.022 96.494 846.025 96.822 845.696 97.48 845.526 97.8395 845.304 98.1723 845.038 98.468 845.038 98.468 846.025 99.948 845.531 100.607 845.038 101.429 843.886 100.607 843.721 102.252 843.556 103.897 844.379 105.872 842.405 107.023 840.431 108.174 835.495 107.023 833.52 106.53 832.786 106.302 832.006 106.266 831.254 106.425 831.616 106.799 831.94 107.209 832.219 107.648 832.549 107.676 832.876 107.735 833.195 107.826 838.204 109.08 841.345 109.193 843.078 108.179 845.244 106.915 845.134 104.868 845.062 103.512 845.031 103.137 845.028 102.76 845.052 102.385 845.051 102.378 845.051 102.371 845.052 102.364 845.7 102.262 846.276 101.895 846.641 101.35 847.121 100.483 847.112 99.4287 846.616 98.571 846.705 98.425 846.798 98.262 846.889 98.079 847.405 97.138 847.353 95.9879 846.755 95.097 846.888 95.022 847.036 94.943 847.161 94.875 847.781 94.556 848.377 94.1934 848.946 93.79 849.705 93.3175 850.228 92.5446 850.384 91.664 850.574 90.279 849.641 89.105 848.462 87.617L848.031 87.073C846.485 85.205 845.872 82.7362 846.363 80.362 846.821 77.593 846.758 74.7627 846.176 72.017 845.406 68.551 841.653 63.085 837.983 60.084L837.969 60.072C836.844 59.1965 835.633 58.438 834.354 57.808 833.605 57.937 832.881 58.094 832.177 58.274 833.951 58.9946 835.619 59.9516 837.137 61.119" id="Path_650115" fill="#022A3A" transform="translate(334 74)"/><path d="M829.137 108.073C828.568 108.924 828.107 109.841 827.763 110.805 826.557 113.602 825.674 116.528 825.131 119.526L801.438 119.526C803.738 114.261 808.184 103.895 807.032 99.782 805.881 95.339 800.945 93.365 799.299 84.974 797.653 76.583 798.312 64.074 809.007 58.813 814.851 56.0054 821.488 55.314 827.785 56.857 828.505 56.571 829.256 56.316 830.026 56.082 822.885 53.8733 815.175 54.4195 808.417 57.613 805.027 59.282 794.259 66.204 797.986 85.232 798.759 89.1488 800.545 92.7946 803.166 95.806 804.319 97.0555 805.197 98.5326 805.744 100.142 806.804 103.927 801.844 115.264 800.213 118.989L799.393 120.863 826.311 120.863 826.458 119.691C826.989 116.799 827.847 113.977 829.014 111.279 829.283 110.536 829.621 109.819 830.025 109.14 829.791 108.737 829.491 108.376 829.137 108.073" id="Path_650116" fill="#022A3A" transform="translate(334 74)"/><path d="M827.826 107.648C827.298 108.491 826.86 109.387 826.518 110.321 825.452 112.867 824.607 115.499 823.992 118.189L803.475 118.189C806.614 110.852 809.39 103.242 808.327 99.446 807.696 97.4862 806.654 95.6832 805.272 94.157 802.914 91.4765 801.306 88.2201 800.612 84.718 799.761 80.379 797.896 65.774 809.598 60.018 814.593 57.5877 820.233 56.8139 825.698 57.809 826.367 57.472 827.059 57.151 827.788 56.862 821.491 55.319 814.854 56.0104 809.01 58.818 798.31 64.083 797.657 76.588 799.303 84.979 800.949 93.37 805.884 95.344 807.036 99.786 808.187 103.9 803.745 114.265 801.436 119.53L825.129 119.53C825.672 116.533 826.555 113.607 827.762 110.81 828.105 109.846 828.566 108.928 829.135 108.078 828.77 107.772 828.3 107.619 827.824 107.652" id="Path_650117" fill="#022A3A" transform="translate(334 74)"/><path d="M833.522 106.528C835.496 107.022 840.432 108.173 842.407 107.022 844.382 105.871 843.558 103.896 843.723 102.25 843.888 100.604 845.039 101.428 845.533 100.605 846.027 99.947 845.039 98.466 845.039 98.466 845.305 98.1709 845.527 97.8383 845.697 97.479 846.027 96.821 846.027 96.492 845.368 95.34 844.709 94.188 846.356 94.024 848.168 92.707 849.98 91.39 848.826 90.239 847.016 87.936 845.231 85.7851 844.506 82.9464 845.041 80.203 845.479 77.5824 845.423 74.9031 844.877 72.303 844.219 69.342 840.763 64.077 837.144 61.115 835.626 59.9476 833.958 58.9906 832.184 58.27 831.439 58.46 830.716 58.67 830.03 58.903 832.286 59.6357 834.406 60.7351 836.304 62.157 839.766 64.992 842.996 70.004 843.571 72.594 844.082 75.0212 844.134 77.5226 843.725 79.969 843.128 83.0863 843.949 86.3078 845.965 88.759L846.374 89.276C846.921 89.8773 847.383 90.5501 847.748 91.276 847.652 91.418 847.526 91.5375 847.379 91.626 846.908 91.9577 846.415 92.2558 845.902 92.518 845.039 92.982 844.224 93.418 843.959 94.343 843.809 94.9074 843.899 95.5088 844.209 96.004 844.528 96.561 844.586 96.732 844.583 96.704 844.563 96.767 844.536 96.8277 844.503 96.885 844.394 97.1144 844.256 97.3294 844.094 97.525L844.094 97.525 843.326 98.3 843.926 99.21C844.049 99.3999 844.154 99.6007 844.24 99.81 843.158 100.05 842.389 101.012 842.394 102.12 842.354 102.632 842.354 103.145 842.394 103.657 842.466 104.996 842.43 105.462 841.733 105.87 841.356 106.088 839.676 106.69 833.847 105.234 832.588 104.827 831.221 104.916 830.025 105.482 830.482 105.731 830.897 106.05 831.257 106.426 832.009 106.267 832.789 106.303 833.523 106.531" id="Path_650118" fill="#022A3A" transform="translate(334 74)"/><path d="M856.884 95.806C859.505 92.7946 861.291 89.1488 862.063 85.232 865.794 66.206 855.024 59.283 851.634 57.613 844.876 54.4198 837.167 53.8736 830.026 56.082 831.517 56.5316 832.966 57.1084 834.358 57.806 839.823 56.8116 845.463 57.585 850.458 60.014 862.158 65.775 860.294 80.378 859.442 84.714 858.748 88.2155 857.141 91.4715 854.784 94.152 853.406 95.6717 852.367 97.4666 851.735 99.418 850.665 103.237 853.441 110.849 856.581 118.185L836.058 118.185C835.444 115.499 834.6 112.87 833.536 110.328 833.193 109.389 832.752 108.489 832.22 107.643 831.511 107.607 830.796 107.889 830.02 109.138 830.426 109.821 830.766 110.54 831.036 111.287 832.202 113.982 833.058 116.8 833.588 119.687L833.735 120.858 860.653 120.858 859.833 118.984C858.203 115.259 853.243 103.922 854.308 100.112 854.857 98.5122 855.733 97.0441 856.88 95.801" id="Path_650119" fill="#022A3A" transform="translate(334 74)"/><path d="M827.826 107.648C828.302 107.615 828.771 107.768 829.137 108.074 829.62 107.286 830.373 106.699 831.256 106.424 830.897 106.047 830.481 105.729 830.024 105.48 829.115 106 828.357 106.747 827.824 107.648" id="Path_650120" fill="#022A3A" transform="translate(334 74)"/><path d="M826.2 105.231C820.367 106.687 818.687 106.086 818.314 105.866 817.614 105.46 817.581 104.993 817.653 103.655 817.694 103.143 817.694 102.629 817.653 102.117 817.658 101.009 816.89 100.047 815.808 99.807 815.893 99.598 815.997 99.3972 816.119 99.207L816.689 98.307 815.967 97.533C815.798 97.3336 815.656 97.1131 815.544 96.877 815.523 96.8299 815.5 96.7841 815.473 96.74 815.568 96.4809 815.691 96.2325 815.838 95.999 816.147 95.5036 816.238 94.9026 816.089 94.338 815.823 93.415 815.007 92.977 814.144 92.514 813.631 92.2506 813.137 91.9522 812.665 91.621 812.527 91.5377 812.405 91.4299 812.306 91.303 812.657 90.5615 813.118 89.8774 813.674 89.274L814.052 88.796C816.075 86.3619 816.911 83.1548 816.334 80.043 815.914 77.5724 815.962 75.0448 816.476 72.592 817.051 70.002 820.276 64.992 823.744 62.155 825.643 60.7324 827.765 59.6329 830.022 58.901 830.709 58.666 831.432 58.458 832.176 58.268 832.876 58.089 833.605 57.931 834.353 57.802 832.961 57.1043 831.512 56.5278 830.021 56.079 829.25 56.312 828.5 56.568 827.779 56.854 827.058 57.14 826.359 57.464 825.69 57.801 824.41 58.4317 823.198 59.1905 822.072 60.066L822.057 60.078C818.387 63.078 814.635 68.545 813.864 72.012 813.279 74.783 813.22 77.6391 813.689 80.432 814.16 82.8007 813.532 85.2553 811.98 87.106L811.58 87.612C810.399 89.099 809.468 90.274 809.656 91.658 809.813 92.5382 810.336 93.3107 811.094 93.784 811.663 94.1873 812.259 94.5502 812.879 94.87 813.006 94.938 813.153 95.016 813.287 95.092 812.687 95.9823 812.635 97.1331 813.152 98.074 813.244 98.256 813.336 98.42 813.425 98.566 812.93 99.4237 812.921 100.478 813.4 101.344 813.766 101.889 814.342 102.257 814.99 102.359L814.99 102.38C815.014 102.755 815.01 103.132 814.98 103.507 814.908 104.863 814.798 106.907 816.964 108.172 818.697 109.186 821.837 109.072 826.846 107.821 827.164 107.731 827.49 107.672 827.819 107.644 828.352 106.743 829.11 105.996 830.019 105.476 828.825 104.907 827.457 104.818 826.199 105.227" id="Path_650121" fill="#022A3A" transform="translate(334 74)"/><path d="M829.137 108.073C829.491 108.376 829.791 108.737 830.025 109.14 830.796 107.892 831.511 107.61 832.225 107.646 831.945 107.207 831.622 106.797 831.26 106.423 830.377 106.698 829.624 107.284 829.141 108.073" id="Path_650122" fill="#022A3A" transform="translate(334 74)"/><path d="M830.025 29.561C798.09 29.5616 772.202 55.4502 772.203 87.385 772.204 119.32 798.092 145.208 830.027 145.207 861.961 145.206 887.849 119.318 887.849 87.384 887.849 55.4492 861.961 29.561 830.026 29.561 830.026 29.561 830.025 29.561 830.025 29.561M830.444 125.544 792.234 125.544 795.925 117.112C801.04 105.424 801.28 102.104 801.21 101.312 800.773 100.358 800.192 99.4767 799.486 98.7 796.398 95.1117 794.299 90.7813 793.393 86.135 789.027 63.846 802.205 55.456 806.349 53.416 813.424 49.933 830.026 51.192 830.026 51.192 830.026 51.192 846.626 49.933 853.702 53.415 857.846 55.455 871.028 63.845 866.657 86.135 865.753 90.7772 863.657 95.1042 860.573 98.69L860.573 98.69C859.87 99.4586 859.289 100.331 858.852 101.277 858.774 102.05 858.985 105.35 864.129 117.109L867.82 125.541Z" id="Path_650123" fill="#022A3A" transform="translate(334 74)"/><path d="M758.664 87.384C758.666 88.7023 757.598 89.7723 756.28 89.774 754.962 89.7757 753.892 88.7083 753.89 87.39 753.888 86.0717 754.956 85.0017 756.274 85 756.275 85 756.276 85 756.277 85 757.595 85 758.664 86.0687 758.664 87.387" id="Path_650124" fill="#D6B430" transform="translate(334 74)"/><path d="M906.16 87.384C906.161 88.7018 905.094 89.7709 903.776 89.772 902.458 89.7731 901.389 88.7058 901.388 87.388 901.387 86.0703 902.454 85.0011 903.772 85 903.772 85 903.773 85 903.773 85 905.091 85 906.16 86.0687 906.16 87.387" id="Path_650125" fill="#D6B430" transform="translate(334 74)"/></g></svg>